<svg width="124" height="125" viewBox="0 0 124 125" fill="none" xmlns="http://www.w3.org/2000/svg">
<path d="M38.0411 91.6884C36.7997 92.9366 35.9544 94.5267 35.6122 96.2577C35.2699 97.9887 35.4461 99.7827 36.1184 101.413C36.7906 103.043 37.9289 104.437 39.3891 105.417C40.8494 106.398 42.5661 106.921 44.3222 106.921C46.0784 106.921 47.7951 106.398 49.2554 105.417C50.7156 104.437 51.8539 103.043 52.5261 101.413C53.1984 99.7827 53.3746 97.9887 53.0323 96.2577C52.6901 94.5267 51.8448 92.9366 50.6034 91.6884C49.7787 90.8591 48.7995 90.2013 47.7218 89.7525C46.644 89.3038 45.4889 89.0728 44.3222 89.0728C43.1556 89.0728 42.0005 89.3038 40.9227 89.7525C39.845 90.2013 38.8658 90.8591 38.0411 91.6884" fill="#4B82BC" fill-opacity="0.15"/>
<path d="M15.1615 68.5136C16.4029 67.2653 17.2482 65.6752 17.5904 63.9442C17.9327 62.2133 17.7565 60.4192 17.0842 58.7888C16.412 57.1585 15.2737 55.765 13.8135 54.7846C12.3532 53.8043 10.6365 53.281 8.88035 53.281C7.1242 53.281 5.40747 53.8043 3.94722 54.7846C2.48696 55.765 1.34874 57.1585 0.676461 58.7888C0.00418129 60.4192 -0.171973 62.2133 0.170269 63.9442C0.512512 65.6752 1.35778 67.2653 2.59922 68.5136C3.4239 69.3428 4.40308 70.0006 5.48083 70.4494C6.55857 70.8982 7.71374 71.1292 8.88035 71.1292C10.047 71.1292 11.2021 70.8982 12.2799 70.4494C13.3576 70.0006 14.3368 69.3428 15.1615 68.5136" fill="#4B82BC" fill-opacity="0.15"/>
<path d="M55.7135 109.529C54.472 110.777 53.6268 112.368 53.2845 114.099C52.9423 115.829 53.1184 117.624 53.7907 119.254C54.463 120.884 55.6012 122.278 57.0615 123.258C58.5217 124.238 60.2385 124.762 61.9946 124.762C63.7508 124.762 65.4675 124.238 66.9277 123.258C68.388 122.278 69.5262 120.884 70.1985 119.254C70.8708 117.624 71.0469 115.829 70.7047 114.099C70.3624 112.368 69.5172 110.777 68.2757 109.529C67.4511 108.7 66.4719 108.042 65.3941 107.593C64.3164 107.145 63.1612 106.914 61.9946 106.914C60.828 106.914 59.6728 107.145 58.5951 107.593C57.5173 108.042 56.5382 108.7 55.7135 109.529" fill="#1D4283" fill-opacity="0.15"/>
<path d="M73.5177 91.6882C72.2762 92.9365 71.431 94.5266 71.0887 96.2576C70.7465 97.9885 70.9226 99.7826 71.5949 101.413C72.2672 103.043 73.4054 104.437 74.8657 105.417C76.3259 106.398 78.0427 106.921 79.7988 106.921C81.555 106.921 83.2717 106.398 84.7319 105.417C86.1922 104.437 87.3304 103.043 88.0027 101.413C88.675 99.7826 88.8511 97.9885 88.5089 96.2576C88.1666 94.5266 87.3214 92.9365 86.0799 91.6882C85.2557 90.8581 84.2767 90.1996 83.1989 89.7502C82.1211 89.3009 80.9657 89.0696 79.7988 89.0696C78.6319 89.0696 77.4765 89.3009 76.3987 89.7502C75.3209 90.1996 74.3419 90.8581 73.5177 91.6882" fill="#4B82BC" fill-opacity="0.15"/>
<path d="M108.827 55.8893C107.585 57.1384 106.738 58.7298 106.395 60.4624C106.052 62.1949 106.229 63.9906 106.901 65.6226C107.574 67.2545 108.713 68.6494 110.175 69.6308C111.636 70.6121 113.354 71.1359 115.112 71.1359C116.87 71.1359 118.588 70.6121 120.05 69.6308C121.511 68.6494 122.651 67.2545 123.323 65.6226C123.996 63.9906 124.172 62.1949 123.829 60.4624C123.486 58.7298 122.64 57.1384 121.397 55.8893C119.729 54.216 117.469 53.2761 115.112 53.2761C112.756 53.2761 110.495 54.216 108.827 55.8893" fill="#4B82BC" fill-opacity="0.15"/>
<path d="M73.5616 20.4789C72.3177 21.7276 71.4703 23.319 71.1266 25.0518C70.7828 26.7846 70.9583 28.5809 71.6307 30.2134C72.3031 31.846 73.4423 33.2414 74.904 34.2233C76.3658 35.2051 78.0845 35.7292 79.8427 35.7292C81.6009 35.7292 83.3197 35.2051 84.7814 34.2233C86.2432 33.2414 87.3823 31.846 88.0547 30.2134C88.7271 28.5809 88.9026 26.7846 88.5589 25.0518C88.2152 23.319 87.3678 21.7276 86.1239 20.4789C85.2992 19.6497 84.32 18.9919 83.2422 18.5431C82.1645 18.0943 81.0093 17.8633 79.8427 17.8633C78.6761 17.8633 77.5209 18.0943 76.4432 18.5431C75.3655 18.9919 74.3863 19.6497 73.5616 20.4789Z" fill="#4B82BC" fill-opacity="0.15"/>
<path d="M68.2757 15.2326C69.5172 13.9843 70.3624 12.3942 70.7047 10.6632C71.0469 8.93227 70.8708 7.13819 70.1985 5.50782C69.5262 3.87745 68.388 2.484 66.9277 1.50363C65.4675 0.523261 63.7508 0 61.9946 0C60.2385 0 58.5217 0.523261 57.0615 1.50363C55.6012 2.484 54.463 3.87745 53.7907 5.50782C53.1184 7.13819 52.9423 8.93227 53.2845 10.6632C53.6268 12.3942 54.472 13.9843 55.7135 15.2326C56.5382 16.0618 57.5173 16.7196 58.5951 17.1684C59.6728 17.6172 60.828 17.8482 61.9946 17.8482C63.1612 17.8482 64.3164 17.6172 65.3941 17.1684C66.4719 16.7196 67.4511 16.0618 68.2757 15.2326" fill="#1D4283" fill-opacity="0.15"/>
<path d="M50.608 33.0736C51.8484 31.825 52.6927 30.2348 53.0341 28.5042C53.3755 26.7735 53.1987 24.9799 52.5261 23.3502C51.8535 21.7204 50.7153 20.3275 49.2553 19.3476C47.7953 18.3677 46.0789 17.8447 44.3232 17.8447C42.5675 17.8447 40.8512 18.3677 39.3912 19.3476C37.9311 20.3275 36.7929 21.7204 36.1203 23.3502C35.4477 24.9799 35.271 26.7735 35.6124 28.5042C35.9538 30.2348 36.798 31.825 38.0384 33.0736C39.7049 34.7465 41.9641 35.6862 44.3196 35.6862C46.6751 35.6862 48.9342 34.7465 50.6007 33.0736" fill="#4B82BC" fill-opacity="0.15"/>
<path d="M88.5585 62.9231C88.5585 62.7472 88.5585 62.5714 88.5585 62.3882C88.5585 62.205 88.5585 62.0292 88.5585 61.8534L88.6241 61.1866C88.9129 59.0597 89.958 57.1097 91.5662 55.6969C93.1744 54.2842 95.2371 53.504 97.3732 53.5008H97.5117C99.2547 53.4733 100.951 52.9288 102.387 51.9358C103.823 50.9427 104.935 49.5452 105.583 47.919C106.231 46.2928 106.387 44.5104 106.03 42.7957C105.673 41.081 104.82 39.5104 103.578 38.2814C102.336 37.0523 100.76 36.2196 99.0483 35.8878C97.3366 35.556 95.5655 35.7399 93.9576 36.4165C92.3496 37.0931 90.9765 38.2321 90.0107 39.6905C89.0449 41.1488 88.5295 42.8615 88.5293 44.6133C88.4632 46.9272 87.5021 49.124 85.8501 50.7372C84.198 52.3504 81.9853 53.2528 79.6818 53.2528C77.3783 53.2528 75.1655 52.3504 73.5135 50.7372C71.8615 49.124 70.9004 46.9272 70.8342 44.6133C70.7681 42.2994 69.807 40.1026 68.155 38.4894C66.503 36.8762 64.2902 35.9738 61.9867 35.9738C59.6832 35.9738 57.4705 36.8762 55.8184 38.4894C54.1664 40.1026 53.2053 42.2994 53.1392 44.6133C53.1392 46.9704 52.2074 49.231 50.5489 50.8977C48.8903 52.5644 46.6408 53.5008 44.2953 53.5008C41.9497 53.5008 39.7002 52.5644 38.0417 50.8977C36.3831 49.231 35.4514 46.9704 35.4514 44.6133C35.4541 42.8591 34.9405 41.1433 33.9754 39.6816C33.0102 38.22 31.6366 37.0777 30.0271 36.3986C28.4177 35.7194 26.6443 35.5336 24.9301 35.8646C23.2158 36.1956 21.6373 37.0286 20.3929 38.2588C19.1485 39.489 18.2939 41.0615 17.9365 42.7785C17.5791 44.4956 17.7349 46.2805 18.3844 47.9087C19.0338 49.537 20.1478 50.936 21.5863 51.9297C23.0248 52.9234 24.7236 53.4674 26.469 53.4934H26.6075C28.744 53.4952 30.8075 54.2747 32.4161 55.6878C34.0246 57.1009 35.0693 59.0518 35.3566 61.1793L35.4222 61.8387C35.4222 62.0145 35.4222 62.1904 35.4222 62.3662C35.4222 62.4542 35.4222 62.5348 35.4222 62.6227V62.3809C35.4222 62.5641 35.4222 62.7399 35.4222 62.9158L35.3639 63.5825C35.0736 65.7088 34.0281 67.6579 32.4202 69.0704C30.8123 70.4829 28.7504 71.2635 26.6148 71.2683H26.4763C24.7333 71.2972 23.0377 71.8431 21.6025 72.8374C20.1673 73.8317 19.0564 75.23 18.4096 76.8567C17.7627 78.4835 17.6087 80.266 17.9668 81.9804C18.3249 83.6949 19.1793 85.2647 20.4224 86.4927C21.6656 87.7207 23.2422 88.5522 24.9541 88.8826C26.666 89.2129 28.4369 89.0276 30.0443 88.3497C31.6518 87.6718 33.024 86.5317 33.9886 85.0725C34.9532 83.6133 35.4672 81.9003 35.466 80.1485C35.466 78.9814 35.6947 77.8257 36.1392 76.7474C36.5836 75.6691 37.2351 74.6894 38.0563 73.8641C38.8775 73.0388 39.8525 72.3842 40.9255 71.9375C41.9984 71.4909 43.1485 71.261 44.3099 71.261C45.4713 71.261 46.6213 71.4909 47.6943 71.9375C48.7673 72.3842 49.7422 73.0388 50.5634 73.8641C51.3847 74.6894 52.0361 75.6691 52.4805 76.7474C52.925 77.8257 53.1538 78.9814 53.1538 80.1485C53.1525 81.902 53.6671 83.6168 54.6328 85.0774C55.5985 86.5379 56.9723 87.679 58.5815 88.3572C60.1906 89.0355 61.9634 89.2206 63.6769 88.8894C65.3905 88.5581 66.9684 87.7253 68.2123 86.4955C69.4562 85.2657 70.3107 83.6939 70.6683 81.9775C71.0259 80.2612 70.8707 78.4769 70.2221 76.849C69.5736 75.221 68.4607 73.822 67.0234 72.8278C65.586 71.8336 63.8882 71.2885 62.1435 71.261H62.0049C59.8684 71.2593 57.8049 70.4797 56.1963 69.0666C54.5878 67.6536 53.5432 65.7027 53.2558 63.5752L53.1902 62.9084C53.1902 62.7326 53.1902 62.5567 53.1902 62.3736V62.63C53.1902 62.5421 53.1902 62.4542 53.1902 62.3736C53.1902 62.1977 53.1902 62.0145 53.1902 61.8387L53.2558 61.1793C53.5546 59.0613 54.6042 57.1228 56.2116 55.7204C57.819 54.3179 59.8762 53.5457 62.0049 53.5457C64.1337 53.5457 66.1908 54.3179 67.7982 55.7204C69.4056 57.1228 70.4552 59.0613 70.754 61.1793L70.8124 61.8387C70.8124 62.0145 70.8124 62.1904 70.8124 62.3736C70.8124 62.3736 70.8124 62.4395 70.8124 62.4761C70.8124 62.7399 70.8124 63.011 70.8124 63.2748C70.8124 63.414 70.8561 63.5532 70.878 63.6851C70.8999 63.8169 70.878 64.0001 70.9436 64.1467C71.0092 64.2932 71.0311 64.4764 71.0676 64.6376C71.104 64.7987 71.1259 64.8793 71.1623 64.9966C71.1988 65.1138 71.2863 65.3483 71.3519 65.5168C71.4175 65.6853 71.4175 65.7146 71.454 65.8098C71.4904 65.9051 71.629 66.1762 71.7164 66.3667C71.7164 66.4326 71.7821 66.5059 71.8185 66.5718C71.9279 66.7697 72.0445 66.9602 72.1612 67.1507C72.1612 67.202 72.2195 67.2532 72.256 67.2972C72.3945 67.5023 72.5403 67.7075 72.6934 67.898L72.7518 67.9786C72.9195 68.1837 73.1017 68.3816 73.284 68.5721C74.9069 70.2327 77.1145 71.1853 79.4302 71.2244H79.5906C80.7527 71.2234 81.9035 71.4526 82.9773 71.8988C84.0511 72.345 85.0269 72.9995 85.8489 73.8249C86.6709 74.6502 87.323 75.6303 87.7679 76.7091C88.2128 77.7878 88.4418 78.9441 88.4418 80.1118C88.4391 81.866 88.9527 83.5819 89.9178 85.0435C90.883 86.5052 92.2566 87.6474 93.8661 88.3266C95.4755 89.0057 97.2489 89.1915 98.9631 88.8605C100.677 88.5295 102.256 87.6965 103.5 86.4663C104.745 85.2361 105.599 83.6636 105.957 81.9466C106.314 80.2296 106.158 78.4447 105.509 76.8164C104.859 75.1881 103.745 73.7892 102.307 72.7955C100.868 71.8018 99.1696 71.2577 97.4243 71.2317H97.2857C95.1496 71.2284 93.0869 70.4483 91.4787 69.0355C89.8705 67.6227 88.8254 65.6727 88.5366 63.5459L88.5585 62.9231ZM35.4587 62.1318C35.4587 62.205 35.4587 62.2856 35.4587 62.3589V62.1318ZM53.1465 62.3736C53.15 62.3321 53.15 62.2904 53.1465 62.249V62.1318V62.3736ZM88.522 62.6447C88.522 62.5641 88.522 62.4908 88.522 62.4102V62.6373V62.6447ZM88.522 62.3882C88.522 62.3076 88.522 62.227 88.522 62.1464V62.3882ZM70.8488 62.1318C70.845 62.1928 70.845 62.254 70.8488 62.3149C70.8488 62.3149 70.8488 62.3149 70.8488 62.3736V62.1318Z" fill="#1D4283" fill-opacity="0.15"/>
</svg>
