<svg width="203" height="102" fill="none" xmlns="http://www.w3.org/2000/svg"><path d="M116.071 70.38c.04.58-.141 1.152-.508 1.601-.345.373-1.015.561-1.949.561-.933 0-1.578-.178-1.923-.535a2.252 2.252 0 0 1-.508-1.627c-.012-.316.062-.63.214-.908.126-.22.285-.42.472-.591.199-.165.422-.301.659-.403.305-.118.635-.23.975-.347.34-.117.599-.204.933-.332.335-.127.645-.234.934-.331.151-.047.294-.114.427-.199a.637.637 0 0 0 .289-.434l-.015 3.545zm1.233-10.2c-.787-.663-2.03-.995-3.7-.995a7.742 7.742 0 0 0-2.207.276 4.53 4.53 0 0 0-1.523.75 2.87 2.87 0 0 0-.873 1.106c-.183.429-.277.89-.274 1.357v.694h2.441c-.01-.523.171-1.03.508-1.428.335-.393.984-.592 1.938-.592a3.8 3.8 0 0 1 1.193.158c.278.085.536.228.756.418.176.154.315.345.406.561.071.19.108.39.112.592v.55c.003.208-.041.414-.127.602a2.271 2.271 0 0 1-.305.465 1.268 1.268 0 0 1-.355.3l-.304.159c-.076 0-.269.086-.574.203-.304.118-.665.245-1.076.388l-1.274.444c-.441.158-.832.29-1.177.408a3.047 3.047 0 0 0-1.593 1.265 3.696 3.696 0 0 0-.559 1.989v1.356c.006.387.069.77.188 1.138.137.438.39.83.731 1.137.433.388.941.683 1.492.867a8.946 8.946 0 0 0 4.933 0 4.265 4.265 0 0 0 1.492-.867c.337-.31.589-.701.731-1.137.116-.369.179-.752.187-1.138V62.67a3.124 3.124 0 0 0-1.177-2.494M124.45 53.56h-2.411v20.895h2.411V53.56zM132.133 59.211a6.977 6.977 0 0 0-2.695.418c-.56.22-1.061.57-1.462 1.02a2.521 2.521 0 0 0-.604 1.168 5.232 5.232 0 0 0-.116.908V74.46h2.441V63.189c0-.19.024-.378.071-.561.054-.22.168-.419.33-.576.209-.208.457-.37.73-.48.4-.147.824-.214 1.249-.199h1.116l.543-2.106a4.293 4.293 0 0 0-.756-.04h-.847M142.801 70.38c.04.58-.142 1.152-.508 1.601-.34.373-.99.561-1.949.561-.959 0-1.578-.178-1.923-.535a2.272 2.272 0 0 1-.508-1.627c-.012-.316.062-.63.214-.908.126-.22.285-.42.471-.591.2-.165.422-.301.66-.403.31-.118.635-.23.98-.347.345-.117.593-.204.928-.332.335-.127.645-.234.934-.331.152-.048.297-.115.432-.199a.632.632 0 0 0 .284-.434l-.015 3.545zm1.233-10.2c-.782-.68-2.015-1.011-3.7-.995a7.738 7.738 0 0 0-2.207.276 4.5 4.5 0 0 0-1.523.75c-.381.288-.683.669-.878 1.106-.184.429-.277.89-.274 1.357v.694h2.441a2.123 2.123 0 0 1 .508-1.428c.334-.393.979-.592 1.933-.592.404-.011.806.042 1.193.158.278.085.535.228.756.418.178.152.317.345.406.561.073.189.111.39.112.592v.55a1.33 1.33 0 0 1-.127.602 2.314 2.314 0 0 1-.305.465 1.268 1.268 0 0 1-.355.3l-.305.159c-.076 0-.263.086-.573.203-.31.118-.665.245-1.076.388l-1.274.444c-.441.158-.832.29-1.177.408a3.05 3.05 0 0 0-1.589 1.265 3.668 3.668 0 0 0-.563 1.989v1.356c.008.386.071.77.188 1.138.142.436.394.827.731 1.137.433.388.941.683 1.492.867a8.946 8.946 0 0 0 4.933 0 4.223 4.223 0 0 0 1.492-.867 2.55 2.55 0 0 0 .73-1.137c.119-.368.183-.751.188-1.138V62.67a3.122 3.122 0 0 0-1.177-2.494M155.365 63.388v.26a1.521 1.521 0 0 1-.507 1.142 1.596 1.596 0 0 1-1.147.475h-1.634c-.097 0-.228 0-.401.025a2.706 2.706 0 0 0-.508.117c-.165.054-.32.137-.456.245a.734.734 0 0 0-.259.418v-2.998c.007-.173.036-.345.086-.51.068-.218.192-.413.36-.566.225-.2.487-.35.772-.444a3.74 3.74 0 0 1 1.304-.189c.424-.016.848.048 1.249.189.275.095.524.252.73.459.159.16.274.359.335.576.044.184.068.372.071.561l.005.24zm1.721-2.795a3.964 3.964 0 0 0-1.462-1.02 8.909 8.909 0 0 0-5.394 0 3.92 3.92 0 0 0-1.462 1.02 2.588 2.588 0 0 0-.604 1.153 5.123 5.123 0 0 0-.117.923V71.2c-.02.616.158 1.223.508 1.729.17.23.362.441.573.632.262.234.558.425.878.567.401.178.82.313 1.249.402a8.133 8.133 0 0 0 1.69.158 7.697 7.697 0 0 0 2.182-.26 4.71 4.71 0 0 0 1.345-.606c.43-.291.78-.688 1.015-1.153.22-.447.333-.94.33-1.438v-.694h-2.436c.001.296-.049.589-.147.867a1.46 1.46 0 0 1-.508.689 3.4 3.4 0 0 1-.604.275c-.38.12-.779.174-1.177.158a4.162 4.162 0 0 1-.929-.087 2.618 2.618 0 0 1-.589-.204 1.335 1.335 0 0 1-.431-.255 1.67 1.67 0 0 1-.259-.346 2.047 2.047 0 0 1-.259-1.097v-1.295a1.823 1.823 0 0 1 .574-1.357 1.853 1.853 0 0 1 1.319-.546h2.182c.262 0 .522-.04.772-.117.245-.067.484-.154.715-.26.275-.115.521-.289.721-.51.39-.355.689-.8.873-1.295.118-.354.181-.724.188-1.097V62.68a5.335 5.335 0 0 0-.117-.908 2.555 2.555 0 0 0-.599-1.168M167.409 64.54v6.258c-.001.206-.039.41-.111.602a1.502 1.502 0 0 1-.391.581c-.215.192-.47.334-.746.413a3.734 3.734 0 0 1-1.188.164 3.625 3.625 0 0 1-1.162-.164 2.027 2.027 0 0 1-.746-.413 1.61 1.61 0 0 1-.401-.606 2.432 2.432 0 0 1-.157-.725v-6.12c-.011-.316.062-.63.213-.907.129-.219.288-.418.472-.592.195-.178.418-.323.66-.428.309-.118.634-.23.979-.347l.929-.316c.335-.118.644-.225.934-.317.157-.042.307-.111.441-.204a.651.651 0 0 0 .274-.459v3.58zm0-7.287v.545c.005.21-.038.418-.127.607-.082.165-.184.32-.304.46-.099.12-.22.223-.355.3l-.3.158c-.081 0-.269.087-.573.204l-1.066.388-1.259.449-1.177.403a3.046 3.046 0 0 0-1.619 1.27 3.641 3.641 0 0 0-.563 1.988v.663h.03v5.85h-.03v.694c-.003.464.09.925.274 1.351.193.439.493.821.873 1.112a4.61 4.61 0 0 0 1.522.75 7.896 7.896 0 0 0 2.223.27c1.665 0 2.888-.332 3.669-.995.374-.297.676-.675.885-1.106.209-.43.319-.903.323-1.382V53.55h-2.441l.015 3.703zM180 70.38a2.313 2.313 0 0 1-.508 1.601c-.345.373-1.015.561-1.954.561-.939 0-1.578-.178-1.918-.535a2.252 2.252 0 0 1-.508-1.627c-.012-.316.062-.63.214-.908.127-.22.288-.42.477-.591.197-.166.417-.302.654-.403.31-.118.635-.23.98-.347.345-.117.593-.204.928-.332l.934-.331c.152-.048.297-.115.432-.199a.633.633 0 0 0 .284-.434L180 70.38zm1.233-10.2c-.782-.68-2.015-1.011-3.7-.995a7.764 7.764 0 0 0-2.207.276 4.496 4.496 0 0 0-1.523.75c-.381.288-.683.669-.878 1.106-.182.429-.273.89-.269 1.357v.694h2.431a2.127 2.127 0 0 1 .507-1.428c.335-.393.98-.592 1.934-.592.403-.011.806.042 1.193.158.279.087.538.229.761.418.174.154.312.346.401.561.073.189.11.39.112.592v.55c.005.208-.039.415-.127.602a2.515 2.515 0 0 1-.3.465 1.37 1.37 0 0 1-.36.3l-.3.159c-.081 0-.269.086-.573.203l-1.076.388-1.279.444c-.441.158-.832.29-1.177.408a3.05 3.05 0 0 0-1.589 1.265 3.657 3.657 0 0 0-.558 1.989v1.356c.006.386.068.77.183 1.138.142.436.394.827.731 1.137.433.388.941.683 1.492.867a8.946 8.946 0 0 0 4.933 0 4.18 4.18 0 0 0 1.492-.867 2.55 2.55 0 0 0 .73-1.137c.119-.368.182-.751.188-1.138V62.67a3.121 3.121 0 0 0-1.177-2.494M194.413 62.006a3.047 3.047 0 0 0-1.588-1.27l-1.193-.403-1.279-.444-1.06-.392a13.049 13.049 0 0 0-.574-.2l-.299-.157a1.311 1.311 0 0 1-.361-.306 2.32 2.32 0 0 1-.299-.46 1.352 1.352 0 0 1-.127-.606V53.55h-2.395v20.91h2.41V60.94a.642.642 0 0 0 .284.459c.134.088.279.156.432.204.304.097.619.199.944.316.325.117.634.22.918.316.285.097.67.23.975.347.255.1.489.248.69.434.185.17.339.37.457.591.145.28.215.593.203.908v9.945h2.436V63.995a3.65 3.65 0 0 0-.559-1.99M194.966 27.285h-2.411V48.18h2.411V27.285zM158.68 27.285h-2.411V48.18h2.411V27.285zM185.237 44.232a2.587 2.587 0 0 1-.071.561c-.06.217-.173.416-.33.577a1.961 1.961 0 0 1-.731.459c-.401.14-.824.203-1.248.188h-13.723a3.391 3.391 0 0 1-1.248-.188 1.961 1.961 0 0 1-.731-.46 1.245 1.245 0 0 1-.33-.576 2.259 2.259 0 0 1-.071-.56V32.904h-2.441v17.233a2.167 2.167 0 0 1-.081.566 1.292 1.292 0 0 1-.361.561c-.222.197-.48.348-.761.444a3.712 3.712 0 0 1-1.319.189l.056 2.162a7.001 7.001 0 0 0 2.699-.418 3.92 3.92 0 0 0 1.462-1.02c.291-.314.499-.696.604-1.112.063-.304.101-.613.112-.923v-2.744a7.303 7.303 0 0 0 2.334.332h13.748a7.022 7.022 0 0 0 2.7-.419c.56-.22 1.06-.57 1.462-1.02.296-.331.504-.733.604-1.167.064-.3.102-.603.111-.908V27.285h-2.446v16.947zM147.977 44.232c0 .19-.024.378-.071.561-.056.219-.17.418-.33.577a1.968 1.968 0 0 1-.731.459c-.399.14-.821.204-1.243.188h-14.281c.028-.06.052-.124.071-.189.118-.367.182-.75.187-1.137V36.16a3.357 3.357 0 0 0-.274-1.352 2.79 2.79 0 0 0-.878-1.111 4.558 4.558 0 0 0-1.522-.75 7.8 7.8 0 0 0-2.213-.27c-1.7 0-2.938.326-3.71 1.02a3.128 3.128 0 0 0-1.162 2.488v.694h2.406v-.311c.002-.203.042-.403.116-.592a1.45 1.45 0 0 1 .401-.566c.222-.19.481-.332.762-.413a3.724 3.724 0 0 1 1.187-.163c.959 0 1.604.199 1.939.592.338.397.518.905.507 1.428v7.007a2.26 2.26 0 0 1-.507 1.632c-.345.352-.985.51-1.924.51l-5.415-.04v2.218h24.228a7.019 7.019 0 0 0 2.7-.419 3.905 3.905 0 0 0 1.462-1.02c.298-.33.504-.732.599-1.167.065-.299.104-.603.116-.908V32.885h-2.441l.021 11.347zM149.053 30.32a.455.455 0 0 1-.076-.306v-1.02a.365.365 0 0 1 .086-.256s.071-.076.386-.076a.782.782 0 0 1 .284.036c.05.011.097.034.137.066a.254.254 0 0 1 .046.061.245.245 0 0 1 0 .077v.413h1.421v-.52a1.342 1.342 0 0 0-.508-1.051 2.082 2.082 0 0 0-1.411-.403 2.881 2.881 0 0 0-.807.102 1.815 1.815 0 0 0-.604.301 1.43 1.43 0 0 0-.492 1.076v1.49a1.05 1.05 0 0 0 0 .112h-.756v1.34h4.699V30.37l-2.07.026a.677.677 0 0 1-.396-.076M116.049 44.37c-.001.19-.028.379-.081.56a1.283 1.283 0 0 1-.36.567 2.341 2.341 0 0 1-.761.444 3.699 3.699 0 0 1-1.32.188 3.4 3.4 0 0 1-1.248-.188 1.961 1.961 0 0 1-.731-.46 1.304 1.304 0 0 1-.33-.59 2.686 2.686 0 0 1-.076-.521v-7.65a2.71 2.71 0 0 1 .071-.546c.056-.223.17-.427.33-.591.206-.206.456-.363.73-.46.401-.14.825-.203 1.249-.188.447-.018.895.046 1.319.189.281.096.539.246.762.443.167.152.291.346.36.561.052.184.08.375.081.566l.005 7.676zm1.726-10.2a3.943 3.943 0 0 0-1.467-1.02 8.891 8.891 0 0 0-5.39 0 3.924 3.924 0 0 0-1.461 1.02c-.298.33-.506.733-.604 1.168a5.332 5.332 0 0 0-.117.908v8.563c.013.305.052.609.117.907.099.435.307.837.604 1.168.406.439.905.78 1.461.995a8.891 8.891 0 0 0 5.39 0 3.942 3.942 0 0 0 1.467-.995c.293-.327.499-.723.599-1.152a5.12 5.12 0 0 0 .116-.923v-8.533a5.12 5.12 0 0 0-.116-.923 2.566 2.566 0 0 0-.599-1.152M116.74 28.611h-2.436v2.912h2.436v-2.912zM112.899 28.611h-2.441v2.912h2.441v-2.912zM69.674 51.377v-.744l.046-.464a6.195 6.195 0 0 1 2.048-3.822 6.138 6.138 0 0 1 4.042-1.528h.096a6.135 6.135 0 0 0 3.394-1.09 6.18 6.18 0 0 0 2.225-2.795 6.215 6.215 0 0 0-1.396-6.709 6.128 6.128 0 0 0-6.697-1.298 6.163 6.163 0 0 0-2.747 2.279 6.208 6.208 0 0 0-1.03 3.426 6.205 6.205 0 0 1-1.866 4.263 6.145 6.145 0 0 1-4.293 1.751 6.145 6.145 0 0 1-4.294-1.75 6.206 6.206 0 0 1-1.865-4.264 6.206 6.206 0 0 0-1.865-4.262 6.145 6.145 0 0 0-4.294-1.751 6.145 6.145 0 0 0-4.293 1.75 6.206 6.206 0 0 0-1.865 4.264c0 1.64-.649 3.214-1.803 4.374a6.141 6.141 0 0 1-4.353 1.812 6.141 6.141 0 0 1-4.353-1.812 6.202 6.202 0 0 1-1.803-4.374 6.214 6.214 0 0 0-1.027-3.433 6.168 6.168 0 0 0-2.749-2.286 6.133 6.133 0 0 0-6.706 1.295 6.22 6.22 0 0 0-1.398 6.717 6.186 6.186 0 0 0 2.229 2.8 6.14 6.14 0 0 0 3.399 1.088h.096a6.133 6.133 0 0 1 4.043 1.527 6.19 6.19 0 0 1 2.047 3.823l.046.459V51.168 51v.372l-.04.464a6.2 6.2 0 0 1-2.05 3.82 6.143 6.143 0 0 1-4.04 1.53h-.097c-1.213.02-2.394.4-3.393 1.093a6.18 6.18 0 0 0-2.222 2.797 6.214 6.214 0 0 0 1.4 6.708 6.128 6.128 0 0 0 6.698 1.293 6.163 6.163 0 0 0 2.746-2.282 6.208 6.208 0 0 0 1.028-3.428 6.214 6.214 0 0 1 1.803-4.374 6.154 6.154 0 0 1 4.353-1.812 6.13 6.13 0 0 1 4.353 1.812 6.19 6.19 0 0 1 1.803 4.374c0 1.221.358 2.415 1.03 3.431a6.168 6.168 0 0 0 2.748 2.283 6.133 6.133 0 0 0 6.704-1.296 6.22 6.22 0 0 0 1.399-6.715 6.186 6.186 0 0 0-2.227-2.798 6.14 6.14 0 0 0-3.396-1.09h-.097a6.133 6.133 0 0 1-4.043-1.528 6.19 6.19 0 0 1-2.047-3.823l-.045-.464v-.372.178-.55l.045-.46a6.19 6.19 0 0 1 2.058-3.8 6.133 6.133 0 0 1 4.032-1.513c1.482 0 2.914.538 4.033 1.514a6.19 6.19 0 0 1 2.057 3.8l.04.459V51.622c0 .097.031.194.047.286.015.092 0 .22.045.321.046.102.061.23.087.342.025.112.04.168.065.25.026.081.087.245.132.362.046.117.046.138.071.204.026.066.122.255.183.387 0 .046.046.097.071.143.076.138.157.27.239.403 0 .036.04.072.066.102.096.143.198.286.304.418l.04.056a6.126 6.126 0 0 0 4.649 2.26h.112a6.131 6.131 0 0 1 4.356 1.81 6.188 6.188 0 0 1 1.805 4.376 6.213 6.213 0 0 0 1.028 3.433 6.168 6.168 0 0 0 2.748 2.285 6.133 6.133 0 0 0 6.706-1.295 6.22 6.22 0 0 0 1.398-6.717 6.186 6.186 0 0 0-2.229-2.799 6.14 6.14 0 0 0-3.398-1.088h-.097a6.138 6.138 0 0 1-4.042-1.529 6.195 6.195 0 0 1-2.048-3.821l.015-.434zm-36.96-.55v.158-.158zm12.311.168a.502.502 0 0 0 0-.087v-.081.168zm24.624.189v-.164.164zm0-.179v-.168.168zm-12.302-.178a1.043 1.043 0 0 0 0 .127v.04-.167z" fill="#1D4283"/><path d="M43.259 30.6a6.24 6.24 0 0 0 1.335-6.768 6.205 6.205 0 0 0-2.277-2.786 6.16 6.16 0 0 0-6.866 0 6.206 6.206 0 0 0-2.277 2.786A6.24 6.24 0 0 0 34.51 30.6a6.17 6.17 0 0 0 4.372 1.819 6.17 6.17 0 0 0 4.372-1.819" fill="#4B82BC"/><path d="M55.556 18.181a6.24 6.24 0 0 0 1.338-6.77 6.204 6.204 0 0 0-2.276-2.786 6.16 6.16 0 0 0-6.868 0 6.206 6.206 0 0 0-2.276 2.787 6.24 6.24 0 0 0 1.338 6.77 6.18 6.18 0 0 0 4.372 1.82 6.154 6.154 0 0 0 4.372-1.82z" fill="#1D4283"/><path d="M59.236 21.833a6.246 6.246 0 0 0-1.344 6.776A6.211 6.211 0 0 0 60.17 31.4a6.165 6.165 0 0 0 6.875 0 6.21 6.21 0 0 0 2.279-2.791 6.245 6.245 0 0 0-1.344-6.776 6.179 6.179 0 0 0-4.372-1.82 6.155 6.155 0 0 0-4.372 1.82zM83.783 46.481a6.245 6.245 0 0 0-1.34 6.775 6.21 6.21 0 0 0 2.278 2.79 6.165 6.165 0 0 0 6.874 0 6.21 6.21 0 0 0 2.278-2.79 6.245 6.245 0 0 0-1.34-6.775 6.176 6.176 0 0 0-4.375-1.819c-1.64 0-3.214.655-4.375 1.82zM59.205 71.4a6.24 6.24 0 0 0-1.338 6.77 6.204 6.204 0 0 0 2.277 2.786 6.16 6.16 0 0 0 6.867 0 6.205 6.205 0 0 0 2.277-2.787A6.24 6.24 0 0 0 67.95 71.4a6.175 6.175 0 0 0-4.373-1.823 6.15 6.15 0 0 0-4.372 1.823z" fill="#4B82BC"/><path d="M46.812 83.819a6.241 6.241 0 0 0-1.338 6.77 6.206 6.206 0 0 0 2.276 2.786 6.16 6.16 0 0 0 6.868 0 6.205 6.205 0 0 0 2.276-2.787 6.24 6.24 0 0 0-1.338-6.77 6.179 6.179 0 0 0-4.372-1.82 6.155 6.155 0 0 0-4.372 1.82z" fill="#1D4283"/><path d="M18.585 55.269a6.24 6.24 0 0 0 1.338-6.77 6.206 6.206 0 0 0-2.276-2.787 6.16 6.16 0 0 0-6.868 0A6.205 6.205 0 0 0 8.502 48.5a6.24 6.24 0 0 0 1.339 6.769 6.18 6.18 0 0 0 4.372 1.82 6.155 6.155 0 0 0 4.372-1.82zM34.51 71.4a6.24 6.24 0 0 0-1.338 6.77 6.205 6.205 0 0 0 2.277 2.786 6.16 6.16 0 0 0 6.867 0 6.205 6.205 0 0 0 2.277-2.787 6.24 6.24 0 0 0-1.338-6.769 6.181 6.181 0 0 0-4.372-1.82 6.155 6.155 0 0 0-4.373 1.82z" fill="#4B82BC"/></svg>