<svg width="88" height="90" fill="none" xmlns="http://www.w3.org/2000/svg"><path d="m86.55 59.743-4.704-1.176a20.363 20.363 0 0 0-1.56-3.75l2.497-4.16a1.501 1.501 0 0 0-.225-1.834l-4.682-4.688a1.5 1.5 0 0 0-1.833-.225l-4.16 2.496c-.54-.289-1.096-.556-1.661-.8a20.498 20.498 0 0 0-2.1-.758l-1.177-4.705a1.5 1.5 0 0 0-1.454-1.137h-6.618a1.5 1.5 0 0 0-1.455 1.137l-1.176 4.705c-1.3.393-2.556.915-3.75 1.558l-4.16-2.496a1.5 1.5 0 0 0-1.834.225l-4.688 4.682a1.5 1.5 0 0 0-.225 1.834l2.496 4.16a20.31 20.31 0 0 0-1.559 3.75l-4.704 1.176a1.5 1.5 0 0 0-1.137 1.455v6.622c0 .689.469 1.289 1.137 1.455l4.705 1.176a20.348 20.348 0 0 0 1.558 3.751l-2.496 4.16a1.5 1.5 0 0 0 .225 1.834l4.682 4.682a1.5 1.5 0 0 0 1.833.225l4.16-2.497a20.386 20.386 0 0 0 3.75 1.559l1.177 4.704a1.502 1.502 0 0 0 1.455 1.138h6.622a1.5 1.5 0 0 0 1.455-1.138l1.176-4.704a20.383 20.383 0 0 0 3.75-1.559l4.16 2.497c.591.354 1.347.261 1.834-.225l4.682-4.683a1.5 1.5 0 0 0 .225-1.833l-2.496-4.16a20.383 20.383 0 0 0 1.559-3.75l4.704-1.177a1.499 1.499 0 0 0 1.137-1.455v-6.616a1.499 1.499 0 0 0-1.125-1.455zm-1.863 6.905-4.415 1.105c-.537.133-.956.55-1.092 1.086a17.374 17.374 0 0 1-1.918 4.623 1.503 1.503 0 0 0 0 1.54l2.344 3.9-3.02 3.032-3.9-2.343a1.5 1.5 0 0 0-1.54 0 17.385 17.385 0 0 1-4.623 1.917 1.5 1.5 0 0 0-1.087 1.092l-1.113 4.412h-4.279l-1.103-4.415a1.501 1.501 0 0 0-1.087-1.092 17.39 17.39 0 0 1-4.623-1.918 1.502 1.502 0 0 0-1.54 0l-3.9 2.344-3.032-3.02 2.343-3.9a1.499 1.499 0 0 0 0-1.54 17.392 17.392 0 0 1-1.917-4.623 1.5 1.5 0 0 0-1.092-1.086l-4.412-1.114V62.37l4.415-1.104a1.5 1.5 0 0 0 1.092-1.087 17.374 17.374 0 0 1 1.917-4.623 1.5 1.5 0 0 0 0-1.54l-2.343-3.9 3.02-3.032 3.9 2.343a1.499 1.499 0 0 0 1.54 0 17.388 17.388 0 0 1 4.623-1.917 1.501 1.501 0 0 0 1.087-1.092l1.112-4.412h4.279l1.105 4.415a1.5 1.5 0 0 0 1.085 1.092 17.309 17.309 0 0 1 4.622 1.916 1.503 1.503 0 0 0 1.542 0l3.9-2.343 3.032 3.021-2.344 3.9a1.502 1.502 0 0 0 0 1.54 17.39 17.39 0 0 1 1.918 4.623 1.5 1.5 0 0 0 1.092 1.087l4.412 1.113v4.278z" fill="#1D4283"/><path d="M62.184 52.508c-6.628 0-12.002 5.373-12.002 12.001 0 6.629 5.373 12.002 12.002 12.002 6.628 0 12.002-5.373 12.002-12.002-.008-6.624-5.377-11.994-12.002-12.001zm0 21.003a9.001 9.001 0 1 1 9.001-9.002 9.01 9.01 0 0 1-9 9.002zM69.685 18.003h3v24.003h-3V18.003z" fill="#1D4283"/><path d="M6.677 76.51v6.001a1.5 1.5 0 0 0 1.5 1.5H39.68v-3H9.677v-4.5H27.68c.232.001.461-.05.67-.151l6-3a1.5 1.5 0 0 0 0-2.686l-6-3a1.503 1.503 0 0 0-.67-.165H9.677V16.502h57.008c3.314 0 6-2.687 6-6V7.5a1.5 1.5 0 0 0-1.5-1.5h-4.5v3h3v1.5a3 3 0 0 1-6 0v-4.5a3 3 0 0 1 3-3h6a3 3 0 0 1 3 3v34.504h3.001V6.001C78.686 2.687 76 0 72.686 0H6.675a6 6 0 0 0-6 6v4.501a6 6 0 0 0 6 6.001V67.51h-1.5a4.5 4.5 0 0 0 0 9.001h1.5zm-3-66.009v-4.5a3 3 0 0 1 3-3h54.84a5.937 5.937 0 0 0-.833 3v4.5a5.937 5.937 0 0 0 .834 3H6.676a3 3 0 0 1-3-3zM30.324 72.01l-3 1.5h-1.146v-3h1.146l3 1.5zm-26.649 0a1.5 1.5 0 0 1 1.5-1.5H23.18v3H5.177a1.5 1.5 0 0 1-1.5-1.5z" fill="#1D4283"/><path d="M.676 22.503h3v30.004h-3V22.503zM59.184 24.003v-3H39.68a1.5 1.5 0 0 0-1.06.439l-2.742 2.741a16.448 16.448 0 0 0-21.369 1.65 1.5 1.5 0 0 0 0 2.121L25.12 38.562a1.5 1.5 0 0 0 1.06.443h15.002a1.5 1.5 0 0 0 1.5-1.5 16.432 16.432 0 0 0-4.543-11.339l2.164-2.163h18.882zM39.597 36.005H26.8l-9.05-9.05a13.456 13.456 0 0 1 15.98-.622l-4.11 4.11 2.12 2.122 4.285-4.285a13.45 13.45 0 0 1 3.572 7.724zM62.184 21.003h3v3h-3v-3zM17.178 43.506h3v3h-3v-3zM23.179 43.506H38.18v3H23.179v-3zM14.178 49.507H38.18v3H14.178v-3z" fill="#1D4283"/><path d="M47.182 27.004h3v3h-3v-3zM53.183 27.004h12.002v3H53.182v-3zM47.182 33.005h18.002v3H47.183v-3zM14.178 55.508H33.68v3H14.178v-3z" fill="#1D4283"/></svg>