<svg width="38" height="37" fill="none" xmlns="http://www.w3.org/2000/svg"><path fill-rule="evenodd" clip-rule="evenodd" d="M3.065.274h31.88c1.562.007 2.823 1.012 2.823 2.25v9.394c.044 10.154-7.006 19.494-18.318 24.269a1.152 1.152 0 0 1-.888-.002C7.248 31.412.196 22.072.242 11.918V2.524c0-1.238 1.26-2.243 2.823-2.25zM16.733 22.24l13.444-10.05c.492-.368.698-.917.541-1.438-.157-.522-.653-.938-1.302-1.09-.648-.154-1.35-.021-1.843.347l-12.11 9.04-3.184-2.55c-.473-.39-1.176-.55-1.838-.415-.663.135-1.182.542-1.359 1.066-.177.523.017 1.081.506 1.46l4.494 3.594c.723.582 1.902.598 2.65.036z" fill="#1D4283"/></svg>