<svg width="90" height="86" fill="none" xmlns="http://www.w3.org/2000/svg"><path d="M46.758 69.367a1.758 1.758 0 1 1-3.516 0 1.758 1.758 0 0 1 3.516 0zM84.2 53.547C84.2 47.73 79.467 43 73.651 43s-10.547 4.731-10.547 10.547c0 5.816 4.732 10.547 10.547 10.547 5.816 0 10.547-4.731 10.547-10.547zm-10.548 7.031a7.04 7.04 0 0 1-7.03-7.031 7.04 7.04 0 0 1 7.03-7.031 7.04 7.04 0 0 1 7.032 7.03 7.04 7.04 0 0 1-7.032 7.032z" fill="#1D4283"/><path d="M73.652 64.094c-4.43 0-8.846 1.839-11.855 4.82-3.96-5.205-10.068-8.336-16.797-8.336a21.057 21.057 0 0 0-16.796 8.336c-3.01-2.98-7.426-4.82-11.856-4.82C7.487 64.094 0 71.339 0 79.914v3.516c0 .97.787 1.757 1.758 1.757h86.484c.971 0 1.758-.786 1.758-1.757v-3.516c0-8.576-7.487-15.82-16.348-15.82zM3.516 79.914c0-6.67 5.876-12.305 12.832-12.305 3.806 0 7.58 1.687 9.917 4.367a21.094 21.094 0 0 0-2.359 9.696H3.516v-1.758zM45 64.094c9.781 0 17.578 7.936 17.578 17.578H27.422c0-9.77 7.956-17.578 17.578-17.578zm41.484 17.578h-20.39c0-3.385-.814-6.711-2.359-9.696 2.337-2.68 6.111-4.367 9.917-4.367 6.956 0 12.832 5.635 12.832 12.305v1.758z" fill="#1D4283"/><path d="M26.895 53.547C26.895 47.73 22.163 43 16.348 43 10.532 43 5.8 47.731 5.8 53.547c0 5.816 4.73 10.547 10.547 10.547 5.816 0 10.547-4.731 10.547-10.547zm-10.547 7.031a7.04 7.04 0 0 1-7.032-7.031 7.04 7.04 0 0 1 7.032-7.031 7.04 7.04 0 0 1 7.03 7.03 7.04 7.04 0 0 1-7.03 7.032zM59.063 46.516c0-7.755-6.309-14.063-14.063-14.063-7.754 0-14.063 6.308-14.063 14.063 0 7.754 6.309 14.062 14.063 14.062 7.754 0 14.063-6.308 14.063-14.062zM45 57.063c-5.816 0-10.547-4.732-10.547-10.547 0-5.816 4.731-10.547 10.547-10.547 5.816 0 10.547 4.73 10.547 10.547 0 5.816-4.731 10.547-10.547 10.547zM58.911 11.036a1.756 1.756 0 0 0-1.419-1.196l-7.582-1.1-3.395-6.941a1.756 1.756 0 0 0-3.157-.001l-3.395 6.941-7.581 1.1a1.758 1.758 0 0 0-.975 2.999l5.49 5.35-1.295 7.557a1.757 1.757 0 0 0 2.55 1.853l6.785-3.567 6.787 3.567a1.757 1.757 0 0 0 2.55-1.853l-1.297-7.556 5.49-5.351c.479-.467.651-1.165.444-1.802zm-9.05 5.28a1.757 1.757 0 0 0-.506 1.556l.85 4.957-4.45-2.34a1.759 1.759 0 0 0-1.637 0l-4.45 2.34.85-4.957a1.76 1.76 0 0 0-.505-1.556l-3.6-3.51 4.974-.721a1.756 1.756 0 0 0 1.327-.968l2.223-4.546 2.223 4.546c.255.522.751.884 1.326.967l4.976.723-3.602 3.51zM85.185 24.21a1.757 1.757 0 0 0-1.42-1.195l-5.136-.747-2.297-4.655a1.756 1.756 0 0 0-3.152 0l-2.298 4.655-5.138.747a1.757 1.757 0 0 0-.974 2.997l3.717 3.625-.878 5.116a1.758 1.758 0 0 0 2.55 1.853l4.597-2.415 4.595 2.415a1.758 1.758 0 0 0 2.55-1.853l-.877-5.116 3.717-3.625c.48-.466.65-1.165.444-1.801zm-7.277 3.555a1.754 1.754 0 0 0-.505 1.556l.431 2.515-2.26-1.187a1.757 1.757 0 0 0-1.635 0l-2.262 1.188.432-2.516a1.758 1.758 0 0 0-.506-1.556l-1.829-1.784 2.528-.366a1.759 1.759 0 0 0 1.323-.961l1.13-2.29 1.13 2.289c.256.519.751.879 1.324.962l2.528.367-1.829 1.783zM25.42 24.21A1.757 1.757 0 0 0 24 23.016l-5.137-.747-2.296-4.655a1.756 1.756 0 0 0-3.153 0l-2.298 4.655-5.137.747a1.757 1.757 0 0 0-.975 2.997l3.717 3.625-.877 5.116a1.757 1.757 0 0 0 2.55 1.853l4.596-2.415 4.595 2.415a1.757 1.757 0 0 0 2.55-1.853l-.877-5.116 3.717-3.625c.48-.466.651-1.165.445-1.801zm-7.278 3.555a1.758 1.758 0 0 0-.505 1.556l.431 2.515-2.26-1.187a1.756 1.756 0 0 0-1.635 0l-2.262 1.188.431-2.516a1.756 1.756 0 0 0-.505-1.556l-1.83-1.784 2.53-.366a1.759 1.759 0 0 0 1.322-.961l1.13-2.29 1.13 2.289c.256.519.751.879 1.324.962l2.527.367-1.828 1.783zM52.703 69.91a1.757 1.757 0 1 0-1.93 2.939 10.609 10.609 0 0 1 3.756 4.304 1.758 1.758 0 0 0 3.174-1.51 14.118 14.118 0 0 0-5-5.732z" fill="#1D4283"/></svg>