<svg width="120" height="70" viewBox="0 0 120 70" fill="none" xmlns="http://www.w3.org/2000/svg">
<path d="M23.454 0.437325C21.5476 1.06408 20.5291 1.71694 19.0406 3.25771C16.638 5.76472 15.9329 7.82778 15.9329 12.2934C15.9329 16.1584 16.5075 17.1768 18.6489 17.1768C19.3017 17.1768 19.824 16.9418 20.4247 16.4195L21.2603 15.6883L21.3909 12.3456L21.5476 9.00294L36.4852 21.773C44.6852 28.7979 51.4228 34.5953 51.4228 34.6737C51.4228 34.752 44.6852 40.5495 36.4852 47.5743L21.5476 60.3444L21.3909 57.0017L21.2603 53.6591L20.4247 52.9279C19.824 52.4056 19.3017 52.1705 18.6489 52.1705C16.5075 52.1705 15.9329 53.189 15.9329 57.054C15.9329 60.24 16.3769 62.3291 17.3954 64.0527C18.3877 65.7502 20.8947 67.9699 22.6444 68.675L24.1591 69.2757H112.166L113.863 68.4661C116.344 67.2648 117.859 65.8285 119.008 63.4521L120 61.4674V7.90613L119.164 6.15644C118.015 3.72778 116.553 2.21312 114.176 1.03796L112.192 0.0717189L68.5802 0.0194895C27.0317 -0.0327399 24.8642 -0.00662517 23.454 0.437325ZM110.285 5.34689C110.494 5.68638 69.5986 40.5234 68.7107 40.7845C68.084 40.9673 67.6662 40.9151 67.0394 40.6017C66.5693 40.3928 61.5031 36.1622 55.7579 31.2265C49.9865 26.2909 40.9247 18.5348 35.5712 13.9386C30.2177 9.36855 25.8565 5.52969 25.8565 5.39912C25.8565 5.11185 110.129 5.08574 110.285 5.34689ZM114.908 34.6737C114.908 48.3839 114.803 59.7438 114.699 59.9266C114.49 60.24 85.0063 35.196 85.0063 34.6737C85.0063 34.1775 114.49 9.1074 114.699 9.42078C114.803 9.60358 114.908 20.9635 114.908 34.6737ZM59.6751 41.6463C64.5063 45.8769 65.2636 46.2947 68.0318 46.2947C70.9044 46.2947 71.7139 45.8508 76.2579 41.8813C78.3471 40.0533 80.2012 38.4864 80.3579 38.4081C80.7235 38.2514 110.494 63.6871 110.285 63.9744C110.129 64.2616 25.8565 64.2355 25.8565 63.9483C25.8565 63.6871 55.34 38.3297 55.6534 38.3297C55.784 38.3297 57.5859 39.8183 59.6751 41.6463Z" fill="#1D4283"/>
<path d="M9.24758 25.7686C7.41956 26.8915 7.60236 29.5813 9.56096 30.3909C10.3444 30.7304 11.8852 30.7826 19.1189 30.7043L27.7368 30.6259L28.4941 29.7641C29.5126 28.6151 29.5126 27.4138 28.4941 26.2648L27.7368 25.403L18.8839 25.3246C10.5272 25.2724 10.0049 25.2985 9.24758 25.7686Z" fill="#1D4283"/>
<path d="M1.83101 38.7737C1.62209 38.852 1.12591 39.2176 0.734194 39.5832C-0.649885 40.8629 0.0290975 43.5004 1.88324 43.9444C2.19662 44.0227 8.15077 44.0489 15.0973 44.0227L27.7368 43.9444L28.4941 43.0826C29.5126 41.9336 29.5126 40.7323 28.4941 39.5832L27.7368 38.7215L14.9667 38.6692C7.96796 38.6431 2.03993 38.6953 1.83101 38.7737Z" fill="#1D4283"/>
</svg>
