<svg width="81" height="79" fill="none" xmlns="http://www.w3.org/2000/svg"><path d="M60.156 12.781a8.063 8.063 0 1 0 8.063 8.063 8.071 8.071 0 0 0-8.063-8.063zm0 13.438a5.376 5.376 0 1 1 5.375-5.375 5.381 5.381 0 0 1-5.375 5.375zM39.837 42.18l1.574-1.574-1.9-1.9-1.574 1.574a19.923 19.923 0 0 0-3.905 5.516l2.425 1.158a17.238 17.238 0 0 1 3.38-4.773zM32.288 51.558l2.66.384c.122-.844.305-1.678.549-2.495l-2.575-.769a20.111 20.111 0 0 0-.634 2.88z" fill="#1D4283"/><path d="M78.969.687h-4.54a25.9 25.9 0 0 0-18.434 7.636 54.512 54.512 0 0 0-6.923 8.49h-4.715a15.008 15.008 0 0 0-10.682 4.424 1.344 1.344 0 0 0 0 1.9l5.375 5.376c.252.252.594.393.95.393h3.07c-.072.206-.144.412-.213.618L39.05 33.33A143.135 143.135 0 0 0 22.7 52.904a10.744 10.744 0 0 0-16.273 3.017 6.723 6.723 0 0 0-6.404 2.135l2.015 1.778a4.035 4.035 0 0 1 3.36-1.35 10.733 10.733 0 0 0-.337 2.672H7.75a8.06 8.06 0 0 1 13.428-6.014c-.431.647-.858 1.297-1.28 1.95l-.239.373a10.917 10.917 0 0 1-9.221 5.035v2.688a13.595 13.595 0 0 0 11.481-6.269l.24-.373a140.412 140.412 0 0 1 17.847-22.358L44.818 41l-3.08 3.081a14.646 14.646 0 0 0 0 20.713l1.9-1.9a11.87 11.87 0 0 1-3.35-6.548 5.375 5.375 0 0 1 7.676 3.79c-.596.14-1.181.327-1.75.556l1.009 2.491a9.412 9.412 0 0 1 12.933 8.723h2.688A12.108 12.108 0 0 0 50.75 59.812l-.114.003a8.064 8.064 0 0 0-10.46-6.321 11.867 11.867 0 0 1 3.462-7.513l7.838-7.838c.206-.07.412-.14.618-.213V41c0 .356.141.698.393.95l5.375 5.375a1.344 1.344 0 0 0 1.9 0 15.007 15.007 0 0 0 4.425-10.682v-4.715a54.53 54.53 0 0 0 8.49-6.923A25.9 25.9 0 0 0 80.312 6.57V2.031A1.344 1.344 0 0 0 78.97.687zm-1.344 2.688V6.57a23.507 23.507 0 0 1-.814 6.152 8.796 8.796 0 0 1-5.257-2.537l-.739-.739a8.797 8.797 0 0 1-2.537-5.257 23.507 23.507 0 0 1 6.151-.814h3.196zM40.556 26.219l-3.98-3.981a12.327 12.327 0 0 1 7.781-2.738h3.047a54.79 54.79 0 0 0-3.313 6.719h-3.535zM41.9 34.28l2.131-2.13 4.819 4.818-2.131 2.13-4.819-4.818zm19.6 2.362a12.326 12.326 0 0 1-2.738 7.781l-3.98-3.98v-3.535a54.784 54.784 0 0 0 6.718-3.313v3.047zm9.276-13.538A52.148 52.148 0 0 1 51.11 35.428l-5.537-5.537a52.145 52.145 0 0 1 12.323-19.667 23.334 23.334 0 0 1 7.79-5.165 11.466 11.466 0 0 0 3.23 6.288l.738.738a11.466 11.466 0 0 0 6.287 3.23 23.336 23.336 0 0 1-5.164 7.79zM9.125 71.035a8.062 8.062 0 0 0-7.558 1.14l1.614 2.15a5.376 5.376 0 0 1 8.6 4.3h2.688a8.05 8.05 0 0 0-2.998-6.267 6.722 6.722 0 0 1 9.044-2.241l1.345-2.327a9.413 9.413 0 0 0-12.735 3.245z" fill="#1D4283"/><path d="M34.625 65.188a9.39 9.39 0 0 0-6.271 2.395l1.792 2.002a6.722 6.722 0 0 1 10.816 7.249l2.534.895a9.411 9.411 0 0 0-8.871-12.541z" fill="#1D4283"/></svg>