<svg width="104" height="104" fill="none" xmlns="http://www.w3.org/2000/svg"><path d="M74.75 61.738a1.625 1.625 0 0 0 1.625 1.625 1.625 1.625 0 1 0 3.25 0v-.44A3.247 3.247 0 0 0 78 56.863h1.625a1.625 1.625 0 0 0 0-3.25 1.625 1.625 0 0 0-3.25 0v.44A3.247 3.247 0 0 0 78 60.113h-1.625a1.625 1.625 0 0 0-1.625 1.625z" fill="#1D4283"/><path d="m92.733 67.16-7.543.007-3.912-.218a12.929 12.929 0 0 0 3.48-6.136c.582-2.352.515-4.83-.193-7.143-.708-2.313-2.027-4.366-3.804-5.918a11.851 11.851 0 0 0-6.228-2.845v-1.7c0-.423-.16-.829-.444-1.128a1.48 1.48 0 0 0-1.072-.468H71.5v-3.193h1.517a1.48 1.48 0 0 0 1.072-.468c.285-.299.444-.705.444-1.128v-4.063a5.619 5.619 0 0 0 3.906-1.183 6.166 6.166 0 0 0 2.221-3.583 6.419 6.419 0 0 0-.545-4.24c-.66-1.298-1.741-2.303-3.047-2.832L41.711 6.606a1.445 1.445 0 0 0-.892-.063l-25.612 6.343-10.44.006a1.48 1.48 0 0 0-1.073.467 1.64 1.64 0 0 0-.444 1.13v20.754c0 .423.16.83.444 1.128.285.3.67.468 1.073.468l7.543-.006 13.69.763v5.612c0 .423.16.829.444 1.128.285.3.67.468 1.073.468h1.516v3.193h-1.516a1.48 1.48 0 0 0-1.073.468A1.64 1.64 0 0 0 26 49.593v6.386c0 .424.16.83.444 1.13.285.299.67.467 1.073.467h1.516v3.193h-1.516a1.48 1.48 0 0 0-1.073.468A1.64 1.64 0 0 0 26 62.364v4.79h-1.517a1.48 1.48 0 0 0-1.072.468 1.64 1.64 0 0 0-.444 1.128v2.49a5.619 5.619 0 0 0-3.907 1.183 6.166 6.166 0 0 0-2.22 3.583 6.418 6.418 0 0 0 .545 4.24c.66 1.298 1.74 2.303 3.046 2.832L55.79 97.394c.284.115.595.137.892.063l25.612-6.343 10.44-.006a1.48 1.48 0 0 0 1.073-.467c.284-.3.444-.706.444-1.13V68.758c0-.423-.16-.83-.444-1.129a1.48 1.48 0 0 0-1.073-.467zM73.017 47.998c2.158-.001 4.246.805 5.891 2.275 1.646 1.47 2.741 3.507 3.092 5.748.35 2.242-.067 4.541-1.179 6.489-1.11 1.947-2.843 3.415-4.888 4.142l-6.727-.375c-1.884-.914-3.414-2.48-4.337-4.435a10.035 10.035 0 0 1-.74-6.317c.444-2.133 1.568-4.042 3.184-5.411a8.821 8.821 0 0 1 5.704-2.116zm-22.75 6.386V51.19h12.249a13.08 13.08 0 0 0-1.249 3.193h-11zm11 6.386H53.3v-3.193h7.583c0 1.077.13 2.15.384 3.193zm-11-19.158v-3.193h18.2v3.193h-18.2zm0-11.175v4.79h-7.24c.124-.286.223-.582.295-.886a5.452 5.452 0 0 0-.56-3.943c-.675-1.184-1.77-2.038-3.042-2.375l-3.786-.996 6.849-2.884 17.104 4.697h-8.104a1.48 1.48 0 0 0-1.072.468 1.64 1.64 0 0 0-.444 1.129zm-3.034 7.982v3.193h-18.2v-3.193h18.2zm-15.166 6.386h18.2v3.193h-18.2v-3.193zm18.2 12.772v3.193h-18.2v-3.193h18.2zm3.794 12.772a5.422 5.422 0 0 0 .643 3.193h-7.47v-3.193h6.827zm6.591 6.386.913.24-6.848 2.885-11.376-3.124 17.311-.001zm-10.385-9.58v-3.192h12.238c.393.718.852 1.393 1.37 2.017l-4.649-.259a4.733 4.733 0 0 0-1.966.323 4.928 4.928 0 0 0-1.686 1.111h-5.307zM53.3 47.998v-3.193h18.2v.103c-2.411.32-4.675 1.396-6.496 3.09H53.3zm18.2-12.772H53.3v-3.193h18.2v3.193zM12.35 33.64l-6.067.005V16.083l9.1-.004c.117 0 .234-.014.347-.043l25.328-6.273L75.98 23.901c.664.27 1.206.798 1.513 1.475.307.677.357 1.452.139 2.167a2.91 2.91 0 0 1-1.312 1.675 2.67 2.67 0 0 1-2.047.27L43.068 20.92a1.449 1.449 0 0 0-.946.062L30.91 25.703l-6.057-1.594c-.39-.1-.8-.033-1.142.185-.343.219-.59.57-.687.98a1.67 1.67 0 0 0 .168 1.203c.205.362.538.624.925.73l14.87 3.912a1.92 1.92 0 0 1 1.128.835 2.1 2.1 0 0 1 .304 1.416c-.07.496-.311.946-.679 1.264-.367.318-.834.48-1.309.457 0 0-26.054-1.45-26.081-1.45zm16.683 17.55h18.2v3.193h-18.2V51.19zm0 12.772h18.2v3.193h-18.2v-3.193zM26 70.348h18.2v3.193H31.713L26 71.972v-1.624zm65.217 17.568-9.1.005a1.43 1.43 0 0 0-.347.043l-25.328 6.273L21.52 80.098a2.854 2.854 0 0 1-1.515-1.475 3.083 3.083 0 0 1-.139-2.168 2.91 2.91 0 0 1 1.314-1.676 2.67 2.67 0 0 1 2.048-.269l31.205 8.57c.314.086.645.064.946-.063l11.212-4.72 6.057 1.594c.39.099.8.032 1.143-.186.342-.218.589-.57.686-.979a1.67 1.67 0 0 0-.168-1.204 1.527 1.527 0 0 0-.925-.73l-14.87-3.912a1.92 1.92 0 0 1-1.128-.835 2.102 2.102 0 0 1-.304-1.416c.07-.495.311-.946.679-1.264.367-.318.834-.48 1.309-.456l26 1.448c.026.002 6.146-.002 6.146-.002v17.561z" fill="#1D4283"/></svg>