<svg width="110" height="108" fill="none" xmlns="http://www.w3.org/2000/svg"><path d="M85.035 32.258a2.044 2.044 0 0 0 2.75.923 2.044 2.044 0 0 0 .924-2.75C82.564 17.992 69.352 9.936 55.021 9.936c-19.851 0-36.136 15.018-37.21 33.881-2.213.194-4.34.73-6.274 1.612a42.583 42.583 0 0 1 3.76-15.254c.473-1.032 0-2.256-1.031-2.729-1.032-.472-2.256 0-2.729 1.032a47.176 47.176 0 0 0-4.19 19.507C2.923 51.53.065 56.986.065 63.088c0 10.678 8.68 19.357 19.358 19.357h3.76a2.063 2.063 0 0 0 2.062-2.062v-6.875a2.063 2.063 0 0 0-4.125 0v4.812H19.4c-8.4 0-15.232-6.832-15.232-15.232 0-8.4 6.832-15.233 15.232-15.233h1.72v17.446a2.063 2.063 0 0 0 4.124 0V45.793a2.063 2.063 0 0 0-2.062-2.063h-1.246C23.053 27.166 37.447 14.04 55.02 14.04c12.784.021 24.557 7.154 30.014 18.219z" fill="#1D4283"/><path d="M102.223 47.64C102.008 21.667 80.824.612 54.807.612 41.443.59 28.617 6.283 19.637 16.188a2.065 2.065 0 0 0 .15 2.9 2.026 2.026 0 0 0 2.9-.15 43.39 43.39 0 0 1 32.12-14.245c22.945 0 41.765 17.94 43.226 40.52a19.135 19.135 0 0 0-5.78-1.397 36.613 36.613 0 0 0-.708-5.306c-.236-1.117-1.332-1.805-2.45-1.569a2.033 2.033 0 0 0-1.568 2.45c.301 1.44.495 2.9.602 4.383h-1.246a2.063 2.063 0 0 0-2.063 2.062v34.59c0 1.138.924 2.062 2.063 2.062h3.76c2.384 0 4.705-.45 6.875-1.267v5.092a12.27 12.27 0 0 1-3.631 8.744 12.27 12.27 0 0 1-8.744 3.63h-7.24c-.087 0-.151.022-.237.022v-3.352a2.063 2.063 0 0 0-2.063-2.062H65.4a5.474 5.474 0 0 0-5.48 5.478v3.202a5.474 5.474 0 0 0 5.48 5.478h10.204a2.063 2.063 0 0 0 2.063-2.062v-2.621c.086 0 .15.021.236.021h7.24c4.405 0 8.53-1.719 11.645-4.834 3.115-3.115 4.834-7.24 4.834-11.644V79.05a17.614 17.614 0 0 0 2.428-1.955 2.062 2.062 0 0 0 .064-2.9 2.062 2.062 0 0 0-2.9-.065c-.838.816-1.783 1.504-2.75 2.084 0 0-.022 0-.022.021a15.132 15.132 0 0 1-7.777 2.149h-1.719v-30.53h1.72c8.4 0 15.232 6.833 15.232 15.233a15.16 15.16 0 0 1-1.075 5.629 2.034 2.034 0 0 0 1.139 2.664c1.053.408 2.256-.086 2.664-1.139A19.355 19.355 0 0 0 110 63.088c0-6.316-3.072-11.924-7.777-15.447zm-28.639 55.645H65.42a1.385 1.385 0 0 1-1.375-1.375v-3.201c0-.752.623-1.375 1.375-1.375h8.164v5.951z" fill="#1D4283"/></svg>