<svg width="35" height="30" viewBox="0 0 50 38" fill="none" xmlns="http://www.w3.org/2000/svg"><path d="M45.399.276H4.6A4.607 4.607 0 0 0 0 4.88a4.607 4.607 0 0 0 4.601 4.602H45.4A4.607 4.607 0 0 0 50 4.88 4.607 4.607 0 0 0 45.399.276zM45.399 14.397H4.6A4.607 4.607 0 0 0 0 19.002a4.606 4.606 0 0 0 4.601 4.6H45.4a4.607 4.607 0 0 0 4.601-4.6 4.607 4.607 0 0 0-4.601-4.605zM45.399 28.518H4.6A4.607 4.607 0 0 0 0 33.123a4.606 4.606 0 0 0 4.601 4.6H45.4a4.607 4.607 0 0 0 4.601-4.6 4.607 4.607 0 0 0-4.601-4.605z" fill="#1D4283"/></svg>