<svg width="91" height="74" fill="none" xmlns="http://www.w3.org/2000/svg"><path d="M0 34.84c.194-.442.103-.922.137-1.378.174-2.295.628-4.532 1.232-6.748.673-2.471 1.634-4.827 2.815-7.092a36.02 36.02 0 0 1 4.066-6.144 36.663 36.663 0 0 1 8.53-7.633 37.001 37.001 0 0 1 7.355-3.643c2.512-.921 5.097-1.51 7.73-1.898.971-.144 1.963-.174 2.948-.233.857-.051 1.712-.093 2.567-.058 1.922.081 3.835.229 5.738.57a37.316 37.316 0 0 1 7.32 2.105 35.971 35.971 0 0 1 8.936 5.21c1.379 1.093 2.693 2.259 3.893 3.542a39.799 39.799 0 0 1 3.434 4.201c.165.233.131.348-.1.482a634.494 634.494 0 0 0-5.507 3.192c-.3.176-.407-.026-.529-.193a27.104 27.104 0 0 0-3.303-3.802 31.056 31.056 0 0 0-6.273-4.627c-2.32-1.291-4.775-2.228-7.345-2.866a26.8 26.8 0 0 0-4.516-.722c-1-.073-1.996-.187-2.997-.145-3.851.162-7.58.881-11.139 2.423-2.795 1.21-5.354 2.789-7.655 4.772a29.844 29.844 0 0 0-6.571 7.99 29.61 29.61 0 0 0-3.432 9.784c-.32 1.948-.487 3.923-.377 5.9.2 3.654.95 7.183 2.4 10.563 1.049 2.441 2.382 4.71 4.037 6.775 2.398 2.995 5.255 5.485 8.609 7.383a29.642 29.642 0 0 0 7.779 3.072c1.43.339 2.878.577 4.346.687.971.072 1.94.188 2.913.146 2.975-.123 5.898-.538 8.744-1.47a30.275 30.275 0 0 0 7.879-3.93c1.04-.725 2.008-1.537 2.958-2.378 1.88-1.664 3.459-3.581 4.841-5.663a28.625 28.625 0 0 0 3.073-6.102 30.788 30.788 0 0 0 1.35-5.014c.167-.926.235-1.862.354-2.792.1-.778.063-1.56.108-2.335.053-.963-.05-1.939-.136-2.905a28.726 28.726 0 0 0-.867-4.8 29.25 29.25 0 0 0-1.364-3.96c-.117-.276-.081-.409.187-.561a504.747 504.747 0 0 0 5.431-3.142c.256-.148.34-.105.46.159a35.673 35.673 0 0 1 2.546 7.923c.397 2.007.604 4.03.682 6.079a40.046 40.046 0 0 1-.101 4.33 33.707 33.707 0 0 1-1.127 6.405c-.727 2.671-1.72 5.236-3.029 7.673-1.21 2.25-2.614 4.368-4.28 6.314-.874 1.022-1.76 2.03-2.737 2.952-1.902 1.793-3.95 3.394-6.185 4.762a36.346 36.346 0 0 1-14.71 5.132c-.614.073-1.225.184-1.838.278h-4.086c-.091-.108-.216-.078-.33-.078a23.06 23.06 0 0 1-3.515-.294c-2.457-.392-4.864-.969-7.21-1.822a36.809 36.809 0 0 1-7.355-3.644 36.623 36.623 0 0 1-8.53-7.635 35.938 35.938 0 0 1-4.068-6.142c-1.181-2.266-2.142-4.623-2.815-7.093C.767 44.486.313 42.25.138 39.953c-.033-.456.058-.935-.136-1.379C0 37.33 0 36.085 0 34.841z" fill="#1D4283"/><path d="M91 10.758c-1.037.59-2.077 1.172-3.109 1.767-2.106 1.214-4.207 2.434-6.31 3.652-.383.221-.805.394-1.14.671-.75.62-1.529.585-2.388.285-.72-.25-1.472-.405-2.201-.63-.288-.09-.506-.013-.742.125-3.29 1.902-6.583 3.799-9.873 5.7-3.823 2.214-7.643 4.437-11.47 6.649-2.474 1.43-4.954 2.842-7.43 4.27-2.55 1.474-5.101 2.947-7.639 4.441-.942.556-1.888.44-2.444-.302-.571-.76-.418-1.857.393-2.36 1.165-.718 2.36-1.385 3.547-2.07 2.856-1.652 5.714-3.299 8.57-4.952 2.27-1.313 4.53-2.639 6.803-3.95 2.767-1.596 5.545-3.177 8.313-4.776 3.214-1.857 6.422-3.728 9.64-5.581.247-.143.348-.33.413-.58.288-1.078.593-2.152.864-3.236.056-.22.17-.322.342-.42 2.413-1.388 4.825-2.78 7.238-4.17 1.362-.785 2.72-1.572 4.153-2.398-.162.98-.303 1.884-.46 2.785-.184 1.04-.38 2.077-.568 3.115-.047.25-.022.434.295.516 1.736.442 3.47.905 5.203 1.36v.09z" fill="#1D4283"/><path d="M14.414 37.033c-.029-4.09.867-7.608 2.635-10.898 1.448-2.695 3.386-4.986 5.785-6.894 2.736-2.176 5.812-3.61 9.222-4.34 1.88-.403 3.792-.586 5.71-.466 4.87.307 9.235 1.958 13.03 5.05 1.226 1 2.324 2.131 3.303 3.375.211.267.203.395-.122.58a440.183 440.183 0 0 0-6.124 3.531c-.256.15-.37.142-.58-.082-2.336-2.496-5.202-4.04-8.577-4.53-2.75-.402-5.433-.028-7.973 1.154-3.979 1.852-6.61 4.889-7.939 9.06-.536 1.678-.69 3.415-.563 5.157.222 3.05 1.29 5.788 3.257 8.146 2.474 2.972 5.627 4.747 9.478 5.206 3.895.463 7.426-.529 10.524-2.92 3.007-2.323 4.812-5.394 5.449-9.15.358-2.112.229-4.19-.363-6.242-.06-.207-.07-.312.165-.444a679.038 679.038 0 0 0 6.306-3.656c.238-.14.328-.122.433.158a21.36 21.36 0 0 1 1.212 4.772c.18 1.317.29 2.638.224 3.965-.132 2.737-.692 5.385-1.78 7.912a22.66 22.66 0 0 1-3.604 5.794c-1.387 1.625-3.002 2.99-4.794 4.154-2.326 1.51-4.845 2.559-7.555 3.108-1.671.34-3.371.525-5.086.458-2.112-.08-4.18-.409-6.198-1.05a21.687 21.687 0 0 1-6.704-3.487 22.388 22.388 0 0 1-5.892-6.746c-1.42-2.492-2.293-5.154-2.707-7.976-.146-1.007-.22-2.022-.172-2.699z" fill="#1D4283"/><path d="M36.41 29.318c1.635-.054 3.01.408 4.268 1.25.451.3.433.314-.017.573-1.554.896-3.133 1.759-4.641 2.729-1.478.95-1.778 2.773-.805 4.226.908 1.354 2.692 1.695 4.152.823 1.34-.801 2.703-1.562 4.048-2.356.35-.208.418-.112.4.249-.083 1.854-.733 3.463-2.022 4.813-1.504 1.57-3.365 2.324-5.51 2.256-3.673-.117-6.584-2.933-6.981-6.363-.163-1.42.014-2.771.609-4.043.807-1.719 2.106-2.968 3.889-3.67.869-.342 1.77-.559 2.61-.487z" fill="#1D4283"/></svg>