<svg width="120" height="120" viewBox="0 0 120 120" fill="none" xmlns="http://www.w3.org/2000/svg">
<path d="M67.0368 0.387124C66.7321 0.598071 66.3571 1.13716 66.1696 1.55905C65.8883 2.23877 65.8883 2.47316 66.1696 3.15288C66.6618 4.32481 67.3415 4.69982 69.0291 4.69982C69.826 4.69982 71.5605 4.81702 72.8965 4.93421C95.1631 7.20775 112.789 24.8336 115.062 47.1002C115.18 48.4362 115.297 50.1707 115.297 50.9676C115.297 52.6552 115.672 53.3349 116.844 53.8271C117.524 54.1083 117.758 54.1083 118.438 53.8271C120.055 53.1474 120.266 52.0458 119.75 46.8658C118.18 30.951 109.601 16.9348 96.0303 8.12186C93.1943 6.27021 87.8268 3.7154 84.4282 2.61379C78.1233 0.551194 68.5603 -0.667612 67.0368 0.387124Z" fill="#1D4283"/>
<path d="M67.0837 14.5206C65.7946 15.3175 65.6071 17.0988 66.7321 18.0832C67.3415 18.6223 67.6696 18.7161 69.9666 18.8567C87.0065 19.9349 100.062 32.9902 101.14 50.03C101.281 52.3504 101.374 52.6552 101.913 53.288C103.015 54.5068 105.031 54.0849 105.687 52.5145C106.32 50.9676 105.406 44.3813 103.906 39.7405C100.46 29.1463 91.4832 20.0052 80.9359 16.3488C77.9592 15.3175 75.0059 14.6378 72.123 14.3331C68.8885 13.9815 67.9509 14.0049 67.0837 14.5206Z" fill="#1D4283"/>
<path d="M15.5422 17.3098C14.886 17.5442 13.925 18.0598 13.4093 18.4817C11.3936 20.0755 6.04962 25.8649 4.69019 27.9275C-0.0209678 35.0528 -1.23977 43.5844 1.29159 51.6239C2.44008 55.2568 7.1278 63.9291 11.6514 70.7966C16.8079 78.6251 21.8707 84.766 29.0194 91.9148C36.051 98.9229 41.2778 103.236 48.8485 108.298C54.3565 111.955 61.5991 116.103 65.2789 117.65C72.498 120.721 80.2327 120.721 87.4752 117.674C89.6785 116.736 91.8583 115.4 94.0849 113.619C96.6632 111.533 101.749 106.283 102.288 105.134C102.921 103.798 103.015 101.384 102.523 99.8136C102.148 98.6651 101.421 97.8682 91.8817 88.3052C80.4671 76.8438 80.3968 76.7969 77.5842 76.7969C74.959 76.7969 74.3028 77.2422 69.0056 82.4925C66.4274 85.0473 63.9429 87.3443 63.4976 87.5786C62.9819 87.8365 62.185 88.0005 61.3412 88.0005C60.0755 87.9771 59.8412 87.8833 57.5911 86.3833C56.2551 85.516 54.0753 83.9457 52.7158 82.8909C50.5126 81.2033 50.1376 80.9924 49.2469 80.9924C48.4031 80.9924 48.1219 81.1096 47.6531 81.6487C46.9968 82.4222 46.9031 83.7816 47.4422 84.5316C48.1219 85.516 55.2472 90.6725 57.5442 91.8445C58.9974 92.5945 61.2944 92.9226 62.9116 92.6179C65.7008 92.1023 66.4977 91.5398 71.6776 86.3833C74.6075 83.5003 76.7404 81.5549 77.1154 81.4612C77.5138 81.3674 78.0061 81.4377 78.4045 81.6487C78.7795 81.8596 83.3735 86.313 88.6472 91.5866C98.046 101.032 98.1867 101.173 98.1867 102.111C98.1867 103.025 98.046 103.189 94.3662 106.798C90.3816 110.736 88.9753 111.791 86.0689 113.15C82.9047 114.603 80.2562 115.166 76.506 115.166C71.3495 115.189 68.8884 114.439 62.56 111.041C45.3327 101.736 31.8555 90.2038 20.2065 74.7812C14.3469 67.023 7.50282 55.4444 5.86212 50.5223C4.17454 45.4126 4.33861 39.7405 6.37776 34.7012C7.7372 31.3729 8.86225 29.8026 12.8468 25.7242C14.9797 23.5679 16.9486 21.7397 17.2533 21.6694C17.558 21.5756 18.0971 21.6459 18.4486 21.7866C18.8236 21.9506 23.4645 26.4274 28.7616 31.748C38.1605 41.1468 38.4183 41.4281 38.4183 42.3188C38.4183 43.186 38.2074 43.4438 33.6368 48.0378C29.4179 52.2801 28.7382 53.0771 28.0819 54.4834C27.4959 55.7491 27.285 56.5225 27.2147 57.9054C27.0506 60.6008 27.5194 61.8197 30.0273 65.5464C32.8868 69.8122 33.4024 70.3279 34.6447 70.3279C35.4416 70.3279 35.7932 70.1872 36.3323 69.6481C37.5042 68.4762 37.3167 67.8199 34.8791 64.351C32.3711 60.8118 31.8789 59.8039 31.8555 58.4211C31.8555 56.6163 32.3711 55.9131 37.4573 50.7801C42.8248 45.3423 43.106 44.897 43.106 42.2016C43.106 39.553 42.8013 39.178 31.6914 28.115C24.8005 21.224 21.3316 17.9426 20.605 17.591C19.1752 16.8645 17.0892 16.7473 15.5422 17.3098Z" fill="#1D4283"/>
<path d="M67.3181 28.4665C65.8414 29.1228 65.5367 31.0682 66.7321 32.1464C67.2946 32.6621 67.7165 32.7792 69.3572 32.9199C76.0138 33.5058 81.264 36.7638 84.5689 42.3656C85.858 44.5688 86.6549 47.1237 86.983 50.1004C87.2174 52.2567 87.3346 52.702 87.8737 53.288C88.3425 53.8036 88.6706 53.9677 89.3503 53.9677C91.3895 53.9677 92.0223 52.7255 91.6473 49.3972C90.7332 41.1937 85.9517 34.3262 78.6155 30.6698C74.8653 28.7947 69.0994 27.6696 67.3181 28.4665Z" fill="#1D4283"/>
<path d="M66.8493 42.7875C66.2633 43.186 65.8649 44.3579 66.0289 45.1782C66.2165 46.1158 67.1774 46.8424 68.49 47.0065C71.0214 47.3346 72.6621 48.9753 72.9902 51.5067C73.248 53.4286 74.3965 54.3193 76.0841 53.874C77.1623 53.5927 77.631 52.7723 77.5842 51.2723C77.5139 47.8737 75.4747 44.8032 72.2167 43.2094C70.5995 42.4125 67.6696 42.1781 66.8493 42.7875Z" fill="#1D4283"/>
<path d="M40.0356 74.4999C38.7699 75.625 39.1215 77.5469 40.6918 78.2032C41.3247 78.4845 41.6763 78.5079 42.3091 78.297C43.9498 77.7579 44.3717 75.7656 43.1295 74.5234C42.1919 73.6092 41.0434 73.5858 40.0356 74.4999Z" fill="#1D4283"/>
</svg>
