<svg width="91" height="91" fill="none" xmlns="http://www.w3.org/2000/svg"><g clip-path="url(#a)"><path d="M45.5 0a45.5 45.5 0 1 0 0 91 45.5 45.5 0 0 0 0-91zm1.896 3.792a41.708 41.708 0 0 1 39.812 39.812H47.396V3.792zM45.5 87.208a41.719 41.719 0 1 1-1.896-83.416V45.5a1.896 1.896 0 0 0 .55 1.346l29.461 29.442A41.538 41.538 0 0 1 45.5 87.208zm30.788-13.593L50.07 47.395h37.14a41.538 41.538 0 0 1-10.92 26.22z" fill="#1D4283"/></g><defs><clipPath id="a"><path fill="#fff" d="M0 0h91v91H0z"/></clipPath></defs></svg>