<svg width="88" height="88" fill="none" xmlns="http://www.w3.org/2000/svg"><g clip-path="url(#a)" fill-rule="evenodd" clip-rule="evenodd" fill="#1D4283"><path d="M64.84 32.01c.082 0 .17.002.256.008.04.005.084.01.124.017.058.009.184.028.216.036a28.56 28.56 0 0 1 4.445 1.295 28.57 28.57 0 0 1 4.173 2.012 2.935 2.935 0 0 1 1.386 3.195l-.894 3.909c.59.505 1.152 1.037 1.68 1.59l3.846-1.092a2.951 2.951 0 0 1 3.042.915c.023.026.131.17.152.195 1.781 2.698 3.045 5.533 3.83 8.538a2.937 2.937 0 0 1-1.288 3.246l-3.383 2.125c.06.773.079 1.545.06 2.312l3.496 1.95a2.95 2.95 0 0 1 1.503 2.831l-.03.233a29.129 29.129 0 0 1-1.316 4.553 28.574 28.574 0 0 1-2.014 4.173 2.926 2.926 0 0 1-3.2 1.384l-3.901-.891c-.51.596-1.04 1.153-1.593 1.68l1.094 3.847a2.965 2.965 0 0 1-.91 3.038c-.034.03-.182.14-.216.167a28.53 28.53 0 0 1-8.523 3.82 2.933 2.933 0 0 1-3.243-1.288l-2.128-3.383c-.776.06-1.549.074-2.314.06l-1.946 3.494a2.952 2.952 0 0 1-2.83 1.504l-.231-.03a28.553 28.553 0 0 1-4.557-1.32 28.185 28.185 0 0 1-4.171-2.007 2.932 2.932 0 0 1-1.386-3.203l.89-3.903a22.606 22.606 0 0 1-1.678-1.593l-3.844 1.096a2.967 2.967 0 0 1-3.042-.914c-.023-.026-.133-.17-.154-.197-1.784-2.705-3.047-5.542-3.829-8.538a2.945 2.945 0 0 1 1.283-3.244l3.389-2.128c-.062-.78-.08-1.548-.062-2.311l-3.496-1.95a2.96 2.96 0 0 1-1.505-2.832l.032-.232c.338-1.644.775-3.14 1.32-4.556a28.39 28.39 0 0 1 2.008-4.17 2.94 2.94 0 0 1 3.203-1.385l3.902.89a22.556 22.556 0 0 1 1.591-1.678l-1.092-3.845a2.96 2.96 0 0 1 .913-3.043c.033-.027.18-.14.213-.163a28.32 28.32 0 0 1 8.523-3.82 2.945 2.945 0 0 1 3.241 1.285l2.128 3.387c.771-.06 1.544-.085 2.313-.06l1.946-3.496a2.967 2.967 0 0 1 2.578-1.513zm.382 3.797-2.235 4.017a1.86 1.86 0 0 1-1.74.944l-.43-.03a18.688 18.688 0 0 0-3.148.085l-.39.049a1.837 1.837 0 0 1-1.795-.852l-2.444-3.89a24.449 24.449 0 0 0-6.347 2.827l1.255 4.416a1.849 1.849 0 0 1-.564 1.902l-.32.277a18.623 18.623 0 0 0-2.16 2.284l-.252.321a1.821 1.821 0 0 1-1.868.661l-4.483-1.024a24.606 24.606 0 0 0-2.491 6.487l4.018 2.24c.621.348.991 1.022.945 1.734l-.032.475a19.138 19.138 0 0 0 .087 3.123l.048.364a1.86 1.86 0 0 1-.851 1.804l-3.892 2.445a24.672 24.672 0 0 0 2.825 6.35l4.418-1.26a1.854 1.854 0 0 1 1.897.562l.302.347a19.218 19.218 0 0 0 2.271 2.146l.307.239c.568.442.828 1.17.668 1.87l-1.025 4.486a24.792 24.792 0 0 0 3.154 1.475c1.067.41 2.185.75 3.332 1.014l2.24-4.019a1.83 1.83 0 0 1 1.754-.942l.411.03c1.013.06 2.065.033 3.106-.079l.438-.053a1.821 1.821 0 0 1 1.794.85l2.444 3.892a24.838 24.838 0 0 0 6.345-2.828l-1.255-4.42a1.847 1.847 0 0 1 .57-1.904l.305-.264a18.96 18.96 0 0 0 2.138-2.246l.283-.363a1.833 1.833 0 0 1 1.868-.666l4.483 1.025a25.108 25.108 0 0 0 1.48-3.155 24.97 24.97 0 0 0 1.01-3.334l-4.017-2.237a1.85 1.85 0 0 1-.945-1.744l.032-.475c.06-1.025.03-2.081-.087-3.112l-.046-.368c-.091-.714.24-1.418.85-1.802l3.891-2.443a24.574 24.574 0 0 0-2.825-6.347l-4.42 1.255a1.851 1.851 0 0 1-1.904-.569l-.264-.306a18.956 18.956 0 0 0-2.248-2.138l-.367-.29a1.846 1.846 0 0 1-.66-1.865l1.023-4.48a24.654 24.654 0 0 0-3.152-1.479 25.069 25.069 0 0 0-3.335-1.012zM26.997 1.368a2.749 2.749 0 0 1 2.281 2.326l.427 2.986c.457.168.905.354 1.345.555l2.407-1.804a2.766 2.766 0 0 1 2.947-.228c.044.023.185.111.228.139a23.253 23.253 0 0 1 5.442 5.416c.706.98.693 2.292-.037 3.26l-1.803 2.403c.205.44.39.888.557 1.345l2.98.425a2.767 2.767 0 0 1 2.26 1.967c.01.036.042.175.05.211.229 1.358.333 2.636.333 3.895 0 1.257-.104 2.53-.313 3.79a2.74 2.74 0 0 1-2.333 2.281l-2.975.425c-.17.46-.356.909-.557 1.344l1.804 2.407a2.76 2.76 0 0 1 .09 3.176 23.41 23.41 0 0 1-5.413 5.444c-.981.702-2.29.689-3.258-.03l-2.412-1.81c-.444.205-.892.39-1.342.557l-.427 2.98a2.756 2.756 0 0 1-1.965 2.259c-.037.01-.175.043-.211.051a23.49 23.49 0 0 1-3.895.333 23.33 23.33 0 0 1-3.79-.313 2.742 2.742 0 0 1-2.28-2.325l-.428-2.985c-.457-.17-.905-.356-1.342-.557l-2.405 1.805c-.86.64-2.02.728-2.96.222-.032-.017-.162-.096-.194-.115-2.177-1.558-3.98-3.359-5.468-5.433a2.744 2.744 0 0 1 .039-3.26l1.8-2.406c-.204-.441-.39-.89-.556-1.342l-2.981-.427A2.765 2.765 0 0 1 .384 28.37a3.774 3.774 0 0 1-.05-.212A23.371 23.371 0 0 1 0 24.264c0-1.255.106-2.531.313-3.79a2.749 2.749 0 0 1 2.324-2.284l2.986-.424c.168-.459.354-.907.557-1.345L4.377 14.02a2.769 2.769 0 0 1-.1-3.165 23.25 23.25 0 0 1 5.426-5.459 2.747 2.747 0 0 1 3.26.038l2.402 1.802c.441-.203.89-.389 1.346-.557l.425-2.977A2.756 2.756 0 0 1 19.1 1.44c.037-.01.175-.043.212-.051 2.727-.46 5.177-.438 7.684-.022zM20.732 4.95l-.487 3.4a1.87 1.87 0 0 1-1.31 1.525l-.331.1c-.775.248-1.552.57-2.277.946l-.282.15a1.868 1.868 0 0 1-1.997-.154l-2.742-2.06a19.534 19.534 0 0 0-3.504 3.507l2.057 2.74a1.87 1.87 0 0 1 .153 2.001l-.162.301c-.367.713-.687 1.49-.94 2.284l-.093.305A1.866 1.866 0 0 1 7.294 21.3l-3.4.484a19.416 19.416 0 0 0 0 4.957l3.4.487c.715.1 1.306.606 1.52 1.295l.112.367c.248.767.566 1.535.944 2.262l.14.265c.344.64.284 1.421-.151 2.002l-2.057 2.746a19.603 19.603 0 0 0 3.504 3.506l2.742-2.059a1.87 1.87 0 0 1 1.99-.158l.33.173c.714.37 1.485.685 2.274.937l.288.087c.698.21 1.21.803 1.313 1.524l.486 3.402c1.667.213 3.297.213 4.956 0l.484-3.4a1.874 1.874 0 0 1 1.317-1.528l.32-.096c.749-.239 1.52-.555 2.255-.93l.303-.162a1.859 1.859 0 0 1 2 .151l2.747 2.06a19.744 19.744 0 0 0 3.504-3.507l-2.06-2.746a1.864 1.864 0 0 1-.15-2.006l.157-.286c.358-.696.678-1.462.93-2.247l.105-.346a1.867 1.867 0 0 1 1.525-1.308l3.4-.487c.102-.826.158-1.656.158-2.475 0-.824-.056-1.652-.16-2.478l-3.398-.486a1.866 1.866 0 0 1-1.523-1.304l-.113-.37a14.902 14.902 0 0 0-.94-2.253l-.147-.27a1.876 1.876 0 0 1 .156-2l2.06-2.74a19.604 19.604 0 0 0-3.505-3.507l-2.746 2.06a1.86 1.86 0 0 1-2.008.147l-.284-.154c-.7-.358-1.466-.676-2.25-.928l-.355-.11a1.871 1.871 0 0 1-1.298-1.522l-.484-3.398a19.629 19.629 0 0 0-4.953-.002z"/><path d="M59.75 46.949c1.571 0 3.112.287 4.587.852a12.707 12.707 0 0 1 7.105 6.744 12.72 12.72 0 0 1 .258 9.794c-1.887 4.916-6.69 8.218-11.952 8.218-1.57 0-3.11-.288-4.586-.855-6.59-2.53-9.892-9.948-7.363-16.538 1.887-4.914 6.688-8.215 11.952-8.215zm0 3.786a9.02 9.02 0 0 0-8.418 5.788c-1.785 4.647.537 9.859 5.186 11.646a9.02 9.02 0 0 0 3.23.601 9.022 9.022 0 0 0 8.419-5.787c1.783-4.647-.539-9.862-5.188-11.649a9.015 9.015 0 0 0-3.228-.6zm-36.277-37.93c5.884 0 10.671 4.787 10.671 10.67 0 5.884-4.787 10.67-10.67 10.67-5.884 0-10.67-4.786-10.67-10.67 0-5.883 4.786-10.67 10.67-10.67zm0 3.673a6.997 6.997 0 1 0 .003 13.994 6.997 6.997 0 0 0-.003-13.994z"/></g><defs><clipPath id="a"><path fill="#fff" d="M0 0h88v88H0z"/></clipPath></defs></svg>