<svg width="580" height="1018" fill="none" xmlns="http://www.w3.org/2000/svg"><path d="M291.607 513.424v-8.728l.534-5.441c2.35-17.354 10.854-33.265 23.94-44.793 13.087-11.528 29.871-17.893 47.253-17.92h1.127a71.58 71.58 0 0 0 39.669-12.77c11.685-8.103 20.733-19.505 26.007-32.774a73.031 73.031 0 0 0 3.637-41.804 72.676 72.676 0 0 0-19.951-36.835 71.793 71.793 0 0 0-36.859-19.531 71.463 71.463 0 0 0-41.424 4.314c-13.084 5.521-24.257 14.815-32.116 26.714a72.92 72.92 0 0 0-12.054 40.168c-.538 18.881-8.359 36.806-21.802 49.969-13.442 13.163-31.448 20.526-50.191 20.526-18.744 0-36.75-7.363-50.192-20.526-13.443-13.163-21.264-31.088-21.802-49.969-.538-18.88-8.358-36.805-21.801-49.968-13.443-13.163-31.448-20.526-50.192-20.526s-36.75 7.363-50.192 20.526c-13.443 13.163-21.263 31.088-21.801 49.968 0 19.233-7.582 37.679-21.078 51.278-13.496 13.6-31.8 21.24-50.886 21.24-19.086 0-37.39-7.64-50.886-21.24-13.496-13.599-21.078-32.045-21.078-51.278a72.974 72.974 0 0 0-12.01-40.24c-7.853-11.926-19.031-21.246-32.127-26.788a71.51 71.51 0 0 0-41.475-4.357 71.849 71.849 0 0 0-36.92 19.536 72.734 72.734 0 0 0-19.988 36.879 73.103 73.103 0 0 0 3.644 41.86c5.285 13.286 14.349 24.701 26.055 32.809a71.641 71.641 0 0 0 39.731 12.759h1.127c17.385.015 34.176 6.376 47.265 17.906 13.089 11.53 21.589 27.448 23.927 44.808l.534 5.38v6.397V509v4.364l-.474 5.441c-2.362 17.349-10.87 33.253-23.953 44.778-13.084 11.526-29.862 17.895-47.24 17.935h-1.127a71.598 71.598 0 0 0-39.659 12.802c-11.678 8.113-20.717 19.523-25.98 32.797a73.036 73.036 0 0 0-3.603 41.807 72.683 72.683 0 0 0 19.981 36.818 71.789 71.789 0 0 0 36.875 19.5 71.456 71.456 0 0 0 41.42-4.348c13.079-5.531 24.245-14.834 32.094-26.74a72.917 72.917 0 0 0 12.022-40.178 73 73 0 0 1 5.478-27.752 72.543 72.543 0 0 1 15.6-23.526 71.928 71.928 0 0 1 23.347-15.72 71.493 71.493 0 0 1 27.539-5.52c9.45 0 18.808 1.876 27.539 5.52a71.937 71.937 0 0 1 23.347 15.72 72.559 72.559 0 0 1 15.6 23.526 73.01 73.01 0 0 1 5.477 27.752 72.975 72.975 0 0 0 12.036 40.217 72.153 72.153 0 0 0 32.13 26.763 71.522 71.522 0 0 0 41.463 4.342 71.848 71.848 0 0 0 36.904-19.533 72.744 72.744 0 0 0 19.985-36.865 73.1 73.1 0 0 0-3.63-41.847c-5.277-13.283-14.333-24.698-26.029-32.811a71.65 71.65 0 0 0-39.708-12.784h-1.128c-17.385-.014-34.176-6.375-47.265-17.905-13.089-11.53-21.589-27.448-23.927-44.808l-.534-5.44v-4.365 2.093-6.457l.534-5.38c2.431-17.283 10.972-33.099 24.052-44.543 13.08-11.443 29.819-17.744 47.14-17.744 17.322 0 34.061 6.301 47.141 17.744 13.08 11.444 21.62 27.26 24.052 44.543l.474 5.38v11.718c0 1.136.356 2.272.534 3.348.178 1.076 0 2.57.534 3.766.534 1.196.712 2.69 1.009 4.006.296 1.315.474 1.972.771 2.929.297.956 1.009 2.87 1.543 4.245s.533 1.614.83 2.391c.297.777 1.424 2.989 2.136 4.544 0 .538.534 1.135.831 1.673.889 1.615 1.839 3.169 2.788 4.723 0 .419.474.837.771 1.196 1.127 1.674 2.314 3.348 3.56 4.902l.474.658c1.365 1.674 2.848 3.288 4.331 4.842 13.206 13.55 31.169 21.324 50.013 21.642h1.305a71.485 71.485 0 0 1 27.558 5.503 71.925 71.925 0 0 1 23.366 15.716 72.555 72.555 0 0 1 15.615 23.534 72.988 72.988 0 0 1 5.484 27.765 72.98 72.98 0 0 0 12.01 40.24c7.854 11.927 19.032 21.247 32.128 26.789a71.517 71.517 0 0 0 41.475 4.356 71.84 71.84 0 0 0 36.919-19.535 72.738 72.738 0 0 0 19.988-36.879 73.103 73.103 0 0 0-3.644-41.86c-5.284-13.286-14.349-24.701-26.054-32.809a71.647 71.647 0 0 0-39.731-12.76h-1.127c-17.382-.027-34.166-6.392-47.253-17.92-13.086-11.528-21.59-27.439-23.94-44.793l.178-5.082zm-432.078-6.456v1.853-1.853zM3.456 508.94a6.02 6.02 0 0 0 0-1.016v-.956 1.972zm287.855 2.212v-1.913 1.913zm0-2.092v-1.973 1.973zm-143.809-2.092c-.031.497-.031.996 0 1.494v.478-1.972z" fill="#4B82BC" fill-opacity=".1"/><path d="M-17.193 269.865A72.992 72.992 0 0 0 2.548 232.58a73.336 73.336 0 0 0-4.133-42.054c-5.473-13.299-14.735-24.664-26.615-32.659a71.865 71.865 0 0 0-40.133-12.263 71.867 71.867 0 0 0-40.133 12.263c-11.88 7.995-21.142 19.36-26.615 32.659a73.335 73.335 0 0 0-4.133 42.054 72.994 72.994 0 0 0 19.741 37.285c13.56 13.65 31.944 21.317 51.11 21.317 19.167 0 37.55-7.667 51.11-21.317M126.563 124.291a72.99 72.99 0 0 0 19.765-37.284 73.34 73.34 0 0 0-4.119-42.066c-5.47-13.303-14.732-24.673-26.614-32.672A71.872 71.872 0 0 0 75.453 0c-14.29 0-28.259 4.27-40.141 12.269-11.882 8-21.144 19.37-26.615 32.672a73.337 73.337 0 0 0-4.119 42.066 72.991 72.991 0 0 0 19.765 37.284 72.226 72.226 0 0 0 23.448 15.795 71.781 71.781 0 0 0 27.662 5.547 71.778 71.778 0 0 0 27.662-5.547 72.218 72.218 0 0 0 23.448-15.795zM169.577 167.096a73.052 73.052 0 0 0-19.814 37.313 73.4 73.4 0 0 0 4.102 42.117c5.472 13.321 14.741 24.707 26.636 32.718a71.92 71.92 0 0 0 40.186 12.288 71.92 71.92 0 0 0 40.187-12.288c11.895-8.011 21.164-19.397 26.635-32.718a73.392 73.392 0 0 0 4.103-42.117 73.06 73.06 0 0 0-19.814-37.313 72.24 72.24 0 0 0-23.448-15.795 71.785 71.785 0 0 0-27.663-5.547 71.784 71.784 0 0 0-27.662 5.547 72.228 72.228 0 0 0-23.448 15.795zM456.541 456.031a73.05 73.05 0 0 0-19.791 37.314 73.4 73.4 0 0 0 4.117 42.106c5.473 13.316 14.743 24.697 26.636 32.704a71.92 71.92 0 0 0 40.178 12.282 71.92 71.92 0 0 0 40.177-12.282c11.893-8.007 21.163-19.388 26.636-32.704a73.4 73.4 0 0 0 4.117-42.106 73.05 73.05 0 0 0-19.791-37.314c-13.57-13.653-31.963-21.322-51.139-21.322-19.177 0-37.57 7.669-51.14 21.322zM169.223 748.135a72.982 72.982 0 0 0-19.764 37.284 73.332 73.332 0 0 0 4.119 42.066c5.47 13.303 14.732 24.673 26.614 32.672a71.87 71.87 0 0 0 40.141 12.269c14.29 0 28.259-4.27 40.142-12.269 11.882-7.999 21.144-19.369 26.614-32.672a73.332 73.332 0 0 0 4.119-42.066 72.99 72.99 0 0 0-19.765-37.284A72.148 72.148 0 0 0 248 732.322a71.712 71.712 0 0 0-27.667-5.554 71.716 71.716 0 0 0-27.667 5.554 72.169 72.169 0 0 0-23.443 15.813zM24.343 893.709a72.99 72.99 0 0 0-19.765 37.284 73.338 73.338 0 0 0 4.12 42.066c5.47 13.303 14.732 24.673 26.614 32.671A71.864 71.864 0 0 0 75.453 1018c14.29 0 28.259-4.27 40.142-12.27 11.882-7.998 21.144-19.368 26.614-32.671a73.34 73.34 0 0 0 4.119-42.066 72.99 72.99 0 0 0-19.765-37.284 72.218 72.218 0 0 0-23.448-15.795 71.778 71.778 0 0 0-27.662-5.547 71.781 71.781 0 0 0-27.662 5.547 72.226 72.226 0 0 0-23.448 15.795zM-305.63 559.039a72.99 72.99 0 0 0 19.765-37.284 73.332 73.332 0 0 0-4.119-42.066c-5.47-13.303-14.732-24.673-26.614-32.672a71.875 71.875 0 0 0-40.142-12.269 71.87 71.87 0 0 0-40.141 12.269c-11.882 7.999-21.144 19.369-26.615 32.672a73.348 73.348 0 0 0-4.119 42.066 72.99 72.99 0 0 0 19.765 37.284 72.228 72.228 0 0 0 23.448 15.795 71.78 71.78 0 0 0 27.662 5.547 71.785 71.785 0 0 0 27.663-5.547 72.224 72.224 0 0 0 23.447-15.795zM-119.46 748.135a72.99 72.99 0 0 0-19.765 37.284 73.348 73.348 0 0 0 4.119 42.066c5.471 13.303 14.733 24.673 26.615 32.672a71.87 71.87 0 0 0 40.141 12.269c14.29 0 28.26-4.27 40.142-12.269 11.882-7.999 21.144-19.369 26.614-32.672a73.338 73.338 0 0 0 4.12-42.066 72.991 72.991 0 0 0-19.766-37.284 72.227 72.227 0 0 0-23.447-15.795 71.781 71.781 0 0 0-27.663-5.547 71.78 71.78 0 0 0-27.662 5.547 72.228 72.228 0 0 0-23.448 15.795z" fill="#4B82BC" fill-opacity=".1"/></svg>