<svg width="103" height="88" viewBox="0 0 103 88" fill="none" xmlns="http://www.w3.org/2000/svg">
<g clip-path="url(#clip0)">
<path fill-rule="evenodd" clip-rule="evenodd" d="M37.0522 2.75692C38.6655 0.0914618 42.6124 -0.812745 45.5696 0.806589L50.8138 3.67964C51.4739 4.04086 52.3193 4.04086 52.9785 3.68013L58.2248 0.805969C61.1833 -0.812441 65.1297 0.091451 66.743 2.75692L69.6062 7.48852C69.9635 8.0804 70.6964 8.44146 71.4796 8.40992L77.7013 8.16284C81.2105 8.02357 84.0996 10.4919 83.9394 13.4913L83.6483 18.8087C83.6124 19.4772 84.0349 20.1021 84.7306 20.4095L90.2641 22.8546C93.386 24.2325 94.4449 27.6044 92.5493 30.134L89.1859 34.6125C88.7637 35.1771 88.7637 35.9004 89.1841 36.4617L92.5498 40.9451C94.4453 43.4719 93.386 46.8458 90.2644 48.2236L84.7306 50.6671C84.0355 50.9743 83.6124 51.6006 83.6482 52.2681L83.9395 57.5873C83.9879 58.4943 83.7574 59.3526 83.3152 60.1049L91.8719 72.77C93.341 74.9487 91.6174 77.6885 88.6778 77.8408L77.3923 78.4195L71.1615 86.4808C69.5396 88.5812 65.8947 88.4862 64.4254 86.3071L51.8962 67.7666L39.3685 86.3055C37.9623 88.3909 34.5695 88.5685 32.855 86.7427L32.6319 86.4813L26.4006 78.4188L15.116 77.8406C12.1762 77.6884 10.4515 74.9491 11.921 72.7698L20.4793 60.1064C20.0363 59.3533 19.8054 58.4938 19.8539 57.5853L20.145 52.2696C20.1809 51.6006 19.7578 50.9743 19.0632 50.6673L13.5292 48.2238C10.4073 46.8458 9.34796 43.4719 11.2438 40.9446L14.6081 36.4631C15.0296 35.9004 15.0296 35.1771 14.6093 34.6152L11.243 30.1326C9.34833 27.6044 10.4073 24.2325 13.5284 22.8549L19.0626 20.4095C19.7584 20.1021 20.1809 19.4772 20.1451 18.8102L19.8538 13.4894C19.6937 10.4919 22.5827 8.02357 26.092 8.16284L32.3169 8.40997C33.0982 8.44143 33.8295 8.0809 34.1882 7.48663L37.0522 2.75692ZM23.4344 62.498L15.3527 74.4607L26.6398 75.0409C27.8849 75.1053 29.0224 75.6658 29.7062 76.554L35.937 84.6153L45.6647 70.2152L45.5705 70.2696C45.3856 70.371 45.1968 70.4625 45.005 70.5444C44.9605 70.5632 44.9148 70.5821 44.8689 70.6005C44.6746 70.6782 44.4794 70.7456 44.2821 70.8035C44.2007 70.8274 44.1189 70.8497 44.0369 70.8704C43.8646 70.914 43.6905 70.9507 43.5157 70.9804C43.3243 71.0131 43.1315 71.0374 42.9384 71.0537C41.764 71.1523 40.58 70.9488 39.5448 70.4789C39.4809 70.45 39.418 70.4202 39.3556 70.3893C39.2797 70.3516 39.2051 70.3128 39.1314 70.2726C38.8906 70.1413 38.6585 69.9934 38.4388 69.8305C38.0787 69.5635 37.7519 69.256 37.4687 68.9102C37.3841 68.8067 37.3032 68.6998 37.2265 68.5896L37.369 68.7846C37.2555 68.6368 37.1497 68.4825 37.0524 68.3217L34.1871 63.5898C33.8294 62.9973 33.0972 62.6361 32.3156 62.6667L32.3167 62.6669L26.092 62.9138C25.9235 62.9205 25.7564 62.9212 25.591 62.9161C25.5525 62.9147 25.5146 62.9131 25.4769 62.9113C24.7546 62.8776 24.0662 62.7333 23.4344 62.498ZM71.4768 62.667L71.1951 62.6729C70.5228 62.7284 69.9196 63.0707 69.6053 63.5913L66.743 68.3214C65.7103 70.0277 63.7216 71.012 61.6481 71.0747L61.2575 71.076C60.2174 71.0494 59.17 70.7892 58.224 70.2704L58.1262 70.2159L67.8557 84.6141L74.0847 76.5567C74.7082 75.7469 75.7049 75.2101 76.8171 75.0708L77.154 75.041L88.4392 74.4623L80.3562 62.4991C79.7263 62.7333 79.04 62.8772 78.32 62.9115C78.1151 62.9213 77.9091 62.9224 77.7017 62.9142L78.2042 62.916C78.0381 62.9212 77.8704 62.9205 77.7012 62.9138L71.4768 62.667ZM32.1314 59.286C32.7174 59.2624 33.294 59.3129 33.8459 59.4301C33.9236 59.4471 34.0011 59.465 34.078 59.4842C34.2659 59.5305 34.4505 59.5851 34.6312 59.6472C34.7523 59.6891 34.8718 59.7341 34.9894 59.7823C35.4625 59.9762 35.9046 60.2231 36.3034 60.5167C36.5318 60.6848 36.7446 60.8669 36.941 61.0631L37.2229 61.3675C37.4028 61.5775 37.5653 61.801 37.7081 62.0368L40.5662 66.7634C40.9463 67.3866 41.6969 67.7227 42.4528 67.6902L42.7037 67.6657C42.9545 67.6273 43.2013 67.5467 43.4304 67.4211L43.9678 67.1242L48.6772 64.5469C50.5088 63.5446 52.8209 63.4778 54.7173 64.3468L55.117 64.5474L60.3621 67.4209C60.3965 67.4398 60.4314 67.4577 60.4666 67.4745C60.5759 67.5273 60.6903 67.5705 60.8068 67.6041C60.982 67.6541 61.1619 67.6826 61.3415 67.6903L61.5927 67.6879C62.2596 67.6446 62.8902 67.3173 63.2246 66.7653L66.0858 62.0387C66.1252 61.9733 66.1662 61.9089 66.2087 61.8454C66.4978 61.4123 66.8559 61.0247 67.2671 60.6898C67.5588 60.452 67.8764 60.2412 68.215 60.0596C68.3804 59.9717 68.5514 59.8898 68.7268 59.8152C69.6184 59.4347 70.6256 59.2444 71.662 59.2861L71.6636 59.2858L77.8851 59.5328C77.9903 59.537 78.0938 59.5342 78.195 59.525C78.6844 59.4801 79.1383 59.2714 79.4805 58.9323L79.5919 58.8397C79.8556 58.5355 80.0041 58.1543 79.9821 57.7435L79.6909 52.4247C79.5841 50.4361 80.8415 48.5751 82.9113 47.6605L88.4458 45.2167C89.4947 44.7537 89.8508 43.6197 89.2148 42.7719L85.8484 38.2875C84.5942 36.613 84.5942 34.4662 85.8497 32.7874L89.214 28.3076C89.8509 27.4577 89.4951 26.3248 88.445 25.8613L82.9107 23.4159C80.8413 22.5015 79.5842 20.6421 79.691 18.6521L79.982 13.3351C80.0359 12.327 79.0645 11.497 77.8852 11.5438L71.6649 11.7908C69.3358 11.8846 67.1537 10.8096 66.0863 9.04144L63.2241 4.31158C62.6821 3.41606 61.3556 3.11224 60.362 3.65575L55.1161 6.52978C53.1536 7.60363 50.6396 7.60363 48.6763 6.52929L43.4316 3.65596C42.439 3.11244 41.113 3.41621 40.5709 4.31186L37.7079 9.03997C36.6395 10.8097 34.4593 11.8846 32.1317 11.7909L25.9081 11.5438C24.7288 11.497 23.7574 12.327 23.8111 13.3332L24.1024 18.6536C24.2091 20.6421 22.9519 22.5015 20.8825 23.4159L15.3475 25.8616C14.2981 26.3248 13.9423 27.4577 14.5783 28.3062L17.9456 32.7901C19.1991 34.4662 19.1991 36.613 17.9438 38.289L14.5788 42.7714C13.9425 43.6197 14.2985 44.7537 15.3477 45.2169L20.8825 47.6608C22.9518 48.5751 24.2091 50.4361 24.1023 52.4263L23.8112 57.7415C23.7891 58.1562 23.94 58.5405 24.2073 58.8461L24.3123 58.9321L24.4974 59.0944C24.801 59.3297 25.1697 59.4778 25.5673 59.5214C25.5809 59.5234 25.5947 59.5247 25.6086 59.5259L25.9081 59.5328L32.1314 59.286Z" fill="#1E0E62"/>
<path fill-rule="evenodd" clip-rule="evenodd" d="M51.8967 13.5391C37.6762 13.5391 26.1467 23.3895 26.1467 35.5391C26.1467 47.6886 37.6762 57.5391 51.8967 57.5391C66.1172 57.5391 77.6467 47.6886 77.6467 35.5391C77.6467 23.3895 66.1172 13.5391 51.8967 13.5391ZM51.8967 16.9237C63.9293 16.9237 73.6852 25.2588 73.6852 35.5391C73.6852 45.8194 63.9293 54.1545 51.8967 54.1545C39.8641 54.1545 30.1083 45.8194 30.1083 35.5391C30.1083 25.2588 39.8641 16.9237 51.8967 16.9237Z" fill="#101F30"/>
</g>
<defs>
<clipPath id="clip0">
<rect width="103" height="88" fill="white"/>
</clipPath>
</defs>
</svg>
