<svg width="86" height="86" viewBox="0 0 86 86" fill="none" xmlns="http://www.w3.org/2000/svg">
<path d="M84.3203 82.6406H79.2812V38.9688H84.3203C85.248 38.9688 86 38.2168 86 37.2891C86 32.5104 84.8341 28.1238 82.7169 24.9376C80.3546 21.3826 76.8664 19.3159 72.5625 18.8945V1.67969C72.5625 0.751996 71.8105 0 70.8828 0H15.1172C14.1895 0 13.4375 0.751996 13.4375 1.67969V18.8945C9.13364 19.3157 5.64543 21.3826 3.28312 24.9376C1.16587 28.1238 0 32.5104 0 37.2891C0 38.2168 0.751996 38.9688 1.67969 38.9688H6.71875V84.3203C6.71875 85.248 7.47075 86 8.39844 86H84.3203C85.2458 86 86 85.2458 86 84.3203C86 83.3948 85.2458 82.6406 84.3203 82.6406ZM79.9189 26.7967C81.4324 29.0746 82.3594 32.1585 82.586 35.6094H72.1616C71.8387 29.7352 70.3223 25.1012 67.8584 22.1719H70.8828C74.8395 22.1719 77.8797 23.7279 79.9189 26.7967ZM68.7924 35.6094H57.7356C57.6265 32.7633 57.2862 29.2025 56.377 26.0429C55.939 24.5206 55.4047 23.2294 54.7776 22.1719H61.9449C66.451 23.2304 68.4068 29.5052 68.7924 35.6094ZM16.7969 3.35938H69.2031V18.8125H16.7969V3.35938ZM54.3747 35.6094H44.6797V22.1719H50.2055C52.4711 23.1481 54.0841 28.3965 54.3747 35.6094ZM41.3203 22.1719V35.6094H31.2894C31.58 28.3965 33.193 23.1481 35.4585 22.1719H41.3203ZM30.8864 22.1719C30.2592 23.2294 29.7249 24.5206 29.287 26.0429C28.3778 29.2025 28.0375 32.7633 27.9285 35.6094H16.8716C17.2573 29.5052 19.2131 23.2304 23.7192 22.1719H30.8864ZM3.41396 35.6094C3.64055 32.1586 4.56774 29.0746 6.08114 26.7967C8.12028 23.7279 11.1605 22.1719 15.1172 22.1719H17.8055C15.3416 25.1012 13.8252 29.7352 13.5023 35.6094H3.41396ZM13.4375 82.6406H10.0781V79.2812H13.4375V82.6406ZM31.9141 82.6406H16.7969V52.4062H31.9141V82.6406ZM75.9219 82.6406H35.2734V79.2812H75.9219V82.6406ZM75.9219 75.9219H35.2734V50.7266C35.2734 49.7989 34.5214 49.0469 33.5938 49.0469H15.1172C14.1895 49.0469 13.4375 49.7989 13.4375 50.7266V75.9219H10.0781V45.6875H75.9219V75.9219ZM75.9219 42.3281H10.0781V38.9688H75.9219V42.3281Z" fill="#1D4283"/>
<path d="M1.67969 82.6406C0.75418 82.6406 0 83.3948 0 84.3203C0 85.2458 0.75418 86 1.67969 86C2.6052 86 3.35938 85.2458 3.35938 84.3203C3.35938 83.3948 2.6052 82.6406 1.67969 82.6406Z" fill="#1D4283"/>
<path d="M29.1098 10.5691C28.2805 10.0549 27.2365 9.83289 26.4771 9.21846C26.0382 8.8632 26.0051 8.28757 26.4996 7.94106C27.153 7.48334 28.2634 7.63754 28.9336 7.96373C29.8148 8.39239 30.6414 8.09911 30.6417 6.9917C30.6419 6.33847 29.9759 5.98271 29.4246 5.84648C28.8385 5.70186 28.2374 5.62057 27.6334 5.62057C26.5651 5.62057 25.653 5.88512 24.8972 6.41422C24.1413 6.94332 23.7634 7.74184 23.7634 8.81029C23.7634 9.46554 23.9271 10.0297 24.2547 10.5034C24.7915 11.2798 25.6399 11.6869 26.4677 12.0788C27.1745 12.4134 28.5553 12.9081 28.5555 13.8593C28.5559 14.2401 28.3954 14.4952 28.1458 14.6522C27.5653 15.0176 26.7873 14.9089 26.1873 14.6528C25.6376 14.4179 25.1379 13.6784 24.5197 13.6779C23.9187 13.6775 23.4914 14.4136 23.4914 14.9477C23.4914 15.4518 23.8542 15.9053 24.5799 16.3083C25.3053 16.7115 26.1571 16.9129 27.1347 16.9129C28.2633 16.9129 29.1753 16.6235 29.8709 16.0447C30.5663 15.4657 30.914 14.6568 30.914 13.6174C30.914 12.2767 30.228 11.2625 29.1098 10.5691Z" fill="#1D4283"/>
<path d="M39.7575 5.71111C39.3179 5.71111 38.5784 5.85337 38.5784 6.42161V10.1253H35.5701C35.5701 10.1253 35.5701 6.44698 35.5701 6.42161C35.5701 5.84918 34.83 5.71094 34.3909 5.71094C33.9508 5.71094 33.2118 5.85337 33.2118 6.42145C33.2118 6.42145 33.2118 15.9579 33.2118 16.0361C33.2119 16.2931 33.3571 16.465 33.5575 16.5767C33.8072 16.7159 34.143 16.7618 34.3909 16.7618C34.8115 16.7618 35.5701 16.6027 35.5701 16.0361V11.9394H38.5784C38.5784 11.9394 38.5784 16.0261 38.5784 16.0361C38.5784 16.5955 39.3173 16.7618 39.7575 16.7618C40.1786 16.7618 40.9367 16.6027 40.9367 16.0361C40.9367 16.0361 40.9367 6.49334 40.9367 6.42195C40.9367 5.84918 40.1996 5.71111 39.7575 5.71111Z" fill="#1D4283"/>
<path d="M47.2858 5.7111C45.0911 5.7111 43.582 7.04897 43.582 9.27876V13.2848C43.582 14.5145 43.9197 15.4163 44.5949 15.9908C45.27 16.5652 46.1669 16.8525 47.2856 16.8525C49.4761 16.8525 51.0046 15.5149 51.0046 13.2848C51.0046 13.2848 51.0046 9.28497 51.0046 9.27876C51.0046 7.05552 49.4863 5.7111 47.2858 5.7111ZM48.6465 13.2848C48.6465 14.2926 48.193 14.7965 47.2858 14.7965C46.3886 14.7965 45.9403 14.2926 45.9403 13.2848V9.27876C45.9403 8.27111 46.3886 7.76704 47.2858 7.76704C48.1928 7.76704 48.6465 8.27111 48.6465 9.27876V13.2848Z" fill="#1D4283"/>
<path d="M60.2487 6.5501C59.5987 5.99077 58.7343 5.7111 57.6559 5.7111C57.6559 5.7111 54.5361 5.7111 54.5267 5.7111C54.1352 5.7111 53.6499 5.9565 53.6499 6.42161C53.6499 6.42161 53.6499 15.9419 53.6499 16.0355C53.6499 16.2871 53.7969 16.4586 53.9984 16.5715C54.2499 16.7122 54.5865 16.7618 54.8292 16.7618C55.2773 16.7618 56.0083 16.6109 56.0083 16.0361V12.7708H57.5049C58.6236 12.7708 59.5229 12.4861 60.2032 11.9167C61.5978 10.7492 61.6328 7.741 60.2487 6.5501ZM58.8653 9.44504C58.8653 10.4529 58.4118 10.9568 57.5048 10.9568H56.0082V7.76704H57.5048C58.4116 7.76704 58.8653 8.27111 58.8653 9.27876V9.44504Z" fill="#1D4283"/>
<path d="M67.6914 67.5234H65.5078V50.7266C65.5078 49.7989 64.7558 49.0469 63.8281 49.0469H45.3516C44.4239 49.0469 43.6719 49.7989 43.6719 50.7266V67.5234H41.4883C40.5606 67.5234 39.8086 68.2754 39.8086 69.2031C39.8086 70.1308 40.5606 70.8828 41.4883 70.8828H67.6914C68.6191 70.8828 69.3711 70.1308 69.3711 69.2031C69.3711 68.2754 68.6191 67.5234 67.6914 67.5234ZM62.1484 67.5234H47.0312V52.4062H62.1484V67.5234Z" fill="#1D4283"/>
<path d="M26.875 68.5312C27.8027 68.5312 28.5547 67.7792 28.5547 66.8516C28.5547 65.9239 27.8027 65.1719 26.875 65.1719C25.9473 65.1719 25.1953 65.9239 25.1953 66.8516C25.1953 67.7792 25.9473 68.5312 26.875 68.5312Z" fill="#1D4283"/>
</svg>
