<svg width="91" height="91" viewBox="0 0 91 91" fill="none" xmlns="http://www.w3.org/2000/svg">
<path d="M52.9648 9.18902C47.4373 9.72223 42.8518 11.3041 38.6395 14.1478C27.8865 21.3816 22.9988 34.765 26.6424 47.0109L27.1223 48.6105L25.7359 49.1615L24.3496 49.7125L24.243 49.0726C24.0652 47.9707 23.9764 47.8107 23.5498 47.7041C22.91 47.5441 1.4041 50.2812 0.924219 50.5834C0.710937 50.7255 0.533203 50.9211 0.533203 51.0277C0.533203 51.3298 4.08789 78.4166 4.17676 78.8431C4.39004 79.7673 4.31895 79.7673 16.1916 78.2033C28.6686 76.5681 28.0109 76.7459 27.9398 75.2351C27.9221 74.7552 27.8687 74.0798 27.8154 73.7244L27.7088 73.0845L29.184 73.4045C34.0717 74.4709 42.283 77.0125 48.4326 79.3408C53.5336 81.2959 54.5289 81.4914 58.9189 81.4736C64.2332 81.4736 65.9572 81.0115 74.4707 77.3679C86.0768 72.4091 89.6314 70.2408 90.3957 67.6281C90.7689 66.3306 90.6623 64.5711 90.1469 63.4158C89.6314 62.2427 88.4939 61.0697 87.392 60.6076C85.3658 59.7189 80.2826 59.9855 75.8215 61.2119L74.293 61.6384L76.0348 59.9322C83.1975 52.8939 86.3256 42.4787 84.2105 32.7033C83.393 28.882 81.4912 24.5453 79.3228 21.506C77.7766 19.3377 74.6662 16.2451 72.5156 14.6988C70.6139 13.348 66.526 11.2507 64.4998 10.5931C60.8918 9.43785 56.2529 8.8691 52.9648 9.18902ZM57.6926 11.8906C59.0789 12.5482 60.8385 14.1656 61.9404 15.8185C63.2912 17.8625 65.0508 21.6837 65.3352 23.23L65.4418 23.8166H55.1154C49.4457 23.8166 44.7891 23.781 44.7891 23.7277C44.7891 23.4433 46.1576 19.9775 46.7619 18.7334C47.7572 16.6894 48.717 15.2498 49.9078 13.9879C52.4672 11.2863 54.9732 10.6109 57.6926 11.8906ZM48.1305 12.9214C46.3709 14.8054 44.2914 18.6623 43.1895 22.0748L42.6207 23.8166H37.4842C34.6582 23.8166 32.3477 23.7632 32.3477 23.6744C32.3477 23.3011 34.8715 20.2796 36.4178 18.8045C39.2971 16.0673 42.7451 14.0056 46.3887 12.8326C47.3129 12.5304 48.2016 12.2461 48.3437 12.1927C48.9303 12.015 48.8947 12.1216 48.1305 12.9214ZM65.3529 13.2414C68.5344 14.45 71.8047 16.565 74.3818 19.1066C75.9814 20.6707 78.0254 23.1945 78.0254 23.6211C78.0254 23.7632 76.7457 23.8166 72.9422 23.781L67.859 23.7277L67.1658 21.7015C65.975 18.1291 64.3221 15.072 62.4914 13.0281L61.6561 12.1039L62.9002 12.4416C63.5756 12.6371 64.6775 12.9925 65.3529 13.2414ZM41.8742 26.2515C41.4832 27.2468 40.8078 32.3478 40.5945 35.938L40.4701 37.8576H34.0717H27.691L27.8154 36.4712C28.0643 33.5209 29.0062 29.9484 30.2682 27.1402L30.8014 25.9494H36.3822C41.6076 25.9494 41.9809 25.9671 41.8742 26.2515ZM66.2771 26.607C66.8103 28.5798 67.5391 34.4806 67.5391 36.8267V37.8576H55.151H42.7807L42.8873 35.316C43.0295 32.2412 43.8115 26.7136 44.2025 26.0738C44.2381 26.0027 49.1791 25.9494 55.1865 25.9494H66.0994L66.2771 26.607ZM80.3004 27.4957C81.0824 29.2197 81.74 31.2103 82.1844 33.2365C82.4865 34.6228 82.8064 37.6265 82.6643 37.7687C82.6287 37.822 79.7316 37.8576 76.2303 37.8576H69.8852L69.7785 36.4712C69.4053 31.8146 68.9609 28.2244 68.4988 26.3937L68.3922 25.9494H73.973H79.5717L80.3004 27.4957ZM67.7168 40.0259C67.7168 42.0521 66.9525 48.5572 66.4727 50.7789L66.2594 51.7209H56.0574H45.8555L44.9846 51.1877C44.1848 50.69 44.0781 50.5478 43.9182 49.7125C43.4027 47.1531 42.834 42.3898 42.834 40.5591V39.8127H55.2754C65.1041 39.8127 67.7168 39.866 67.7168 40.0259ZM40.7545 42.5142C40.8256 43.9183 41.0033 45.8556 41.1455 46.8332C41.2877 47.8107 41.4121 48.6994 41.4121 48.8238C41.4121 48.9482 40.8967 48.806 40.1324 48.4328C37.2709 47.0998 34.4627 46.9576 29.7527 47.9173L29.2195 48.024L28.8285 46.7088C28.402 45.2158 27.9754 42.9052 27.7977 41.1812L27.691 39.9904H34.1605H40.6478L40.7545 42.5142ZM82.5754 41.3589C82.291 44.5226 81.5268 47.4375 80.2293 50.2812L79.5717 51.7209H73.9019C68.5877 51.7209 68.2322 51.7031 68.3211 51.4009C68.801 49.6947 69.4408 45.198 69.6008 42.2476L69.7252 39.9904H76.2125H82.682L82.5754 41.3589ZM38.5861 50.0679C39.3326 50.3701 40.5057 50.9744 41.1633 51.4187C44.3625 53.5337 50.1389 56.5552 53.5869 57.906C54.8666 58.4037 57.4971 59.3279 59.4521 59.9677C63.9133 61.4252 65.7439 62.456 66.3127 63.8423C66.6148 64.5711 66.3482 65.0509 65.1752 65.8152C63.1668 67.1482 61.2828 67.6636 59.0434 67.4859C57.3016 67.3437 56.2885 66.9882 53.2314 65.4242C49.659 63.6113 45.3756 62.225 44.6646 62.6693C44.2025 62.9537 44.0248 63.3625 44.1314 63.8423C44.2736 64.3755 44.558 64.5177 47.0285 65.2287C49.268 65.8685 50.2811 66.3128 52.6094 67.6281C55.8441 69.4587 58.7945 70.1164 61.6383 69.6009C63.309 69.2988 65.4418 68.3746 66.5615 67.4681C67.7523 66.4728 70.1695 65.4064 74.2041 64.0912C79.7139 62.2783 84.8148 61.8695 87.1254 63.0425C88.1918 63.5757 88.6717 65.673 88.0674 67.1127C87.3387 68.8722 83.3752 71.3072 76.5146 74.2043C74.9506 74.8619 72.4801 75.9105 71.0049 76.5503C66.366 78.5943 63.8066 79.3052 60.1453 79.6252C56.2352 79.9628 53.7469 79.5185 48.2549 77.4923C41.4832 74.9863 33.9295 72.6935 28.9352 71.6271L27.0334 71.2183L26.9445 70.5785C26.8557 70.0986 24.8828 54.3158 24.6518 52.3429C24.6162 52.0586 24.9717 51.863 26.8023 51.1343C30.0016 49.8724 32.4187 49.3925 35.1025 49.4814C36.9687 49.5347 37.4131 49.6058 38.5861 50.0679ZM22.2168 49.8902C22.2168 49.9791 22.9455 55.6132 23.8342 62.4382C24.7229 69.281 25.416 74.8796 25.3805 74.9152C25.3094 74.9685 7.21602 77.3324 6.4873 77.3679L5.97187 77.4035L4.33672 64.9621C3.44805 58.1193 2.75488 52.4673 2.82598 52.3962C2.91484 52.3074 20.8127 49.8546 21.9146 49.7836C22.0746 49.7658 22.2168 49.8191 22.2168 49.8902ZM65.5307 54.3513C65.424 54.9023 64.0732 58.4214 63.8244 58.8125C63.6822 59.0257 63.3445 58.9724 61.7271 58.4392C60.6785 58.0837 59.0967 57.5861 58.208 57.3195C56.2352 56.7507 55.2043 56.3597 52.6982 55.2222C49.4279 53.747 49.0369 53.8537 57.8348 53.8537H65.6373L65.5307 54.3513ZM77.3144 55.1689C75.4482 57.8705 72.5156 60.6076 69.6186 62.3494C68.4455 63.0425 68.3211 63.0781 68.1611 62.7937C67.9123 62.3671 66.0994 60.5187 65.7084 60.3054C65.424 60.1632 65.4418 60.0388 66.0105 58.8125C66.3482 58.1015 66.8637 56.7685 67.1658 55.8976C67.468 55.0089 67.7523 54.1914 67.8057 54.067C67.859 53.907 69.0853 53.8537 73.0488 53.8537H78.2209L77.3144 55.1689Z" fill="#1D4283"/>
<path d="M15.8184 51.8279C14.3254 52.4677 13.4367 53.8896 13.4189 55.6314C13.4189 56.5734 13.5078 56.9288 13.8988 57.6042C15.0719 59.5948 17.649 60.2702 19.6574 59.0972C20.4928 58.5995 21.257 57.4798 21.5236 56.3778C21.8791 54.8316 20.9371 52.7876 19.4619 51.9523C18.6088 51.4724 16.7959 51.4013 15.8184 51.8279ZM18.6621 54.0673C19.7285 54.796 19.6752 56.1468 18.5732 57.0177C17.6312 57.7642 16.1738 57.3554 15.7117 56.2179C14.9475 54.4228 16.9914 52.9476 18.6621 54.0673Z" fill="#1D4283"/>
<path d="M7.39329 52.6809C6.43353 53.0364 5.88255 53.4807 5.24271 54.3694C4.79837 55.0092 4.7095 55.3291 4.65618 56.3955C4.60286 57.4797 4.65618 57.7996 5.02943 58.475C5.88255 60.0746 7.80208 60.9811 9.52611 60.6078C12.4054 59.968 13.6851 56.7155 12.0322 54.2627C11.0368 52.7698 9.01068 52.0944 7.39329 52.6809ZM9.9349 55.0981C11.6767 56.3244 9.75716 59.2037 7.8554 58.2262C6.73568 57.6397 6.39798 56.3067 7.12669 55.3825C7.83763 54.476 8.93958 54.3694 9.9349 55.0981Z" fill="#1D4283"/>
</svg>
