<svg width="110" height="110" viewBox="0 0 110 110" fill="none" xmlns="http://www.w3.org/2000/svg">
<g clip-path="url(#clip0_2061:3628)">
<path d="M54.8082 13.8568C56.0032 13.8568 56.9719 12.8964 56.9719 11.7118V2.14496C56.9719 0.960346 56.0032 0 54.8082 0C53.6133 0 52.6445 0.960346 52.6445 2.14496V11.7118C52.6447 12.8964 53.6135 13.8568 54.8082 13.8568Z" fill="#1D4283"/>
<path d="M107.697 73.69L103.875 69.9115C102.515 68.5652 100.703 67.8236 98.7717 67.8236C97.537 67.8236 96.3517 68.1282 95.3013 68.6987L88.0985 61.5668L88.4493 61.2194C91.3714 58.3168 91.3703 53.6003 88.4491 50.7075C87.4052 49.6707 86.1026 48.9794 84.6827 48.6884C84.8782 48.0195 84.9811 47.3187 84.9811 46.6016C84.9811 44.6092 84.2003 42.7409 82.7871 41.3456C81.743 40.3088 80.4406 39.6174 79.0207 39.3265C79.2162 38.6575 79.3191 37.957 79.3191 37.2397C79.3191 35.247 78.5384 33.3789 77.1227 31.9815C76.0537 30.923 74.7395 30.253 73.3595 29.9678C74.0977 27.4445 73.467 24.6057 71.4646 22.6173C69.7979 20.972 67.5362 20.2648 65.3566 20.494L51.0835 17.8157C48.9067 17.4064 46.1883 17.1357 44.4723 18.6873C44.364 18.7852 44.2536 18.8979 44.1449 19.0234C41.4843 18.0619 38.381 18.6344 36.2504 20.7443C34.837 22.1438 34.0584 24.0112 34.0584 26.0026C34.0584 26.72 34.1609 27.4205 34.3562 28.0897C32.9378 28.3804 31.6369 29.0709 30.5964 30.1043C29.1801 31.5025 28.3992 33.3678 28.3977 35.3569C28.397 36.0759 28.5 36.7788 28.6963 37.4497C27.2773 37.7398 25.9755 38.429 24.9318 39.4624C23.5156 40.8649 22.7357 42.7334 22.7357 44.7237C22.7357 46.2483 23.1948 47.7006 24.0456 48.9274C22.9714 49.2884 21.9874 49.8893 21.1635 50.7052C18.2394 53.6003 18.2384 58.317 21.1654 61.2239L21.515 61.5689L14.3112 68.6973C11.6341 67.4477 8.33558 67.9158 6.12634 70.1032L2.30169 73.8841C0.941299 75.231 0.192354 77.0277 0.192139 78.9431C0.192139 80.8587 0.941299 82.6556 2.30169 84.0027L7.07487 88.7288C7.92028 89.5661 9.29034 89.5652 10.1347 88.7271C10.9792 87.8891 10.9784 86.5309 10.133 85.6938L5.35978 80.9677C4.81794 80.4312 4.51952 79.7122 4.51952 78.9433C4.51952 78.1746 4.81794 77.4558 5.35849 76.9206L9.18335 73.1395C10.139 72.1932 11.6016 72.0522 12.7124 72.7105C12.7906 72.827 12.881 72.9378 12.9846 73.0406C13.17 73.2249 13.3816 73.3661 13.6063 73.4694L35.5404 95.1816C35.6446 95.4068 35.7877 95.6187 35.9744 95.804C36.1561 95.9844 36.3635 96.1239 36.5835 96.2265C37.0473 96.7464 37.3036 97.4105 37.3036 98.1189C37.3036 98.8878 37.0052 99.6066 36.4634 100.143L32.6424 103.927C31.5134 105.041 29.6769 105.041 28.5513 103.93L23.7781 99.1977C22.9331 98.36 21.5633 98.36 20.7183 99.1977C19.8733 100.035 19.8733 101.393 20.7183 102.231L25.4949 106.967C26.9009 108.355 28.7472 109.048 30.5945 109.048C32.4421 109.048 34.2906 108.354 35.6983 106.964L39.5217 103.179C40.882 101.831 41.6312 100.035 41.6312 98.1189C41.6312 96.7518 41.2477 95.4462 40.5346 94.3203L48.642 86.2929C48.6506 86.2842 48.6592 86.2755 48.668 86.2668C49.5963 85.3154 52.1815 85.4934 54.6817 85.6655C56.458 85.788 58.4384 85.9241 60.3733 85.703L69.2515 94.4939C68.6764 95.5335 68.3694 96.707 68.3694 97.9291C68.3694 99.8428 69.1185 101.638 70.4789 102.986L74.3025 106.771C75.662 108.118 77.4742 108.859 79.4052 108.859C81.336 108.859 83.1483 108.118 84.508 106.771L107.698 83.8095C109.059 82.4626 109.808 80.6659 109.808 78.7503C109.808 76.835 109.059 75.0382 107.697 73.69V73.69ZM50.2778 22.0307L59.6637 23.7919L54.0457 29.3591C53.1767 28.945 51.9856 28.1727 50.6789 26.9336C48.8903 25.2374 47.611 23.279 47.4945 22.0575C47.4943 22.0569 47.4943 22.0563 47.4943 22.0556C47.4943 22.0554 47.4941 22.0552 47.4941 22.055C47.4857 21.9672 47.4835 21.8972 47.4846 21.8437C47.7676 21.7755 48.5191 21.6999 50.2778 22.0307ZM39.3083 23.7795C40.4044 22.6939 42.1073 22.5687 43.3459 23.4002C44.0478 26.3176 46.5582 28.9618 47.6877 30.0332C48.5247 30.8272 51.2104 33.2077 53.9213 33.862C54.2881 34.3831 54.4877 35.0044 54.4877 35.66C54.4877 36.5045 54.16 37.294 53.563 37.8852C52.9677 38.4765 52.1699 38.8019 51.3166 38.8019C50.463 38.8019 49.6653 38.4765 49.0672 37.8825L49.0669 37.8823L49.0659 37.8812L39.3081 28.2253C38.7132 27.6364 38.3856 26.8469 38.3856 26.0026C38.3858 25.1582 38.7134 24.3686 39.3083 23.7795V23.7795ZM33.6545 33.1395C34.2498 32.5485 35.0467 32.2228 35.8987 32.2228C36.7519 32.2228 37.5513 32.5491 38.1505 33.1425L46.0078 40.9162C47.2451 42.1447 47.2451 44.1438 46.0121 45.368C45.4135 45.9591 44.613 46.2845 43.7582 46.2845C42.9033 46.2845 42.1028 45.9591 41.5068 45.3706L41.5066 45.3704L35.5458 39.4624C35.5365 39.4532 35.5264 39.4447 35.517 39.4353L33.6521 37.5875C33.0538 36.995 32.7244 36.2039 32.7251 35.3601C32.7259 34.519 33.0542 33.7321 33.6545 33.1395V33.1395ZM27.9899 42.4976C28.5857 41.9079 29.3843 41.5831 30.2389 41.5831C31.0865 41.5831 31.8782 41.9032 32.4713 42.4827L38.4504 48.4073C39.0466 48.996 39.3751 49.7847 39.3751 50.6281C39.3751 51.4713 39.0466 52.26 38.4481 52.851C37.8525 53.4406 37.0548 53.7654 36.2017 53.7654C35.3472 53.7654 34.5469 53.4397 33.9505 52.851L31.783 50.7048C31.7826 50.7041 31.7819 50.7037 31.7815 50.7033L27.9901 46.9492C27.3924 46.3573 27.0633 45.5667 27.0633 44.7233C27.0633 43.8801 27.3924 43.0893 27.9899 42.4976V42.4976ZM24.2216 53.7402C24.8199 53.1477 25.6195 52.8214 26.4731 52.8214C27.3265 52.8214 28.1259 53.1475 28.724 53.7396L30.8946 55.8888C31.491 56.4775 31.8193 57.2662 31.8193 58.1096C31.8193 58.953 31.4908 59.7415 30.8901 60.3349C30.2948 60.9259 29.497 61.2515 28.6437 61.2515C27.7901 61.2515 26.9924 60.9261 26.3928 60.3306L26.121 60.0622C26.1173 60.0586 26.1145 60.0548 26.1111 60.0514C26.107 60.0475 26.1027 60.0441 26.0986 60.0403L24.2237 58.1888C22.9864 56.9597 22.9853 54.9642 24.2216 53.7402ZM68.3148 78.118C67.4702 77.2797 66.1002 77.279 65.255 78.1161L63.33 80.0221C61.5008 81.8354 58.1864 81.6071 54.9812 81.3866C51.5005 81.1468 47.9012 80.8993 45.5721 83.2698L37.6025 91.1609L17.6729 71.4328L24.7258 64.4535C25.8915 65.1619 27.2367 65.5417 28.6441 65.5417C30.6548 65.5417 32.5403 64.769 33.9486 63.3703C35.3664 61.9706 36.1473 60.1025 36.1473 58.1098C36.1473 58.0913 36.146 58.073 36.146 58.0544C36.1647 58.0546 36.1834 58.0557 36.2021 58.0557C38.21 58.0557 40.094 57.2853 41.5042 55.889C42.922 54.4893 43.7029 52.621 43.7029 50.6285C43.7029 50.61 43.7017 50.5917 43.7017 50.5731C43.7206 50.5731 43.7395 50.5744 43.7586 50.5744C45.7659 50.5744 47.6509 49.8049 49.0706 48.4033C50.5444 46.9398 51.2734 45.0132 51.2594 43.0906C51.2788 43.0908 51.2981 43.0919 51.3174 43.0919C53.3282 43.0916 55.2134 42.3192 56.6239 40.9184C58.0373 39.5188 58.8159 37.6514 58.8159 35.66C58.8159 34.2673 58.4339 32.9359 57.7217 31.7826L63.9034 25.657C64.364 25.2022 64.9321 24.9168 65.5274 24.7991C65.5919 24.7923 65.6555 24.782 65.7184 24.7697C66.6736 24.6391 67.6767 24.9313 68.4072 25.6525C69.6445 26.8812 69.6445 28.8803 68.4117 30.1045L66.529 31.9632C66.5228 31.9694 66.5161 31.9749 66.5099 31.9811L64.3415 34.1271C63.4959 34.9642 63.495 36.3224 64.3395 37.1605C65.1843 37.9988 66.5542 37.9994 67.3994 37.1624L69.2895 35.2911C69.29 35.2907 69.2904 35.2902 69.2908 35.2898L69.5766 35.0076C70.8173 33.7889 72.8274 33.7915 74.0668 35.0185C74.6632 35.6072 74.9917 36.3958 74.9917 37.2393C74.9917 38.0825 74.6632 38.8711 74.0621 39.4645L72.1687 41.3454C72.1684 41.3456 72.1682 41.3458 72.168 41.3462L69.9998 43.4869C69.1531 44.3229 69.1503 45.6811 69.9936 46.5203C70.8368 47.3596 72.2067 47.3622 73.0534 46.5264L75.2315 44.3759C75.8268 43.7847 76.6245 43.4593 77.4779 43.4593C78.3315 43.4593 79.1294 43.7847 79.729 44.3802C80.3254 44.9691 80.6537 45.7578 80.6537 46.6012C80.6537 47.4444 80.3254 48.2331 79.7256 48.8252L75.9508 52.5688C75.106 53.4067 75.1062 54.7647 75.9512 55.6021C76.3738 56.0209 76.9272 56.23 77.4809 56.23C78.0348 56.23 78.5886 56.0204 79.011 55.6015L80.861 53.7668C80.8716 53.7568 80.8829 53.7481 80.8935 53.7377C81.4888 53.1464 82.2865 52.821 83.1399 52.821C83.9934 52.821 84.7912 53.1464 85.3886 53.7398C86.6246 54.9638 86.6236 56.9595 85.3886 58.1858L83.5077 60.0484C83.507 60.049 83.5062 60.0497 83.5055 60.0503C83.5049 60.0509 83.5042 60.0518 83.5036 60.0524L80.5181 63.0084C79.6727 63.8457 79.6719 65.2039 80.5162 66.042C80.9388 66.4613 81.4931 66.6711 82.0472 66.6711C82.6004 66.6711 83.1538 66.462 83.5762 66.0439L85.0365 64.5979L92.0355 71.5282L72.1076 91.2595L64.9675 84.1897C65.4653 83.8724 65.9416 83.4992 66.3887 83.056L68.3126 81.1511C69.1585 80.3143 69.1593 78.9561 68.3148 78.118V78.118ZM104.64 80.7743L81.4497 103.736C80.9072 104.273 80.181 104.569 79.405 104.569C78.629 104.569 77.9028 104.273 77.3601 103.736L73.5366 99.9501C72.9947 99.4138 72.6963 98.6961 72.6963 97.9291C72.6963 97.1624 72.9947 96.4446 73.5366 95.9081L96.727 72.9463C97.2697 72.4089 97.9957 72.1131 98.7719 72.1131C99.5479 72.1131 100.274 72.4089 100.818 72.9476L104.64 76.7261C105.182 77.2626 105.481 77.9812 105.481 78.7501C105.48 79.5192 105.182 80.238 104.64 80.7743V80.7743Z" fill="#1D4283"/>
<path d="M26.0774 12.0498C26.4998 12.4677 27.0528 12.6764 27.6058 12.6764C28.1601 12.6764 28.7146 12.4664 29.1372 12.0466C29.9814 11.2081 29.9801 9.85014 29.1342 9.01333L21.2499 1.21278C20.4043 0.375963 19.0342 0.377027 18.1901 1.21576C17.346 2.05428 17.3473 3.41227 18.1931 4.24908L26.0774 12.0498Z" fill="#1D4283"/>
<path d="M82.0106 12.6764C82.5638 12.6764 83.1172 12.4672 83.5396 12.0491L91.4179 4.24836C92.2633 3.41133 92.2642 2.05313 91.4197 1.21504C90.5753 0.376947 89.2055 0.376095 88.3598 1.21334L80.4815 9.0141C79.6361 9.85113 79.6352 11.2093 80.4798 12.0474C80.9024 12.4668 81.4565 12.6764 82.0106 12.6764Z" fill="#1D4283"/>
<path d="M13.4962 92.2662C12.6585 93.1109 12.6701 94.4691 13.5224 95.2996L13.5286 95.3055C13.9491 95.7153 14.495 95.9194 15.0407 95.9194C15.6008 95.9194 16.1609 95.7045 16.5852 95.2766C17.4229 94.4319 17.4081 93.0707 16.556 92.2403C15.7041 91.4098 14.3343 91.4215 13.4962 92.2662V92.2662Z" fill="#1D4283"/>
<path d="M73.6067 75.0278C73.9358 75.0278 74.2697 74.9535 74.5832 74.7969C75.6501 74.2634 76.0787 72.9736 75.5407 71.9159C75.0025 70.8582 73.7012 70.4331 72.6345 70.9666L72.6225 70.9726C71.5556 71.5061 71.133 72.793 71.6709 73.8506C72.0508 74.5978 72.8148 75.0278 73.6067 75.0278V75.0278Z" fill="#1D4283"/>
</g>
<defs>
<clipPath id="clip0_2061:3628">
<rect width="110" height="109.048" fill="white"/>
</clipPath>
</defs>
</svg>
