<svg width="91" height="91" viewBox="0 0 91 91" fill="none" xmlns="http://www.w3.org/2000/svg">
<path d="M54.1362 62.9736C51.32 61.3636 47.736 61.8547 45.417 64.1737C45.1379 64.448 44.823 65.151 43.5855 66.3C37.4922 71.9582 26.485 65.042 23.4107 56.7989C21.0755 50.5384 24.6749 47.6376 24.9698 47.0021C25.1805 46.5522 25.1602 46.0166 24.8971 45.5776C22.1562 40.9904 18.7022 36.9144 14.6305 33.4624C13.9906 32.9201 13.0323 32.9989 12.4902 33.639C11.9478 34.2787 12.0268 35.237 12.6665 35.7794C16.2141 38.7869 19.2609 42.3009 21.7361 46.2346C13.0371 58.0019 32.8993 77.9681 44.7492 69.2504C48.7119 71.7429 52.2479 74.8144 55.2701 78.3931C55.5706 78.7489 55.9994 78.9321 56.4311 78.9321C57.7111 78.9321 58.4258 77.4227 57.5906 76.4337C54.5297 72.8088 50.9745 69.6722 47.0051 67.0886C47.2267 66.8173 47.4419 66.5352 47.6487 66.2397C48.998 64.9579 51.0292 64.6963 52.6287 65.6108C56.8128 68.0027 60.2923 71.4834 62.6908 75.6768C63.6045 77.2741 63.2986 79.3603 61.9472 80.7507C36.3627 107.069 -15.997 54.5502 10.2412 29.0445C11.6312 27.6931 13.7176 27.3874 15.3151 28.3009C19.5083 30.6991 22.989 34.1785 25.3811 38.363C25.7974 39.091 26.7255 39.3438 27.4533 38.9277C28.1815 38.5116 28.4344 37.5837 28.0181 36.8555C25.3572 32.201 21.4861 28.3315 16.8231 25.6645C14.0565 24.0822 10.4795 24.5768 8.12421 26.8667C-21.0827 55.2586 35.7046 112.103 64.1252 82.8675C66.4151 80.5119 66.9094 76.9348 65.3274 74.1688C62.6602 69.5054 58.7901 65.6341 54.1362 62.9736Z" fill="#1D4283"/>
<path d="M90.948 26.0154C90.8999 25.1783 90.1839 24.5402 89.345 24.586C88.5077 24.634 87.8678 25.3516 87.9156 26.1889C88.7266 40.3163 77.4708 52.204 63.3731 52.204C49.8179 52.204 38.7898 41.1758 38.7898 27.6207C38.7898 19.9078 42.4592 12.6448 48.5276 8.02957C48.5276 8.02957 48.4424 9.32176 48.4424 9.35555C48.442 10.1483 49.0571 10.8161 49.8597 10.87C50.7059 10.9247 51.4209 10.2857 51.4765 9.45616C51.7922 4.73275 51.7878 5.01826 51.7384 4.76122C51.6327 4.22096 51.2428 3.77542 50.7261 3.60476L46.6263 2.25031C45.6433 1.92683 44.6307 2.66016 44.6307 3.6919C44.6304 4.32954 45.0349 4.92353 45.6733 5.13462L46.8193 5.51315C39.8122 10.7702 35.7525 18.9288 35.7525 27.6208C35.7525 42.8509 48.143 55.2415 63.3731 55.2415C79.1736 55.2413 91.8569 41.928 90.948 26.0154Z" fill="#1D4283"/>
<path d="M71.5281 4.42169C73.9458 5.27195 74.0413 5.62883 74.7241 5.62883C75.2883 5.62883 75.8301 5.31295 76.0922 4.77098C76.4576 4.01582 76.1416 3.10786 75.3864 2.74243C74.4627 2.29556 73.5035 1.89653 72.5353 1.55617C71.7439 1.27768 70.8771 1.6936 70.599 2.48521C70.3207 3.27662 70.7367 4.14339 71.5281 4.42169Z" fill="#1D4283"/>
<path d="M86.5727 19.4681C86.8502 20.2582 87.7157 20.6759 88.5088 20.3976C89.3002 20.1195 89.7163 19.2527 89.4382 18.4615C89.0978 17.4927 88.6986 16.533 88.2514 15.6081C87.8863 14.8533 86.9787 14.5365 86.2228 14.9021C85.4677 15.2673 85.1516 16.1755 85.5168 16.9307C85.9149 17.753 86.2701 18.6069 86.5727 19.4681Z" fill="#1D4283"/>
<path d="M79.7569 9.29276C80.438 9.90193 81.092 10.5559 81.7012 11.237C82.0011 11.5725 82.4167 11.7431 82.8337 11.7431C84.1297 11.7431 84.8461 10.1971 83.9651 9.21189C83.281 8.44743 82.5465 7.71297 81.7821 7.02882C81.1566 6.46976 80.1966 6.52348 79.6375 7.14822C79.0785 7.77353 79.132 8.73351 79.7569 9.29276Z" fill="#1D4283"/>
<path d="M63.373 3.03732C64.2799 3.03732 64.7394 3.08079 64.8928 3.08079C65.6918 3.08079 66.3614 2.45662 66.4077 1.64888C66.4555 0.811534 65.8156 0.0939671 64.9783 0.0459395C64.4462 0.0153764 63.9061 0 63.373 0C62.5344 0 61.8544 0.67998 61.8544 1.51866C61.8544 2.35734 62.5344 3.03732 63.373 3.03732Z" fill="#1D4283"/>
<path d="M57.2803 44.4208H69.6553C72.0005 44.4208 73.9085 42.5128 73.9085 40.1676V37.0662C73.9085 36.2275 73.2285 35.5475 72.3899 35.5475C71.5512 35.5475 70.8712 36.2275 70.8712 37.0662V40.1676C70.8712 40.8381 70.3258 41.3835 69.6553 41.3835H57.2803C56.6098 41.3835 56.0645 40.8381 56.0645 40.1676V37.0662C56.0645 34.2341 57.7215 31.6269 60.2818 30.426C61.4445 29.8956 61.468 28.219 60.2858 27.6645C57.7213 26.4619 56.0645 23.8548 56.0645 21.0225V17.9212C56.0645 17.2507 56.6098 16.7053 57.2803 16.7053H69.6553C70.3258 16.7053 70.8712 17.2507 70.8712 17.9212V21.0225C70.8712 23.8548 69.2142 26.4619 66.6446 27.667C65.4701 28.2124 65.476 29.8888 66.6539 30.426C67.1344 30.6451 67.6494 30.6012 68.064 30.355C71.6193 28.6293 73.9085 24.9814 73.9085 21.0225V17.9212C73.9085 15.576 72.0005 13.668 69.6553 13.668H57.2803C54.9351 13.668 53.0271 15.576 53.0271 17.9212V21.0225C53.0271 24.156 54.4615 27.0945 56.8299 29.0431C54.4644 30.9879 53.0271 33.9292 53.0271 37.0662V40.1676C53.0271 42.5128 54.9351 44.4208 57.2803 44.4208Z" fill="#1D4283"/>
</svg>
