<svg width="203" height="102" viewBox="0 0 203 102" fill="none" xmlns="http://www.w3.org/2000/svg">
<path d="M116.071 70.38C116.111 70.9593 115.93 71.5323 115.563 71.9814C115.218 72.3537 114.548 72.5424 113.614 72.5424C112.681 72.5424 112.036 72.3639 111.691 72.0069C111.315 71.5528 111.133 70.9683 111.183 70.38C111.171 70.0636 111.245 69.7497 111.397 69.4722C111.523 69.2517 111.682 69.0521 111.869 68.8806C112.068 68.7156 112.291 68.58 112.528 68.4777C112.833 68.3604 113.163 68.2482 113.503 68.1309C113.843 68.0136 114.102 67.9269 114.436 67.7994C114.771 67.6719 115.081 67.5648 115.37 67.4679C115.521 67.4212 115.664 67.3543 115.797 67.269C115.873 67.2213 115.938 67.1581 115.987 67.0834C116.037 67.0087 116.071 66.9242 116.086 66.8355L116.071 70.38ZM117.304 60.18C116.517 59.517 115.274 59.1855 113.604 59.1855C112.859 59.1706 112.116 59.2633 111.397 59.4609C110.847 59.6125 110.33 59.8668 109.874 60.2106C109.496 60.5006 109.196 60.881 109.001 61.3173C108.818 61.7456 108.724 62.2075 108.727 62.6739V63.3675H111.168C111.158 62.8452 111.339 62.3372 111.676 61.9395C112.011 61.5468 112.66 61.3479 113.614 61.3479C114.018 61.3369 114.42 61.3903 114.807 61.506C115.085 61.5913 115.343 61.7337 115.563 61.9242C115.739 62.0775 115.878 62.2694 115.969 62.4852C116.04 62.6746 116.077 62.8747 116.081 63.0768V63.6276C116.084 63.8352 116.04 64.0408 115.954 64.2294C115.872 64.396 115.769 64.5518 115.649 64.6935C115.55 64.8149 115.43 64.9169 115.294 64.9944L114.99 65.1525C114.914 65.1525 114.721 65.2392 114.416 65.3565C114.112 65.4738 113.751 65.6013 113.34 65.7441L112.066 66.1878C111.625 66.3459 111.234 66.4785 110.889 66.5958C110.23 66.8218 109.667 67.2682 109.296 67.8606C108.924 68.4565 108.731 69.1467 108.737 69.8496V71.2062C108.743 71.5926 108.806 71.976 108.925 72.3435C109.062 72.7818 109.315 73.1748 109.656 73.4808C110.089 73.8688 110.597 74.1638 111.148 74.3478C112.76 74.8101 114.469 74.8101 116.081 74.3478C116.632 74.1638 117.139 73.8688 117.573 73.4808C117.91 73.1713 118.162 72.7796 118.304 72.3435C118.42 71.9754 118.483 71.5924 118.491 71.2062V62.6688C118.499 62.1902 118.396 61.7164 118.192 61.284C117.988 60.8515 117.687 60.4721 117.314 60.1749" fill="#1D4283"/>
<path d="M124.45 53.5602H122.039V74.4549H124.45V53.5602Z" fill="#1D4283"/>
<path d="M132.133 59.211C131.216 59.1718 130.3 59.3138 129.438 59.6292C128.878 59.8489 128.377 60.1984 127.976 60.6492C127.675 60.9776 127.467 61.3807 127.372 61.8171C127.307 62.1156 127.268 62.4194 127.256 62.7249V74.46H129.697V63.189C129.697 62.9997 129.721 62.8113 129.768 62.628C129.822 62.4088 129.936 62.2092 130.098 62.0517C130.307 61.8444 130.555 61.6814 130.828 61.5723C131.228 61.4252 131.652 61.3577 132.077 61.3734C132.285 61.3734 132.468 61.3734 132.62 61.3734C132.772 61.3734 132.965 61.3734 133.193 61.3734L133.736 59.2671C133.486 59.2313 133.233 59.2176 132.98 59.2263C132.737 59.2263 132.473 59.2263 132.133 59.2263" fill="#1D4283"/>
<path d="M142.801 70.38C142.841 70.9593 142.659 71.5323 142.293 71.9814C141.953 72.3537 141.303 72.5424 140.344 72.5424C139.385 72.5424 138.766 72.3639 138.421 72.0069C138.047 71.5518 137.865 70.968 137.913 70.38C137.901 70.0636 137.975 69.7497 138.127 69.4722C138.253 69.2517 138.412 69.0521 138.598 68.8806C138.798 68.7156 139.02 68.58 139.258 68.4777C139.568 68.3604 139.893 68.2482 140.238 68.1309C140.583 68.0136 140.831 67.9269 141.166 67.7994C141.501 67.6719 141.811 67.5648 142.1 67.4679C142.252 67.4203 142.397 67.3535 142.532 67.269C142.607 67.2211 142.671 67.1576 142.72 67.0829C142.769 67.0082 142.802 66.9239 142.816 66.8355L142.801 70.38ZM144.034 60.18C143.252 59.5 142.019 59.1685 140.334 59.1855C139.589 59.1706 138.845 59.2633 138.127 59.4609C137.576 59.6119 137.06 59.8663 136.604 60.2106C136.223 60.499 135.921 60.8798 135.726 61.3173C135.542 61.7456 135.449 62.2075 135.452 62.6739V63.3675H137.893C137.881 62.8449 138.062 62.3362 138.401 61.9395C138.735 61.5468 139.38 61.3479 140.334 61.3479C140.738 61.3365 141.14 61.3899 141.527 61.506C141.805 61.5913 142.062 61.7337 142.283 61.9242C142.461 62.0762 142.6 62.2685 142.689 62.4852C142.762 62.6739 142.8 62.8744 142.801 63.0768V63.6276C142.806 63.8355 142.763 64.0416 142.674 64.2294C142.591 64.396 142.489 64.5518 142.369 64.6935C142.27 64.8149 142.15 64.9169 142.014 64.9944L141.709 65.1525C141.633 65.1525 141.446 65.2392 141.136 65.3565C140.826 65.4738 140.471 65.6013 140.06 65.7441L138.786 66.1878C138.345 66.3459 137.954 66.4785 137.609 66.5958C136.951 66.8228 136.391 67.2691 136.02 67.8606C135.646 68.4551 135.45 69.1459 135.457 69.8496V71.2062C135.465 71.5924 135.528 71.9754 135.645 72.3435C135.787 72.7796 136.039 73.1713 136.376 73.4808C136.809 73.8688 137.317 74.1638 137.868 74.3478C139.48 74.8101 141.188 74.8101 142.801 74.3478C143.352 74.165 143.86 73.8698 144.293 73.4808C144.634 73.1748 144.886 72.7818 145.023 72.3435C145.142 71.976 145.206 71.5926 145.211 71.2062V62.6688C145.218 62.1902 145.116 61.7164 144.912 61.284C144.708 60.8515 144.407 60.4721 144.034 60.1749" fill="#1D4283"/>
<path d="M155.365 63.3879V63.648C155.366 63.8636 155.321 64.0768 155.233 64.2737C155.146 64.4706 155.018 64.6467 154.858 64.7904C154.708 64.9425 154.529 65.0628 154.332 65.1443C154.135 65.2258 153.924 65.2667 153.711 65.2647H152.077C151.98 65.2647 151.849 65.2647 151.676 65.2902C151.503 65.3129 151.333 65.3522 151.168 65.4075C151.003 65.4612 150.848 65.544 150.712 65.6523C150.58 65.7576 150.489 65.9053 150.453 66.0705V63.0717C150.46 62.8987 150.489 62.7272 150.539 62.5617C150.607 62.3441 150.731 62.1487 150.899 61.9956C151.124 61.7967 151.386 61.6457 151.671 61.5519C152.091 61.4123 152.533 61.3484 152.975 61.3632C153.399 61.3474 153.823 61.4114 154.224 61.5519C154.499 61.6474 154.748 61.8043 154.954 62.0109C155.113 62.1712 155.228 62.3696 155.289 62.5872C155.333 62.7711 155.357 62.9592 155.36 63.1482L155.365 63.3879ZM157.086 60.5931C156.682 60.1462 156.182 59.7974 155.624 59.5731C153.869 59.0157 151.985 59.0157 150.23 59.5731C149.671 59.7961 149.171 60.1451 148.768 60.5931C148.472 60.9192 148.264 61.316 148.164 61.7457C148.097 62.0492 148.058 62.3582 148.047 62.6688V71.2011C148.027 71.8173 148.205 72.4236 148.555 72.93C148.725 73.1593 148.917 73.3711 149.128 73.5624C149.39 73.796 149.686 73.987 150.006 74.1285C150.407 74.3066 150.826 74.4416 151.255 74.5314C151.811 74.6429 152.377 74.6958 152.945 74.6895C153.681 74.7076 154.416 74.62 155.127 74.4294C155.604 74.2992 156.058 74.0944 156.472 73.8225C156.902 73.5315 157.252 73.1347 157.487 72.6699C157.707 72.2231 157.82 71.7304 157.817 71.2317V70.5381H155.381C155.382 70.8335 155.332 71.1269 155.234 71.4051C155.137 71.6805 154.96 71.9203 154.726 72.0936C154.534 72.2049 154.332 72.2971 154.122 72.369C153.742 72.489 153.343 72.5425 152.945 72.5271C152.633 72.5331 152.321 72.504 152.016 72.4404C151.812 72.3961 151.615 72.3277 151.427 72.2364C151.269 72.1794 151.122 72.0929 150.996 71.9814C150.895 71.8776 150.808 71.761 150.737 71.6346C150.55 71.3008 150.46 70.9208 150.478 70.5381V69.2427C150.474 68.9888 150.522 68.7367 150.621 68.5029C150.72 68.2692 150.867 68.059 151.052 67.8861C151.225 67.712 151.431 67.5741 151.657 67.4805C151.884 67.3868 152.126 67.3392 152.371 67.3404H154.553C154.815 67.3401 155.075 67.3005 155.325 67.2231C155.57 67.1555 155.809 67.0686 156.04 66.963C156.315 66.8481 156.561 66.674 156.761 66.453C157.151 66.0976 157.45 65.6534 157.634 65.1576C157.752 64.8039 157.815 64.4341 157.822 64.0611V62.679C157.809 62.3736 157.77 62.0698 157.705 61.7712C157.61 61.336 157.404 60.9334 157.106 60.6033" fill="#1D4283"/>
<path d="M167.409 64.5405V70.7982C167.408 71.0039 167.37 71.2076 167.298 71.4C167.215 71.6223 167.081 71.8217 166.907 71.9814C166.692 72.1734 166.437 72.3146 166.161 72.3945C165.776 72.5126 165.375 72.5677 164.973 72.5577C164.58 72.5668 164.187 72.5117 163.811 72.3945C163.536 72.3114 163.282 72.1706 163.065 71.9814C162.887 71.8128 162.75 71.6051 162.664 71.3745C162.575 71.1425 162.522 70.8983 162.507 70.6503V64.5303C162.496 64.214 162.569 63.9005 162.72 63.6225C162.849 63.404 163.008 63.2049 163.192 63.0309C163.387 62.8531 163.61 62.7084 163.852 62.6025C164.161 62.4852 164.486 62.373 164.831 62.2557L165.76 61.9395C166.095 61.8222 166.404 61.7151 166.694 61.6233C166.851 61.5809 167.001 61.5119 167.135 61.4193C167.211 61.3669 167.274 61.2988 167.322 61.2196C167.369 61.1404 167.399 61.052 167.409 60.9603V64.5405ZM167.409 57.2526V57.7983C167.414 58.0078 167.371 58.2156 167.282 58.4052C167.2 58.5702 167.098 58.7244 166.978 58.8642C166.879 58.9856 166.758 59.0876 166.623 59.1651L166.323 59.3232C166.242 59.3232 166.054 59.4099 165.75 59.5272L164.684 59.9148L163.425 60.3636L162.248 60.7665C161.578 60.9886 161.006 61.4375 160.629 62.0364C160.253 62.6305 160.058 63.3216 160.066 64.0254V64.6884H160.096V70.5381H160.066V71.2317C160.063 71.6964 160.156 72.1566 160.34 72.5832C160.533 73.0218 160.833 73.4043 161.213 73.695C161.67 74.0371 162.186 74.2913 162.735 74.4447C163.46 74.64 164.208 74.731 164.958 74.715C166.623 74.715 167.846 74.3835 168.627 73.7205C169.001 73.4227 169.303 73.0445 169.512 72.6138C169.721 72.1831 169.831 71.7109 169.835 71.2317V53.55H167.394L167.409 57.2526Z" fill="#1D4283"/>
<path d="M180 70.38C180.037 70.959 179.856 71.531 179.492 71.9814C179.147 72.3537 178.477 72.5424 177.538 72.5424C176.599 72.5424 175.96 72.3639 175.62 72.0069C175.244 71.5528 175.062 70.9683 175.112 70.38C175.1 70.0635 175.174 69.7497 175.326 69.4722C175.453 69.2514 175.614 69.0519 175.803 68.8806C176 68.7146 176.22 68.5789 176.457 68.4777C176.767 68.3604 177.092 68.2482 177.437 68.1309C177.782 68.0136 178.03 67.9269 178.365 67.7994L179.299 67.4679C179.451 67.4203 179.596 67.3534 179.731 67.269C179.806 67.221 179.87 67.1576 179.919 67.0829C179.968 67.0082 180.001 66.9238 180.015 66.8355L180 70.38ZM181.233 60.18C180.451 59.5 179.218 59.1685 177.533 59.1855C176.788 59.1709 176.045 59.2636 175.326 59.4609C174.775 59.6118 174.259 59.8662 173.803 60.2106C173.422 60.499 173.12 60.8797 172.925 61.3173C172.743 61.746 172.652 62.2079 172.656 62.6739V63.3675H175.087C175.075 62.8448 175.256 62.3362 175.594 61.9395C175.929 61.5468 176.574 61.3479 177.528 61.3479C177.931 61.3365 178.334 61.3898 178.721 61.506C179 61.5925 179.259 61.7348 179.482 61.9242C179.656 62.078 179.794 62.2699 179.883 62.4852C179.956 62.6739 179.993 62.8744 179.995 63.0768V63.6276C180 63.8354 179.956 64.0416 179.868 64.2294C179.785 64.3947 179.685 64.5504 179.568 64.6935C179.466 64.814 179.344 64.9158 179.208 64.9944L178.908 65.1525C178.827 65.1525 178.639 65.2392 178.335 65.3565L177.259 65.7441L175.98 66.1878C175.539 66.3459 175.148 66.4785 174.803 66.5958C174.145 66.8227 173.585 67.2691 173.214 67.8606C172.841 68.4555 172.647 69.1463 172.656 69.8496V71.2062C172.662 71.5921 172.724 71.9752 172.839 72.3435C172.981 72.7795 173.233 73.1713 173.57 73.4808C174.003 73.8687 174.511 74.1637 175.062 74.3478C176.674 74.8101 178.382 74.8101 179.995 74.3478C180.546 74.1662 181.055 73.8709 181.487 73.4808C181.828 73.1748 182.08 72.7818 182.217 72.3435C182.336 71.9759 182.399 71.5926 182.405 71.2062V62.6688C182.412 62.1902 182.31 61.7164 182.106 61.2839C181.902 60.8515 181.601 60.472 181.228 60.1749" fill="#1D4283"/>
<path d="M194.413 62.0058C194.044 61.4124 193.483 60.9642 192.825 60.7359L191.632 60.333L190.353 59.8893L189.293 59.4966C188.988 59.3844 188.785 59.3181 188.719 59.2977L188.42 59.1396C188.282 59.0604 188.16 58.9567 188.059 58.8336C187.942 58.6931 187.841 58.5391 187.76 58.3746C187.671 58.185 187.628 57.9772 187.633 57.7677V53.55H185.238V74.46H187.648V60.9399C187.659 61.0328 187.69 61.1221 187.739 61.2015C187.788 61.2808 187.854 61.3483 187.932 61.3989C188.066 61.4866 188.211 61.5553 188.364 61.6029C188.668 61.6998 188.983 61.8018 189.308 61.9191C189.633 62.0364 189.942 62.1384 190.226 62.2353C190.511 62.3322 190.896 62.4648 191.201 62.5821C191.456 62.6825 191.69 62.8295 191.891 63.0156C192.076 63.1852 192.23 63.3853 192.348 63.6072C192.493 63.8867 192.563 64.1998 192.551 64.515V74.46H194.987V63.9948C194.996 63.2916 194.802 62.6007 194.428 62.0058" fill="#1D4283"/>
<path d="M194.966 27.285H192.555V48.1797H194.966V27.285Z" fill="#1D4283"/>
<path d="M158.68 27.285H156.269V48.1797H158.68V27.285Z" fill="#1D4283"/>
<path d="M185.237 44.2323C185.234 44.4213 185.21 44.6095 185.166 44.7933C185.106 45.0102 184.993 45.2085 184.836 45.3696C184.629 45.5751 184.38 45.7318 184.105 45.8286C183.704 45.9683 183.281 46.0323 182.857 46.0173H169.134C168.71 46.0331 168.287 45.9691 167.886 45.8286C167.611 45.7318 167.362 45.5751 167.155 45.3696C166.995 45.2113 166.881 45.012 166.825 44.7933C166.778 44.61 166.754 44.4215 166.754 44.2323V32.9052H164.313V50.1381C164.311 50.3296 164.284 50.52 164.232 50.7042C164.163 50.9197 164.038 51.1132 163.871 51.2652C163.649 51.462 163.391 51.6128 163.11 51.7089C162.685 51.8509 162.238 51.9148 161.791 51.8976L161.847 54.06C162.765 54.0992 163.682 53.9571 164.546 53.6418C165.105 53.4188 165.605 53.0698 166.008 52.6218C166.299 52.3081 166.507 51.9257 166.612 51.51C166.675 51.2061 166.713 50.8972 166.724 50.5869V47.8431C167.479 48.0793 168.267 48.1912 169.058 48.1746H182.806C183.725 48.2133 184.642 48.0712 185.506 47.7564C186.066 47.5353 186.566 47.1861 186.968 46.7364C187.264 46.4046 187.472 46.0028 187.572 45.5685C187.636 45.2699 187.674 44.966 187.683 44.6607V27.285H185.237V44.2323Z" fill="#1D4283"/>
<path d="M147.977 44.2322C147.977 44.4215 147.953 44.61 147.906 44.7932C147.85 45.012 147.736 45.2112 147.576 45.3695C147.369 45.575 147.119 45.7318 146.845 45.8285C146.446 45.9688 146.024 46.0328 145.602 46.0172H131.321C131.349 45.9565 131.373 45.8933 131.392 45.8285C131.51 45.461 131.574 45.0776 131.579 44.6912V36.1589C131.582 35.6942 131.489 35.234 131.305 34.8074C131.113 34.3672 130.81 33.9843 130.427 33.6956C129.971 33.3524 129.454 33.0982 128.905 32.9459C128.184 32.7503 127.439 32.6593 126.692 32.6756C124.992 32.6756 123.754 33.002 122.982 33.6956C122.613 33.9943 122.316 34.3737 122.115 34.805C121.914 35.2363 121.813 35.7081 121.82 36.1844V36.878H124.226V36.5669C124.228 36.3642 124.268 36.1637 124.342 35.9753C124.428 35.7566 124.566 35.5622 124.743 35.4092C124.965 35.2182 125.224 35.0773 125.505 34.9961C125.889 34.878 126.29 34.8229 126.692 34.8329C127.651 34.8329 128.296 35.0318 128.631 35.4245C128.969 35.8217 129.149 36.3301 129.138 36.8525V43.8599C129.189 44.4498 129.007 45.036 128.631 45.4919C128.286 45.8438 127.646 46.0019 126.707 46.0019L121.292 45.9611V48.1796H145.52C146.439 48.2184 147.356 48.0763 148.22 47.7614C148.779 47.5391 149.279 47.19 149.682 46.7414C149.98 46.4114 150.186 46.0087 150.281 45.5735C150.346 45.275 150.385 44.9712 150.397 44.6657V32.8847H147.956L147.977 44.2322Z" fill="#1D4283"/>
<path d="M149.053 30.3195C148.992 30.2299 148.965 30.1213 148.977 30.0135V28.9935C148.972 28.9006 149.003 28.8094 149.063 28.7385C149.063 28.7385 149.134 28.662 149.449 28.662C149.545 28.6563 149.641 28.6684 149.733 28.6977C149.783 28.7093 149.83 28.7319 149.87 28.764C149.888 28.7818 149.904 28.8025 149.916 28.8252C149.92 28.8505 149.92 28.8764 149.916 28.9017V29.3148H151.337V28.7946C151.337 28.5922 151.292 28.3924 151.204 28.2104C151.116 28.0283 150.988 27.8688 150.829 27.744C150.423 27.4429 149.922 27.2998 149.418 27.3411C149.146 27.3367 148.874 27.3711 148.611 27.4431C148.393 27.5046 148.188 27.6067 148.007 27.744C147.843 27.8808 147.714 28.0558 147.632 28.254C147.555 28.4327 147.515 28.6253 147.515 28.8201V30.3093C147.513 30.3466 147.513 30.3841 147.515 30.4215H146.759V30.7428V31.059V31.4415V31.7628H151.458V30.3705L149.388 30.396C149.251 30.4113 149.113 30.3846 148.992 30.3195" fill="#1D4283"/>
<path d="M116.049 44.37C116.048 44.5598 116.021 44.7486 115.968 44.9309C115.9 45.1485 115.776 45.344 115.608 45.497C115.384 45.6921 115.126 45.8427 114.847 45.9408C114.422 46.0831 113.975 46.147 113.527 46.1294C113.103 46.1449 112.679 46.081 112.279 45.9408C112.004 45.844 111.755 45.6872 111.548 45.4817C111.388 45.3172 111.274 45.1131 111.218 44.8901C111.176 44.7197 111.15 44.5454 111.142 44.37V36.72C111.147 36.5361 111.171 36.3532 111.213 36.1743C111.269 35.9513 111.383 35.7472 111.543 35.5827C111.749 35.3772 111.999 35.2204 112.273 35.1237C112.674 34.9835 113.098 34.9195 113.522 34.935C113.969 34.9174 114.417 34.9813 114.841 35.1237C115.122 35.2197 115.38 35.3705 115.603 35.5674C115.77 35.7193 115.894 35.9128 115.963 36.1284C116.015 36.3125 116.043 36.5029 116.044 36.6945L116.049 44.37ZM117.775 34.17C117.37 33.7218 116.868 33.3729 116.308 33.15C114.554 32.5923 112.672 32.5923 110.918 33.15C110.36 33.373 109.86 33.7219 109.457 34.17C109.159 34.5004 108.951 34.9027 108.853 35.3379C108.788 35.6364 108.749 35.9402 108.736 36.2457V44.8086C108.749 45.114 108.788 45.4178 108.853 45.7163C108.952 46.1511 109.16 46.5532 109.457 46.8842C109.863 47.323 110.362 47.6631 110.918 47.8787C112.672 48.4364 114.554 48.4364 116.308 47.8787C116.866 47.6632 117.367 47.3231 117.775 46.8842C118.068 46.5572 118.274 46.1606 118.374 45.7316C118.44 45.4282 118.48 45.1192 118.49 44.8086V36.2763C118.48 35.9656 118.44 35.6566 118.374 35.3532C118.276 34.9234 118.07 34.5263 117.775 34.2006" fill="#1D4283"/>
<path d="M116.74 28.611H114.304V31.5231H116.74V28.611Z" fill="#1D4283"/>
<path d="M112.899 28.611H110.458V31.5231H112.899V28.611Z" fill="#1D4283"/>
<path d="M69.6744 51.3774C69.6744 51.255 69.6744 51.1326 69.6744 51.0051C69.6744 50.8776 69.6744 50.7552 69.6744 50.6328L69.7201 50.1687C69.9211 48.6882 70.6485 47.3309 71.768 46.3475C72.8874 45.3641 74.3232 44.8211 75.8101 44.8188H75.9065C77.1197 44.7997 78.3003 44.4207 79.2999 43.7294C80.2995 43.0382 81.0735 42.0655 81.5247 40.9335C81.9758 39.8016 82.0841 38.5609 81.8358 37.3673C81.5875 36.1737 80.9937 35.0805 80.129 34.225C79.2644 33.3695 78.1674 32.7899 76.976 32.5589C75.7846 32.328 74.5518 32.456 73.4325 32.927C72.3133 33.3979 71.3575 34.1907 70.6852 35.2059C70.013 36.221 69.6542 37.4131 69.6541 38.6325C69.6081 40.2431 68.9391 41.7723 67.7891 42.8952C66.6392 44.0181 65.099 44.6462 63.4956 44.6462C61.8922 44.6462 60.3519 44.0181 59.202 42.8952C58.0521 41.7723 57.3831 40.2431 57.3371 38.6325C57.291 37.0219 56.622 35.4927 55.4721 34.3698C54.3222 33.2469 52.7819 32.6188 51.1785 32.6188C49.5752 32.6188 48.0349 33.2469 46.885 34.3698C45.7351 35.4927 45.066 37.0219 45.02 38.6325C45.02 40.2732 44.3715 41.8467 43.217 43.0069C42.0625 44.167 40.4967 44.8188 38.8641 44.8188C37.2314 44.8188 35.6656 44.167 34.5111 43.0069C33.3567 41.8467 32.7081 40.2732 32.7081 38.6325C32.7099 37.4115 32.3525 36.2171 31.6807 35.1997C31.0089 34.1823 30.0527 33.3872 28.9324 32.9145C27.8121 32.4417 26.5777 32.3124 25.3845 32.5428C24.1913 32.7732 23.0925 33.353 22.2263 34.2093C21.3601 35.0656 20.7653 36.1602 20.5165 37.3554C20.2677 38.5506 20.3762 39.793 20.8282 40.9264C21.2803 42.0598 22.0557 43.0335 23.057 43.7252C24.0583 44.4169 25.2408 44.7956 26.4557 44.8137H26.5521C28.0393 44.8149 29.4756 45.3576 30.5953 46.3412C31.715 47.3247 32.4421 48.6827 32.6421 50.1636L32.6878 50.6226C32.6878 50.745 32.6878 50.8674 32.6878 50.9898C32.6878 51.051 32.6878 51.1071 32.6878 51.1683V51C32.6878 51.1275 32.6878 51.2499 32.6878 51.3723L32.6472 51.8364C32.4451 53.3164 31.7174 54.6731 30.5982 55.6563C29.479 56.6396 28.0437 57.1829 26.5572 57.1863H26.4608C25.2475 57.2064 24.0673 57.5864 23.0683 58.2785C22.0692 58.9706 21.296 59.9439 20.8458 61.0762C20.3955 62.2085 20.2883 63.4493 20.5376 64.6427C20.7869 65.836 21.3815 66.9288 22.2469 67.7835C23.1122 68.6383 24.2096 69.2171 25.4012 69.447C26.5929 69.677 27.8255 69.548 28.9444 69.0761C30.0633 68.6043 31.0184 67.8106 31.6899 66.795C32.3613 65.7793 32.7191 64.5869 32.7182 63.3675C32.7182 62.5551 32.8775 61.7507 33.1868 61.0001C33.4962 60.2496 33.9496 59.5676 34.5213 58.9931C35.0929 58.4187 35.7715 57.963 36.5184 57.6521C37.2653 57.3412 38.0658 57.1812 38.8742 57.1812C39.6826 57.1812 40.4831 57.3412 41.23 57.6521C41.9769 57.963 42.6555 58.4187 43.2271 58.9931C43.7988 59.5676 44.2522 60.2496 44.5616 61.0001C44.871 61.7507 45.0302 62.5551 45.0302 63.3675C45.0293 64.5881 45.3875 65.7817 46.0597 66.7984C46.7319 67.815 47.6882 68.6093 48.8083 69.0814C49.9283 69.5535 51.1623 69.6824 52.3551 69.4518C53.5478 69.2212 54.6461 68.6415 55.512 67.7855C56.3778 66.9295 56.9726 65.8354 57.2215 64.6407C57.4704 63.446 57.3624 62.204 56.911 61.0708C56.4596 59.9376 55.6849 58.9638 54.6844 58.2718C53.6839 57.5797 52.5021 57.2003 51.2877 57.1812H51.1912C49.7041 57.18 48.2677 56.6374 47.148 55.6538C46.0284 54.6702 45.3012 53.3122 45.1012 51.8313L45.0556 51.3672C45.0556 51.2448 45.0556 51.1224 45.0556 50.9949V51.1734C45.0556 51.1122 45.0556 51.051 45.0556 50.9949C45.0556 50.8725 45.0556 50.745 45.0556 50.6226L45.1012 50.1636C45.3092 48.6893 46.0398 47.34 47.1587 46.3638C48.2776 45.3876 49.7095 44.8501 51.1912 44.8501C52.673 44.8501 54.1049 45.3876 55.2238 46.3638C56.3427 47.34 57.0732 48.6893 57.2812 50.1636L57.3218 50.6226C57.3218 50.745 57.3218 50.8674 57.3218 50.9949C57.3218 50.9949 57.3218 51.0408 57.3218 51.0663C57.3218 51.2499 57.3218 51.4386 57.3218 51.6222C57.3218 51.7191 57.3523 51.816 57.3675 51.9078C57.3827 51.9996 57.3675 52.1271 57.4132 52.2291C57.4589 52.3311 57.4741 52.4586 57.4995 52.5708C57.5248 52.683 57.5401 52.7391 57.5654 52.8207C57.5908 52.9023 57.6517 53.0655 57.6974 53.1828C57.7431 53.3001 57.7431 53.3205 57.7684 53.3868C57.7938 53.4531 57.8902 53.6418 57.9511 53.7744C57.9511 53.8203 57.9968 53.8713 58.0222 53.9172C58.0983 54.0549 58.1795 54.1875 58.2607 54.3201C58.2607 54.3558 58.3013 54.3915 58.3267 54.4221C58.4231 54.5649 58.5246 54.7077 58.6312 54.8403L58.6718 54.8964C58.7885 55.0392 58.9154 55.1769 59.0423 55.3095C60.1719 56.4654 61.7085 57.1285 63.3205 57.1557H63.4321C64.241 57.155 65.042 57.3146 65.7895 57.6251C66.537 57.9357 67.2162 58.3913 67.7883 58.9658C68.3605 59.5403 68.8144 60.2225 69.1241 60.9734C69.4338 61.7243 69.5932 62.5292 69.5932 63.342C69.5913 64.563 69.9488 65.7574 70.6206 66.7748C71.2924 67.7922 72.2486 68.5873 73.3689 69.06C74.4892 69.5328 75.7235 69.6621 76.9168 69.4317C78.11 69.2013 79.2088 68.6215 80.075 67.7652C80.9411 66.9089 81.536 65.8143 81.7848 64.6191C82.0335 63.424 81.9251 62.1815 81.473 61.0481C81.021 59.9148 80.2456 58.941 79.2443 58.2493C78.243 57.5576 77.0605 57.1789 75.8456 57.1608H75.7492C74.2623 57.1585 72.8265 56.6155 71.7071 55.6321C70.5876 54.6487 69.8602 53.2914 69.6592 51.8109L69.6744 51.3774ZM32.7132 50.8266C32.7132 50.8776 32.7132 50.9337 32.7132 50.9847V50.8266ZM45.0251 50.9949C45.0276 50.9661 45.0276 50.9371 45.0251 50.9082V50.8266V50.9949ZM69.649 51.1836C69.649 51.1275 69.649 51.0765 69.649 51.0204V51.1785V51.1836ZM69.649 51.0051C69.649 50.949 69.649 50.8929 69.649 50.8368V51.0051ZM57.3472 50.8266C57.3446 50.8691 57.3446 50.9116 57.3472 50.9541C57.3472 50.9541 57.3472 50.9541 57.3472 50.9949V50.8266Z" fill="#1D4283"/>
<path d="M43.2588 30.6C44.1222 29.7309 44.7098 28.624 44.9475 27.4193C45.1851 26.2147 45.0621 24.9662 44.5939 23.8318C44.1257 22.6974 43.3335 21.7279 42.3172 21.0458C41.3009 20.3637 40.1062 19.9996 38.8841 19.9996C37.662 19.9996 36.4673 20.3637 35.451 21.0458C34.4348 21.7279 33.6425 22.6974 33.1743 23.8318C32.7061 24.9662 32.5831 26.2147 32.8208 27.4193C33.0584 28.624 33.6461 29.7309 34.5095 30.6C35.6694 31.7645 37.242 32.4186 38.8816 32.4186C40.5212 32.4186 42.0937 31.7645 43.2537 30.6" fill="#4B82BC"/>
<path d="M55.5561 18.1815C56.4203 17.3126 57.0086 16.2058 57.2469 15.0009C57.4851 13.796 57.3625 12.5472 56.8945 11.4124C56.4266 10.2775 55.6343 9.30759 54.6178 8.62518C53.6014 7.94278 52.4064 7.57855 51.184 7.57855C49.9616 7.57855 48.7667 7.94278 47.7502 8.62518C46.7338 9.30759 45.9415 10.2775 45.4735 11.4124C45.0056 12.5472 44.883 13.796 45.1212 15.0009C45.3594 16.2058 45.9478 17.3126 46.8119 18.1815C47.386 18.7587 48.0675 19.2166 48.8177 19.529C49.5679 19.8414 50.372 20.0022 51.184 20.0022C51.9961 20.0022 52.8002 19.8414 53.5503 19.529C54.3005 19.2166 54.9821 18.7587 55.5561 18.1815Z" fill="#1D4283"/>
<path d="M59.2356 21.8331C58.3697 22.7023 57.7799 23.81 57.5406 25.0161C57.3014 26.2223 57.4235 27.4726 57.8915 28.609C58.3596 29.7454 59.1525 30.7167 60.17 31.4002C61.1875 32.0836 62.3839 32.4484 63.6077 32.4484C64.8315 32.4484 66.0279 32.0836 67.0454 31.4002C68.0629 30.7167 68.8558 29.7454 69.3238 28.609C69.7919 27.4726 69.914 26.2223 69.6748 25.0161C69.4355 23.81 68.8457 22.7023 67.9798 21.8331C67.4058 21.2559 66.7242 20.798 65.974 20.4856C65.2238 20.1732 64.4197 20.0125 63.6077 20.0125C62.7957 20.0125 61.9916 20.1732 61.2414 20.4856C60.4912 20.798 59.8096 21.2559 59.2356 21.8331Z" fill="#4B82BC"/>
<path d="M83.7833 46.4814C82.9182 47.3508 82.3291 48.4586 82.0904 49.6645C81.8517 50.8705 81.9743 52.1205 82.4425 53.2564C82.9108 54.3924 83.7037 55.3633 84.721 56.0464C85.7384 56.7295 86.9344 57.0941 88.158 57.0941C89.3815 57.0941 90.5776 56.7295 91.5949 56.0464C92.6123 55.3633 93.4052 54.3924 93.8734 53.2564C94.3417 52.1205 94.4642 50.8705 94.2256 49.6645C93.9869 48.4586 93.3978 47.3508 92.5326 46.4814C91.3718 45.3166 89.7984 44.6624 88.158 44.6624C86.5176 44.6624 84.9442 45.3166 83.7833 46.4814Z" fill="#4B82BC"/>
<path d="M59.2054 71.4C58.3412 72.2689 57.7529 73.3757 57.5146 74.5806C57.2764 75.7855 57.399 77.0343 57.867 78.1691C58.3349 79.304 59.1272 80.2739 60.1437 80.9563C61.1601 81.6387 62.3551 82.003 63.5775 82.003C64.7999 82.003 65.9948 81.6387 67.0113 80.9563C68.0277 80.2739 68.82 79.304 69.2879 78.1691C69.7559 77.0343 69.8785 75.7855 69.6403 74.5806C69.4021 73.3757 68.8137 72.2689 67.9496 71.4C67.3759 70.8222 66.6944 70.3638 65.9442 70.051C65.1939 69.7382 64.3897 69.5772 63.5775 69.5772C62.7652 69.5772 61.961 69.7382 61.2108 70.051C60.4605 70.3638 59.7791 70.8222 59.2054 71.4Z" fill="#4B82BC"/>
<path d="M46.8119 83.8185C45.9478 84.6874 45.3594 85.7942 45.1212 86.9991C44.883 88.204 45.0056 89.4528 45.4735 90.5877C45.9415 91.7225 46.7338 92.6925 47.7502 93.3749C48.7667 94.0573 49.9616 94.4215 51.184 94.4215C52.4064 94.4215 53.6014 94.0573 54.6178 93.3749C55.6343 92.6925 56.4266 91.7225 56.8945 90.5877C57.3625 89.4528 57.4851 88.204 57.2469 86.9991C57.0086 85.7942 56.4203 84.6874 55.5561 83.8185C54.9821 83.2413 54.3005 82.7835 53.5503 82.4711C52.8002 82.1587 51.9961 81.9979 51.184 81.9979C50.372 81.9979 49.5679 82.1587 48.8177 82.4711C48.0675 82.7835 47.386 83.2413 46.8119 83.8185Z" fill="#1D4283"/>
<path d="M18.5851 55.2687C19.4492 54.3999 20.0376 53.293 20.2758 52.0881C20.514 50.8833 20.3914 49.6345 19.9235 48.4996C19.4555 47.3648 18.6632 46.3948 17.6468 45.7124C16.6303 45.03 15.4354 44.6658 14.213 44.6658C12.9906 44.6658 11.7956 45.03 10.7792 45.7124C9.76272 46.3948 8.97044 47.3648 8.50248 48.4996C8.03453 49.6345 7.91191 50.8833 8.15014 52.0881C8.38836 53.293 8.97673 54.3999 9.84086 55.2687C10.4149 55.8459 11.0965 56.3038 11.8467 56.6162C12.5968 56.9286 13.4009 57.0894 14.213 57.0894C15.025 57.0894 15.8291 56.9286 16.5793 56.6162C17.3295 56.3038 18.011 55.8459 18.5851 55.2687Z" fill="#4B82BC"/>
<path d="M34.5105 71.4C33.6464 72.2689 33.058 73.3757 32.8198 74.5806C32.5816 75.7855 32.7042 77.0343 33.1722 78.1691C33.6401 79.304 34.4324 80.2739 35.4488 80.9563C36.4653 81.6387 37.6602 82.0029 38.8826 82.0029C40.1051 82.0029 41.3 81.6387 42.3165 80.9563C43.3329 80.2739 44.1252 79.304 44.5931 78.1691C45.0611 77.0343 45.1837 75.7855 44.9455 74.5806C44.7073 73.3757 44.1189 72.2689 43.2548 71.4C42.6807 70.8228 41.9991 70.3649 41.249 70.0525C40.4988 69.7401 39.6947 69.5793 38.8826 69.5793C38.0706 69.5793 37.2665 69.7401 36.5163 70.0525C35.7662 70.3649 35.0846 70.8228 34.5105 71.4Z" fill="#4B82BC"/>
</svg>
