<svg width="27" height="27" fill="none" xmlns="http://www.w3.org/2000/svg"><path d="M13.5 27a13.412 13.412 0 0 1-9.546-3.954A13.412 13.412 0 0 1 0 13.5c0-3.606 1.404-6.996 3.954-9.546A13.412 13.412 0 0 1 13.5 0c3.606 0 6.996 1.404 9.546 3.954A13.412 13.412 0 0 1 27 13.5c0 3.606-1.404 6.996-3.954 9.546A13.412 13.412 0 0 1 13.5 27z" fill="#4B82BC"/><path d="M23.046 3.954A13.412 13.412 0 0 0 13.5 0v27c3.606 0 6.996-1.404 9.546-3.954A13.412 13.412 0 0 0 27 13.5c0-3.606-1.404-6.996-3.954-9.546z" fill="#4B82BC"/><path d="M15.873 19.564v-7.91h-5.8v1.582h1.054v6.328H10.02v1.582h6.855v-1.582h-1.002zM13.5 10.072A2.376 2.376 0 0 0 15.873 7.7 2.376 2.376 0 0 0 13.5 5.326 2.376 2.376 0 0 0 11.127 7.7a2.376 2.376 0 0 0 2.373 2.373z" fill="#E4F7FF"/><path d="M13.5 10.072A2.376 2.376 0 0 0 15.873 7.7 2.376 2.376 0 0 0 13.5 5.326v4.746zM15.873 19.564v-7.91H13.5v9.492h3.375v-1.582h-1.002z" fill="#CBEDFD"/></svg>