<svg width="83" height="88" fill="none" xmlns="http://www.w3.org/2000/svg"><path d="M58.43 50.802C65.46 45.388 69.492 37.2 69.492 28.34A28.291 28.291 0 0 0 59.37 6.631a1.289 1.289 0 0 0-1.658 1.975 25.719 25.719 0 0 1 9.2 19.733c0 8.055-3.665 15.498-10.056 20.42-1.752 1.35-2.757 3.376-2.757 5.559v2.63h-5.964v-3.03a2.667 2.667 0 0 0-2.664-2.665h-.183v-3.117h1.558A4.141 4.141 0 0 0 50.984 44a4.141 4.141 0 0 0-4.137-4.136A4.14 4.14 0 0 0 42.711 44v1.558h-3.117V44a4.141 4.141 0 0 0-4.136-4.136A4.141 4.141 0 0 0 31.32 44a4.141 4.141 0 0 0 4.137 4.136h1.558v3.117h-.183a2.667 2.667 0 0 0-2.664 2.664v3.03h-5.964v-2.629c0-2.183-1.006-4.21-2.76-5.561-6.477-4.99-10.14-12.537-10.052-20.704.076-7.02 2.893-13.537 7.93-18.353C28.37 4.877 35.018 2.352 42.05 2.594A25.452 25.452 0 0 1 53.51 5.73a1.29 1.29 0 1 0 1.239-2.262A28.005 28.005 0 0 0 42.138.017c-7.724-.262-15.045 2.513-20.596 7.82-5.544 5.3-8.643 12.469-8.727 20.188-.05 4.532.94 8.872 2.94 12.9a28.592 28.592 0 0 0 8.116 9.874c1.116.86 1.756 2.142 1.756 3.52v2.836a4.143 4.143 0 0 0-2.848 3.93 4.143 4.143 0 0 0 2.848 3.93V76.89a5.42 5.42 0 0 0 5.414 5.414h.37C31.936 85.53 34.739 88 38.11 88h6.084c3.37 0 6.174-2.47 6.7-5.695h.37a5.42 5.42 0 0 0 5.414-5.414V65.014a4.143 4.143 0 0 0 2.847-3.93 4.143 4.143 0 0 0-2.847-3.93v-2.836c0-1.377.638-2.659 1.751-3.516zM45.289 44c0-.86.699-1.558 1.558-1.558.86 0 1.559.699 1.559 1.558a1.56 1.56 0 0 1-1.559 1.558H45.29V44zm-9.831 1.558c-.86 0-1.558-.699-1.558-1.558 0-.86.699-1.558 1.558-1.558.86 0 1.558.699 1.558 1.558v1.558h-1.558zm4.136 2.578h3.117v3.117h-3.117v-3.117zm-2.847 5.781c0-.047.039-.086.086-.086h8.64c.047 0 .085.039.085.086v3.03h-8.811v-3.03zM54.1 68.337H36.477a1.289 1.289 0 1 0 0 2.579H54.1v3.116H28.205v-3.116h3.116a1.289 1.289 0 1 0 0-2.578h-3.116V65.22H54.1v3.117zm-9.905 17.085H38.11a4.218 4.218 0 0 1-4.066-3.117h14.218a4.22 4.22 0 0 1-4.067 3.117zm7.07-5.695H31.04a2.84 2.84 0 0 1-2.836-2.836v-.28H54.1v.28a2.839 2.839 0 0 1-2.836 2.836zm4.124-17.084H26.916a1.56 1.56 0 0 1-1.559-1.559c0-.859.7-1.558 1.559-1.558h28.473c.86 0 1.559.7 1.559 1.558a1.56 1.56 0 0 1-1.559 1.559zM8.273 28.34c0-.712-.577-1.29-1.289-1.29H1.289a1.289 1.289 0 1 0 0 2.578h5.695a1.29 1.29 0 0 0 1.289-1.289zM10.917 44.307l-4.932 2.848a1.29 1.29 0 0 0 1.289 2.232l4.932-2.847a1.289 1.289 0 0 0-1.29-2.233zM76.32 47.155l-4.932-2.848A1.288 1.288 0 1 0 70.1 46.54l4.932 2.847a1.289 1.289 0 1 0 1.29-2.233zM81.016 27.05H75.32a1.29 1.29 0 0 0 0 2.578h5.695a1.289 1.289 0 1 0 0-2.578zM70.745 12.544c.218 0 .44-.055.643-.173l4.932-2.847a1.29 1.29 0 0 0-1.29-2.232l-4.93 2.847a1.289 1.289 0 0 0 .645 2.405zM5.985 9.524l4.932 2.847a1.289 1.289 0 1 0 1.29-2.233L7.273 7.292a1.289 1.289 0 1 0-1.289 2.233z" fill="#1D4283"/><path d="M41.152 17.084a4.141 4.141 0 0 0-4.136 4.137 4.141 4.141 0 0 0 4.136 4.136 4.141 4.141 0 0 0 4.137-4.136 4.141 4.141 0 0 0-4.137-4.137zm0 5.695c-.859 0-1.558-.699-1.558-1.558 0-.86.7-1.558 1.558-1.558.86 0 1.559.699 1.559 1.558a1.56 1.56 0 0 1-1.559 1.558z" fill="#1D4283"/><path d="m52.888 16.42-.042-.102.92-1.534a2.709 2.709 0 0 0-.407-3.314l-2.455-2.455a2.71 2.71 0 0 0-3.314-.408l-1.535.92-.1-.04-.435-1.737a2.709 2.709 0 0 0-2.631-2.055h-3.472c-1.247 0-2.33.845-2.632 2.055l-.434 1.736-.1.042-1.536-.921a2.71 2.71 0 0 0-3.314.408l-2.454 2.455a2.709 2.709 0 0 0-.408 3.314l.92 1.534a9.718 9.718 0 0 0-.04.101l-1.738.434a2.709 2.709 0 0 0-2.054 2.632v3.472c0 1.247.845 2.329 2.055 2.631l1.736.435.042.1-.921 1.535a2.709 2.709 0 0 0 .408 3.314l2.454 2.455a2.71 2.71 0 0 0 3.314.408l1.535-.92.101.04.434 1.737a2.709 2.709 0 0 0 2.632 2.055h3.472c1.247 0 2.329-.845 2.631-2.055l.434-1.736.101-.042 1.535.92a2.71 2.71 0 0 0 3.314-.407l2.455-2.455a2.71 2.71 0 0 0 .407-3.314l-.92-1.535.041-.1 1.737-.435a2.71 2.71 0 0 0 2.054-2.631v-3.472c0-1.247-.844-2.33-2.054-2.632l-1.736-.434zm1.213 6.537a.134.134 0 0 1-.102.13l-2.392.598a1.29 1.29 0 0 0-.906.83c-.136.394-.293.774-.466 1.128a1.29 1.29 0 0 0 .053 1.229l1.268 2.113a.134.134 0 0 1-.02.164l-2.455 2.455a.135.135 0 0 1-.164.02l-2.113-1.267a1.289 1.289 0 0 0-1.229-.054c-.354.174-.734.33-1.127.466a1.289 1.289 0 0 0-.83.906l-.599 2.392a.134.134 0 0 1-.13.102h-3.472a.134.134 0 0 1-.13-.102l-.599-2.392a1.289 1.289 0 0 0-.83-.906 10.11 10.11 0 0 1-1.128-.466 1.288 1.288 0 0 0-1.228.053l-2.113 1.268a.134.134 0 0 1-.164-.02l-2.455-2.455a.135.135 0 0 1-.02-.165l1.267-2.112c.225-.374.245-.837.054-1.229-.173-.354-.33-.734-.466-1.128a1.29 1.29 0 0 0-.906-.83l-2.392-.598a.134.134 0 0 1-.102-.13v-3.472c0-.062.042-.116.102-.13l2.392-.599a1.29 1.29 0 0 0 .906-.83c.136-.393.293-.773.466-1.127a1.289 1.289 0 0 0-.054-1.229l-1.267-2.113a.134.134 0 0 1 .02-.164l2.455-2.455a.134.134 0 0 1 .164-.02l2.113 1.267a1.29 1.29 0 0 0 1.228.053c.355-.173.735-.33 1.128-.465.412-.142.725-.483.83-.906l.598-2.392a.134.134 0 0 1 .13-.102h3.473c.061 0 .115.042.13.102l.598 2.392c.106.423.418.764.83.906a10.1 10.1 0 0 1 1.128.465 1.29 1.29 0 0 0 1.229-.053l2.112-1.267a.134.134 0 0 1 .165.02l2.454 2.455a.135.135 0 0 1 .02.164l-1.267 2.113a1.289 1.289 0 0 0-.053 1.229c.173.354.33.734.465 1.128.143.412.483.724.906.83l2.392.597c.06.015.102.069.102.13v3.473z" fill="#1D4283"/></svg>