<svg width="27" height="27" fill="none" xmlns="http://www.w3.org/2000/svg"><path d="M18.321 8.274C17.531 3.414 15.67 0 13.503 0s-4.03 3.413-4.819 8.274h9.637zM8.276 13.5c0 1.209.065 2.368.18 3.484h10.088c.115-1.116.18-2.276.18-3.484 0-1.209-.065-2.368-.18-3.484H8.457a34.116 34.116 0 0 0-.18 3.484zm17.679-5.226A13.53 13.53 0 0 0 17.352.566c1.329 1.84 2.243 4.61 2.722 7.708h5.88zM9.648.566A13.521 13.521 0 0 0 1.05 8.274h5.88C7.405 5.177 8.319 2.406 9.648.566zm16.89 9.45h-6.246c.114 1.143.18 2.314.18 3.484s-.066 2.34-.18 3.484h6.24c.3-1.116.468-2.276.468-3.484 0-1.209-.169-2.368-.463-3.484zM6.533 13.5c0-1.17.065-2.34.18-3.484H.467A13.617 13.617 0 0 0 0 13.5c0 1.209.174 2.368.468 3.484h6.24a36.855 36.855 0 0 1-.174-3.484zm2.15 5.226c.79 4.86 2.652 8.274 4.819 8.274s4.029-3.413 4.818-8.274H8.684zm8.674 7.708a13.543 13.543 0 0 0 8.602-7.708h-5.88c-.48 3.097-1.394 5.868-2.722 7.708zM1.05 18.726a13.53 13.53 0 0 0 8.602 7.708c-1.328-1.84-2.243-4.61-2.722-7.708h-5.88z" fill="#1D4283"/></svg>