<svg width="35" height="30" viewBox="0 0 50 38" fill="none" xmlns="http://www.w3.org/2000/svg">
<path d="M45.3987 0.276093H4.60127C2.06416 0.276093 0 2.34016 0 4.88049C0 7.4176 2.06416 9.48176 4.60127 9.48176H45.3987C47.9358 9.48176 50 7.4176 50 4.88049C50 2.34016 47.9358 0.276093 45.3987 0.276093Z" fill="#1D4283"/>
<path d="M45.3987 14.3972H4.60127C2.06416 14.3972 0 16.4612 0 19.0016C0 21.5387 2.06416 23.6028 4.60127 23.6028H45.3987C47.9358 23.6028 50 21.5387 50 19.0016C50 16.4612 47.9358 14.3972 45.3987 14.3972Z" fill="#1D4283"/>
<path d="M45.3987 28.5183H4.60127C2.06416 28.5183 0 30.5824 0 33.1227C0 35.6598 2.06416 37.7239 4.60127 37.7239H45.3987C47.9358 37.7239 50 35.6598 50 33.1227C50 30.5824 47.9358 28.5183 45.3987 28.5183Z" fill="#1D4283"/>
</svg>
