<svg width="91" height="87" fill="none" xmlns="http://www.w3.org/2000/svg"><path d="M42.137.57c-3.541.415-7.102 1.8-9.397 3.68-.653.533-1.642 1.562-2.196 2.294-.554.752-1.464 1.642-1.998 2.018-1.028.692-1.305 1.088-1.127 1.583.138.336.791.573 1.088.375.158-.098.198 0 .118.337-.059.257-.217 1.048-.356 1.76-.197 1.069-.356 1.385-.89 1.84-.771.633-.85 1.167-.277 1.583.416.297.416.316-.692 5.4-3.502 16.044-7.893 30.525-12.84 42.236l-1.127 2.671-2.117.87a78.881 78.881 0 0 0-4.253 1.84c-2.473 1.148-2.512 1.207-3.758 4.827C1.266 76.891 0 83.696 0 86.347V87h91v-.653c0-1.028-.574-5.321-.99-7.517-.474-2.414-1.404-5.46-2.235-7.34l-.613-1.365-2.196-1.028a89.108 89.108 0 0 0-4.292-1.9l-2.117-.87-1.128-2.67c-4.965-11.751-9.14-25.46-12.74-41.801l-1.226-5.52.415-.276c.594-.436.514-.95-.257-1.603-.534-.455-.693-.771-.89-1.84a82.401 82.401 0 0 0-.356-1.76c-.08-.337-.04-.435.118-.337.317.198.95-.04 1.088-.395.178-.475-.178-.97-1.167-1.583-.514-.336-1.325-1.147-1.86-1.88C57.113 1.956 50.13-.34 42.138.57zm6.726.771c4.135.515 7.142 1.82 9.575 4.194.87.831 1.543 1.563 1.483 1.622-.059.06-.534-.04-1.068-.197-7.122-2.177-19.584-2.177-26.706 0-.534.158-1.01.257-1.069.197-.059-.059.614-.79 1.484-1.622 3.007-2.908 7.003-4.293 12.641-4.372 1.088 0 2.75.08 3.66.178zm4.55 6.014c3.363.534 6.647 1.464 7.597 2.157.217.158.455.79.633 1.622.158.771.316 1.582.376 1.84.098.435.098.435-.634.118-5.34-2.334-14.916-3.205-23.264-2.136-2.888.376-6.449 1.246-7.992 1.958-.613.277-1.128.475-1.167.455-.04-.06.316-1.998.613-3.264.257-1.108 4.669-2.394 10.287-3.027 2.473-.277 11.118-.099 13.551.277zm-3.264 4.867c4.49.376 8.15 1.167 10.465 2.275.771.356 1.523.732 1.662.83.118.1.732 2.454 1.325 5.223 2.69 12.364 5.579 22.85 9.1 33.017.91 2.612 3.818 10.11 4.61 11.85l.395.89-.811 1.187c-2.413 3.581-6.944 7.201-12.602 10.03-4.035 2.018-10.682 4.55-10.682 4.075 0-.138.316-1.938.692-3.996 2.137-11.493 3.878-23.244 4.847-32.74.712-7.181 1.385-17.963 1.385-22.572v-2.097l-2.018-.613c-4.412-1.385-7.992-1.9-13.116-1.88-4.985 0-8.526.515-12.898 1.88l-2.038.613v2.097c0 4.61.673 15.391 1.385 22.572 1.009 9.812 2.829 22.097 5.045 33.808.276 1.445.494 2.77.494 2.909 0 .494-6.607-2.018-10.722-4.076-5.678-2.868-10.149-6.429-12.562-10.01l-.811-1.187.396-.89c1.246-2.75 4.015-10.109 5.618-14.916 3.086-9.258 5.658-18.734 8.09-29.95.594-2.77 1.208-5.124 1.326-5.223.139-.1.89-.475 1.682-.851 3.976-1.88 12.404-2.849 19.743-2.255zm-.831 6.35c2.81.237 6.548.95 8.823 1.662l1.602.514v2.315c0 6.41-.613 12.146-1.562 14.916-.752 2.176-1.939 4.016-3.185 4.906l-.574.395-1.405-.89c-2.77-1.8-4.906-2.512-7.596-2.492-2.67 0-5.045.85-7.992 2.828l-.831.574-.574-.395c-3.284-2.335-4.748-8.388-4.768-19.645v-2.492l1.247-.416c5.064-1.642 11.078-2.294 16.815-1.78zm-2.255 24.51c1.503.198 4.886 1.148 5.52 1.544.375.257-1.148 2.255-2.335 3.007-2.948 1.899-6.924 1.82-9.733-.198-1.266-.89-2.493-2.552-2.097-2.81.138-.078 1.088-.435 2.097-.751 1.543-.495 2.453-.693 4.688-.97.119 0 .95.08 1.86.179zm-10.841 9.951c1.543 1.405 4.154 2.75 6.212 3.205 2.196.495 5.42.336 7.438-.356 2.967-1.009 5.302-2.77 7.023-5.282.514-.752.95-1.365.989-1.325.04.04-.99 8.051-1.345 10.425l-.258 1.662-1.82.93c-5.756 2.927-13.511 2.75-18.734-.416l-1.048-.653-.238-1.602c-.118-.87-.455-3.343-.712-5.46a382.04 382.04 0 0 0-.613-4.55c-.099-.613-.02-.534.85.791.535.811 1.544 1.998 2.256 2.631zm1.9 10.802c5.044 1.978 11.611 1.681 16.498-.772l1.543-.772-.08.535c-.059.296-.494 2.928-.988 5.875a849.591 849.591 0 0 1-1.702 9.654c-.455 2.374-.771 4.372-.712 4.431.158.139 3.442-.95 6.766-2.255 8.031-3.165 14.085-7.22 17.448-11.691.613-.831 1.187-1.603 1.266-1.682.06-.099 1.662.495 3.561 1.306 5.262 2.255 4.827 1.978 5.5 3.58.771 1.88 1.503 4.353 1.978 6.647.356 1.8 1.009 6.35 1.009 7.142 0 .376-.851.376-44.709.376-42.81 0-44.709-.02-44.709-.356 0-.693.574-4.926.89-6.667.416-2.156 1.326-5.262 2.097-7.142.673-1.602.238-1.325 5.5-3.58 1.9-.811 3.502-1.405 3.56-1.306.08.08.654.85 1.267 1.682 3.363 4.47 9.436 8.546 17.448 11.691 3.324 1.306 6.608 2.394 6.766 2.255.06-.059-.257-2.057-.712-4.431a849.591 849.591 0 0 1-1.702-9.654c-.494-2.947-.93-5.579-.989-5.875l-.079-.535 1.128.574c.613.297 1.582.752 2.156.97z" fill="#1D4283"/></svg>