<svg width="91" height="91" viewBox="0 0 91 91" fill="none" xmlns="http://www.w3.org/2000/svg">
<g clip-path="url(#clip0)">
<path d="M45.5 0C36.501 0 27.704 2.66853 20.2216 7.66813C12.7391 12.6677 6.90729 19.7739 3.4635 28.0879C0.0197145 36.4019 -0.881337 45.5505 0.87429 54.3766C2.62992 63.2027 6.96337 71.3101 13.3267 77.6733C19.69 84.0366 27.7973 88.3701 36.6234 90.1257C45.4496 91.8813 54.5981 90.9803 62.9121 87.5365C71.2262 84.0927 78.3323 78.2609 83.3319 70.7784C88.3315 63.296 91 54.499 91 45.5C91 33.4326 86.2063 21.8595 77.6734 13.3266C69.1405 4.79374 57.5674 0 45.5 0V0ZM47.3959 3.79167C57.8058 4.25501 67.6653 8.59826 75.0335 15.9665C82.4018 23.3347 86.745 33.1942 87.2084 43.6042H47.3959V3.79167ZM45.5 87.2083C34.4383 87.4597 23.7297 83.3066 15.7301 75.6625C7.73054 68.0185 3.09517 57.5096 2.84377 46.4479C2.59237 35.3862 6.74552 24.6776 14.3896 16.678C22.0336 8.67843 32.5425 4.04307 43.6042 3.79167V45.5C43.6027 45.7495 43.6506 45.9968 43.7449 46.2278C43.8393 46.4588 43.9783 46.6689 44.154 46.846L73.6152 76.2883C65.9428 83.3224 55.9089 87.2196 45.5 87.2083V87.2083ZM76.2884 73.6152L50.069 47.3958H87.2084C86.7623 57.1472 82.8961 66.4301 76.2884 73.6152V73.6152Z" fill="#1D4283"/>
</g>
<defs>
<clipPath id="clip0">
<rect width="91" height="91" fill="white"/>
</clipPath>
</defs>
</svg>
