<svg width="91" height="91" viewBox="0 0 91 91" fill="none" xmlns="http://www.w3.org/2000/svg">
<path d="M73.582 26.438C74.5635 26.438 75.3594 25.6423 75.3594 24.6606V5.33203C75.3594 2.39195 72.9674 0 70.0274 0H5.33203C2.39195 0 0 2.39195 0 5.33203V85.668C0 88.608 2.39195 91 5.33203 91H70.0274C72.9674 91 75.3594 88.608 75.3594 85.668V72.5739C75.3594 71.5923 74.5635 70.7966 73.582 70.7966C72.6006 70.7966 71.8047 71.5923 71.8047 72.5739V85.668C71.8047 86.648 71.0074 87.4453 70.0274 87.4453H5.33203C4.352 87.4453 3.55469 86.648 3.55469 85.668V5.33203C3.55469 4.352 4.352 3.55469 5.33203 3.55469H70.0274C71.0074 3.55469 71.8047 4.352 71.8047 5.33203V24.6606C71.8047 25.6423 72.6006 26.438 73.582 26.438Z" fill="#1D4283"/>
<path d="M37.6798 9.59766C28.6635 9.59766 21.3283 16.9329 21.3283 25.9492C21.3283 30.6267 23.3029 34.851 26.4616 37.8341C26.5208 37.8974 26.5837 37.9573 26.6525 38.0119C29.5622 40.6742 33.4345 42.3006 37.6796 42.3006C41.9248 42.3006 45.7971 40.674 48.7068 38.0119C48.7756 37.9573 48.8385 37.8972 48.8977 37.8341C52.0567 34.851 54.0314 30.6267 54.0314 25.9492C54.0314 16.9329 46.6961 9.59766 37.6798 9.59766ZM37.6798 38.7461C34.7776 38.7461 32.0991 37.7735 29.95 36.1391C31.5121 33.3691 34.4271 31.6367 37.6798 31.6367C40.9325 31.6367 43.8475 33.3691 45.4097 36.1391C43.2603 37.7735 40.582 38.7461 37.6798 38.7461ZM34.8361 25.2383V24.083C34.8361 22.515 36.1118 21.2393 37.6798 21.2393C39.2478 21.2393 40.5236 22.515 40.5236 24.083V25.2383C40.5236 26.8063 39.2478 28.082 37.6798 28.082C36.1118 28.082 34.8361 26.8063 34.8361 25.2383ZM47.9777 33.5355C46.6669 31.5914 44.8503 30.0794 42.7412 29.146C43.5783 28.0641 44.0783 26.7089 44.0783 25.2383V24.083C44.0783 20.5548 41.208 17.6846 37.6798 17.6846C34.1516 17.6846 31.2814 20.5548 31.2814 24.083V25.2383C31.2814 26.7089 31.7813 28.0641 32.6185 29.146C30.5093 30.0794 28.6927 31.5914 27.3819 33.5355C25.8127 31.411 24.8829 28.7871 24.8829 25.9492C24.8829 18.893 30.6236 13.1523 37.6798 13.1523C44.736 13.1523 50.4767 18.893 50.4767 25.9492C50.4767 28.7871 49.547 31.411 47.9777 33.5355Z" fill="#1D4283"/>
<path d="M47.2775 77.8477H37.6798C36.6984 77.8477 35.9025 78.6434 35.9025 79.625C35.9025 80.6066 36.6984 81.4023 37.6798 81.4023H47.2775C48.2589 81.4023 49.0548 80.6066 49.0548 79.625C49.0548 78.6434 48.2589 77.8477 47.2775 77.8477Z" fill="#1D4283"/>
<path d="M47.2775 67.8945H22.0392C21.0578 67.8945 20.2619 68.6902 20.2619 69.6719C20.2619 70.6535 21.0578 71.4492 22.0392 71.4492H47.2775C48.2589 71.4492 49.0548 70.6535 49.0548 69.6719C49.0548 68.6902 48.2589 67.8945 47.2775 67.8945Z" fill="#1D4283"/>
<path d="M47.2775 57.9414H22.0392C21.0578 57.9414 20.2619 58.7371 20.2619 59.7188C20.2619 60.7004 21.0578 61.4961 22.0392 61.4961H47.2775C48.2589 61.4961 49.0548 60.7004 49.0548 59.7188C49.0548 58.7371 48.2589 57.9414 47.2775 57.9414Z" fill="#1D4283"/>
<path d="M15.7046 48.509C15.3742 48.1785 14.9156 47.9883 14.4464 47.9883C13.9788 47.9883 13.5202 48.1785 13.1898 48.509C12.8592 48.8396 12.6691 49.2982 12.6691 49.7656C12.6691 50.2331 12.8591 50.6916 13.1898 51.0222C13.5222 51.3528 13.9788 51.543 14.4464 51.543C14.9156 51.543 15.3724 51.3528 15.7046 51.0222C16.0352 50.6916 16.2255 50.2331 16.2255 49.7656C16.2255 49.2982 16.0354 48.8396 15.7046 48.509Z" fill="#1D4283"/>
<path d="M15.7046 58.4622C15.3724 58.1316 14.9156 57.9414 14.4464 57.9414C13.9788 57.9414 13.5222 58.1316 13.1898 58.4622C12.8592 58.7928 12.6691 59.2513 12.6691 59.7188C12.6691 60.1862 12.8591 60.6447 13.1898 60.9753C13.5222 61.3059 13.9788 61.4961 14.4464 61.4961C14.9156 61.4961 15.3724 61.3059 15.7046 60.9753C16.0352 60.6447 16.2255 60.1862 16.2255 59.7188C16.2255 59.2513 16.0354 58.7928 15.7046 58.4622Z" fill="#1D4283"/>
<path d="M15.7046 68.4153C15.3724 68.0847 14.9156 67.8945 14.4464 67.8945C13.9788 67.8945 13.5222 68.0847 13.1898 68.4153C12.8592 68.7459 12.6691 69.2044 12.6691 69.6719C12.6691 70.1393 12.8591 70.5979 13.1898 70.9285C13.5202 71.259 13.9788 71.4492 14.4464 71.4492C14.9156 71.4492 15.3742 71.259 15.7046 70.9285C16.0352 70.5979 16.2255 70.1393 16.2255 69.6719C16.2255 69.2044 16.0354 68.7459 15.7046 68.4153Z" fill="#1D4283"/>
<path d="M47.2775 47.9883H22.0392C21.0578 47.9883 20.2619 48.784 20.2619 49.7656C20.2619 50.7473 21.0578 51.543 22.0392 51.543H47.2775C48.2589 51.543 49.0548 50.7473 49.0548 49.7656C49.0548 48.784 48.2589 47.9883 47.2775 47.9883Z" fill="#1D4283"/>
<path d="M87.2668 23.1622C85.5402 22.1653 83.5286 21.9005 81.6023 22.4165C79.6763 22.9326 78.0664 24.1679 77.0697 25.8945L54.7032 64.6341C54.5808 64.8465 54.5033 65.0819 54.4761 65.3256L52.9017 79.4278C52.8235 80.1295 53.168 80.8111 53.7794 81.1642C54.0554 81.3235 54.362 81.4024 54.6679 81.4024C55.0397 81.4024 55.4101 81.286 55.722 81.0562L67.1475 72.6415C67.345 72.4961 67.5102 72.3115 67.6327 72.0991L89.999 33.3596C92.0571 29.7949 90.8315 25.2204 87.2668 23.1622ZM56.8851 75.7848L57.7073 68.4209L62.8513 71.3908L56.8851 75.7848ZM65.443 68.7824L58.6704 64.8722L76.6189 33.7847L83.3915 37.6949L65.443 68.7824ZM86.9206 31.582L85.1687 34.6165L78.3961 30.7064L80.148 27.6719C80.6702 26.7674 81.5134 26.1204 82.5222 25.8501C83.5314 25.5796 84.585 25.7186 85.4893 26.2408C86.3938 26.763 87.0408 27.6061 87.3111 28.615C87.5814 29.6238 87.4428 30.6776 86.9206 31.582Z" fill="#1D4283"/>
</svg>
