<svg width="88" height="74" viewBox="0 0 88 74" fill="none" xmlns="http://www.w3.org/2000/svg">
<path d="M86.1575 45.4661L83.0997 42.4169C82.0119 41.3305 80.5621 40.732 79.0173 40.732C78.0296 40.732 77.0813 40.9778 76.241 41.4382L70.4787 35.6828L70.7594 35.4025C73.0971 33.0602 73.0962 29.254 70.7592 26.9196C69.9241 26.0829 68.882 25.525 67.7461 25.2902C67.9025 24.7504 67.9848 24.1849 67.9848 23.6062C67.9848 21.9983 67.3602 20.4906 66.2296 19.3647C65.3943 18.528 64.3524 17.9701 63.2165 17.7353C63.3729 17.1954 63.4552 16.6301 63.4552 16.0513C63.4552 14.4432 62.8306 12.9357 61.6982 11.808C60.8429 10.9538 59.7915 10.4131 58.6876 10.1829C59.2782 8.14672 58.7735 5.8558 57.1717 4.25118C55.8383 2.92344 54.0289 2.35282 52.2852 2.53776L40.8667 0.376427C39.1253 0.0460836 36.9506 -0.172369 35.5778 1.07974C35.4912 1.1588 35.4028 1.24973 35.3159 1.35096C33.1874 0.575116 30.7048 1.03711 29.0003 2.73971C27.8695 3.8691 27.2467 5.3761 27.2467 6.98313C27.2467 7.56201 27.3287 8.1273 27.4849 8.66733C26.3502 8.90194 25.3095 9.45916 24.4771 10.2931C23.3441 11.4215 22.7193 12.9267 22.7181 14.5319C22.7176 15.1121 22.7999 15.6793 22.957 16.2207C21.8218 16.4548 20.7804 17.011 19.9454 17.8449C18.8124 18.9767 18.1885 20.4846 18.1885 22.0908C18.1885 23.3211 18.5558 24.4931 19.2364 25.4831C18.3771 25.7744 17.5899 26.2593 16.9307 26.9177C14.5915 29.254 14.5907 33.0603 16.9323 35.4061L17.2119 35.6845L11.449 41.437C9.30722 40.4286 6.66842 40.8064 4.90103 42.5716L1.84131 45.6227C0.753 46.7096 0.153843 48.1596 0.153671 49.7052C0.153671 51.2511 0.753 52.7012 1.84131 53.7883L5.65986 57.6022C6.33619 58.2778 7.43223 58.2772 8.1077 57.6008C8.78334 56.9245 8.78266 55.8285 8.10633 55.153L4.28778 51.3391C3.85431 50.9061 3.61558 50.3259 3.61558 49.7054C3.61558 49.0851 3.85431 48.505 4.28675 48.0731L7.34664 45.0218C8.11114 44.2582 9.28127 44.1444 10.1699 44.6757C10.2324 44.7697 10.3048 44.8591 10.3876 44.9421C10.536 45.0907 10.7053 45.2047 10.885 45.2881L28.4323 62.8095C28.5156 62.9912 28.6301 63.1622 28.7795 63.3117C28.9249 63.4573 29.0907 63.5699 29.2667 63.6527C29.6378 64.0723 29.8428 64.6082 29.8428 65.1798C29.8428 65.8003 29.6041 66.3804 29.1706 66.8133L26.1138 69.8665C25.2106 70.7658 23.7415 70.7656 22.841 69.8693L19.0225 66.0504C18.3465 65.3744 17.2506 65.3744 16.5746 66.0504C15.8986 66.7264 15.8986 67.8222 16.5746 68.4982L20.3959 72.3199C21.5207 73.44 22.9978 73.9998 24.4755 73.9998C25.9537 73.9998 27.4325 73.4391 28.5586 72.318L31.6173 69.2629C32.7056 68.1758 33.3049 66.7258 33.3049 65.1798C33.3049 64.0766 32.9981 63.023 32.4277 62.1144L38.9136 55.6365C38.9204 55.6294 38.9273 55.6224 38.9343 55.6153C39.677 54.8476 41.7452 54.9913 43.7453 55.1301C45.1664 55.229 46.7507 55.3388 48.2986 55.1604L55.4012 62.2545C54.9411 63.0934 54.6955 64.0405 54.6955 65.0267C54.6955 66.571 55.2948 68.0201 56.3831 69.1072L59.442 72.1623C60.5296 73.2487 61.9793 73.8471 63.5242 73.8471C65.0688 73.8471 66.5186 73.2488 67.6064 72.1623L86.1587 53.6324C87.247 52.5455 87.8464 51.0955 87.8464 49.5497C87.8462 48.004 87.2469 46.5541 86.1575 45.4661V45.4661ZM40.2222 3.77783L47.7309 5.19907L43.2366 9.69171C42.5413 9.35758 41.5884 8.73437 40.5431 7.7344C39.1122 6.36558 38.0887 4.78519 37.9956 3.79949C37.9954 3.79897 37.9954 3.79846 37.9954 3.79794C37.9954 3.79777 37.9952 3.7976 37.9952 3.79743C37.9885 3.72662 37.9868 3.67007 37.9877 3.62693C38.214 3.57193 38.8152 3.51091 40.2222 3.77783ZM31.4466 5.1891C32.3235 4.31305 33.6858 4.21199 34.6767 4.88299C35.2382 7.23733 37.2465 9.37116 38.1501 10.2357C38.8197 10.8764 40.9683 12.7975 43.137 13.3255C43.4304 13.7461 43.5901 14.2474 43.5901 14.7765C43.5901 15.4579 43.328 16.0951 42.8503 16.5722C42.3741 17.0493 41.7359 17.312 41.0532 17.312C40.3704 17.312 39.7322 17.0493 39.2537 16.57L39.2535 16.5698L39.2527 16.5689L31.4464 8.77682C30.9705 8.30158 30.7084 7.66444 30.7084 6.98313C30.7086 6.30165 30.9707 5.66451 31.4466 5.1891V5.1891ZM26.9235 12.7425C27.3998 12.2655 28.0373 12.0027 28.719 12.0027C29.4015 12.0027 30.041 12.2661 30.5204 12.7449L36.8062 19.0182C37.796 20.0095 37.796 21.6228 36.8096 22.6107C36.3308 23.0876 35.6904 23.3503 35.0065 23.3503C34.3226 23.3503 33.6822 23.0876 33.2054 22.6128L33.2052 22.6126L28.4366 17.8449C28.4292 17.8376 28.4211 17.8307 28.4135 17.8231L26.9217 16.3319C26.443 15.8538 26.1795 15.2154 26.18 14.5345C26.1807 13.8557 26.4433 13.2206 26.9235 12.7425V12.7425ZM22.3919 20.2943C22.8685 19.8184 23.5074 19.5563 24.1911 19.5563C24.8691 19.5563 25.5025 19.8146 25.977 20.2823L30.7603 25.0633C31.2373 25.5384 31.5001 26.1749 31.5001 26.8555C31.5001 27.5359 31.2373 28.1724 30.7584 28.6493C30.282 29.1251 29.6438 29.3872 28.9613 29.3872C28.2778 29.3872 27.6375 29.1244 27.1604 28.6493L25.4263 26.9174C25.426 26.9168 25.4255 26.9165 25.4251 26.9162L22.3921 23.8867C21.9139 23.4091 21.6506 22.7711 21.6506 22.0904C21.6506 21.41 21.9139 20.7718 22.3919 20.2943V20.2943ZM19.3772 29.3669C19.8559 28.8888 20.4956 28.6255 21.1785 28.6255C21.8611 28.6255 22.5007 28.8886 22.9792 29.3664L24.7156 31.1008C25.1928 31.5759 25.4554 32.2123 25.4554 32.8929C25.4554 33.5736 25.1926 34.2098 24.712 34.6887C24.2358 35.1656 23.5976 35.4284 22.9149 35.4284C22.232 35.4284 21.5939 35.1658 21.1142 34.6853L20.8968 34.4687C20.8938 34.4658 20.8916 34.4627 20.8888 34.4599C20.8856 34.4568 20.8821 34.4541 20.8789 34.451L19.3789 32.9569C18.3891 31.965 18.3882 30.3547 19.3772 29.3669ZM54.6518 49.0394C53.9762 48.3629 52.8801 48.3624 52.204 49.0378L50.664 50.576C49.2006 52.0393 46.5491 51.8551 43.9849 51.6772C41.2003 51.4836 38.3209 51.2839 36.4576 53.1969L30.0819 59.5648L14.1383 43.6446L19.7806 38.0124C20.7132 38.5841 21.7893 38.8905 22.9153 38.8905C24.5238 38.8905 26.0322 38.267 27.1588 37.1383C28.293 36.0087 28.9178 34.5012 28.9178 32.8931C28.9178 32.8782 28.9168 32.8634 28.9168 32.8484C28.9317 32.8486 28.9467 32.8495 28.9616 32.8495C30.568 32.8495 32.0752 32.2278 33.2033 31.101C34.3375 29.9714 34.9623 28.4637 34.9623 26.8558C34.9623 26.8409 34.9613 26.8261 34.9613 26.8111C34.9764 26.8111 34.9915 26.8122 35.0068 26.8122C36.6127 26.8122 38.1207 26.1912 39.2564 25.0601C40.4355 23.8791 41.0187 22.3243 41.0075 20.7728C41.023 20.773 41.0384 20.7739 41.0539 20.7739C42.6625 20.7737 44.1707 20.1503 45.2991 19.0199C46.4298 17.8905 47.0527 16.3835 47.0527 14.7765C47.0527 13.6526 46.7471 12.5782 46.1773 11.6475L51.1227 6.70418C51.4912 6.33722 51.9456 6.10691 52.4219 6.01186C52.4735 6.00636 52.5243 5.99811 52.5747 5.98815C53.3388 5.88279 54.1413 6.1186 54.7257 6.70057C55.7155 7.69212 55.7155 9.30533 54.7293 10.2933L53.2232 11.7932C53.2182 11.7982 53.2129 11.8027 53.2079 11.8077L51.4731 13.5395C50.7966 14.2149 50.796 15.311 51.4716 15.9873C52.1474 16.6638 53.2433 16.6643 53.9194 15.9889L55.4316 14.4788C55.4319 14.4784 55.4323 14.4781 55.4326 14.4777L55.6612 14.25C56.6538 13.2665 58.2619 13.2686 59.2534 14.2588C59.7305 14.7338 59.9933 15.3703 59.9933 16.0509C59.9933 16.7314 59.7305 17.3678 59.2496 17.8467L57.7349 19.3645C57.7347 19.3647 57.7345 19.3648 57.7344 19.3652L55.9998 21.0927C55.3225 21.7673 55.3202 22.8633 55.9948 23.5405C56.6694 24.2179 57.7653 24.22 58.4427 23.5455L60.1851 21.8101C60.6614 21.333 61.2996 21.0703 61.9823 21.0703C62.6651 21.0703 63.3035 21.333 63.7832 21.8135C64.2603 22.2888 64.5229 22.9252 64.5229 23.6058C64.5229 24.2863 64.2603 24.9228 63.7804 25.4006L60.7606 28.4216C60.0848 29.0978 60.0849 30.1936 60.7609 30.8695C61.099 31.2074 61.5418 31.3761 61.9847 31.3761C62.4278 31.3761 62.8709 31.207 63.2088 30.8689L64.6888 29.3884C64.6972 29.3803 64.7063 29.3733 64.7147 29.3649C65.191 28.8877 65.8292 28.6251 66.5119 28.6251C67.1947 28.6251 67.8329 28.8877 68.3109 29.3666C69.2997 30.3543 69.2988 31.9648 68.3109 32.9545L66.8061 34.4575C66.8056 34.458 66.8049 34.4586 66.8044 34.4591C66.8039 34.4596 66.8034 34.4603 66.8028 34.4608L64.4145 36.8462C63.7381 37.5219 63.7375 38.6179 64.4129 39.2943C64.751 39.6327 65.1944 39.802 65.6377 39.802C66.0803 39.802 66.523 39.6332 66.8609 39.2958L68.0292 38.1289L73.6283 43.7216L57.6861 59.6444L51.974 53.9392C52.3722 53.6831 52.7533 53.382 53.1109 53.0243L54.6501 51.4871C55.3268 50.8118 55.3274 49.7157 54.6518 49.0394V49.0394ZM83.7121 51.183L65.1597 69.7129C64.7257 70.1463 64.1448 70.3851 63.524 70.3851C62.9032 70.3851 62.3222 70.1463 61.8881 69.7127L58.8292 66.6576C58.3958 66.2248 58.157 65.6456 58.157 65.0267C58.157 64.4079 58.3958 63.8287 58.8292 63.3958L77.3816 44.8659C77.8157 44.4323 78.3965 44.1935 79.0175 44.1935C79.6383 44.1935 80.2192 44.4323 80.6544 44.867L83.7123 47.9162C84.1457 48.3491 84.3845 48.9291 84.3845 49.5495C84.3843 50.1702 84.1456 50.7502 83.7121 51.183V51.183Z" fill="#1D4283"/>
</svg>
