<svg width="90" height="90" viewBox="0 0 90 90" fill="none" xmlns="http://www.w3.org/2000/svg">
<g clip-path="url(#clip0)">
<path d="M37.5866 40.5533H32.9171C32.1888 40.5533 31.5987 41.1436 31.5987 41.8717C31.5987 42.5999 32.1888 43.1902 32.9171 43.1902H34.4039L30.3941 47.1998C29.8793 47.7147 29.8793 48.5493 30.3941 49.0642C30.909 49.5793 31.7439 49.5791 32.2588 49.0642L36.2686 45.0546V46.5415C36.2686 47.2696 36.8587 47.8599 37.587 47.8599C38.3153 47.8599 38.9054 47.2696 38.9054 46.5415V41.8724C38.869 41.2032 38.371 40.5373 37.5866 40.5533ZM79.3866 6.7585C79.1941 6.05902 78.6379 5.51372 77.9348 5.33529L74.8953 4.56339L74.1234 1.52378C73.9447 0.820619 73.3994 0.264416 72.6997 0.0721004C71.9999 -0.120391 71.247 0.079132 70.7344 0.591915L62.1628 9.16332C61.6635 9.66257 61.46 10.3981 61.6312 11.0824L62.6061 14.9878L58.5654 19.0285C52.2341 13.1476 43.7589 9.54514 34.4567 9.54514C25.7007 9.54514 17.2931 12.763 10.7827 18.6059C10.2409 19.0924 10.1957 19.9258 10.6822 20.4677C11.1684 21.0094 12.0016 21.0549 12.5441 20.5683C18.5699 15.1603 26.352 12.182 34.4567 12.182C43.0318 12.182 50.848 15.4892 56.7006 20.8933L50.4249 27.1691C46.1844 23.3681 40.5862 21.0524 34.4567 21.0524C21.2509 21.0524 10.5072 31.7961 10.5072 45.0019C10.5072 58.2077 21.2509 68.9513 34.4567 68.9513C39.0728 68.9513 43.5576 67.6292 47.4262 65.1282C48.0378 64.7329 48.2129 63.9167 47.8177 63.3053C47.4222 62.6935 46.6058 62.5186 45.9946 62.9138C42.5535 65.1384 38.5637 66.3145 34.4567 66.3145C22.7049 66.3145 13.1441 56.7537 13.1441 45.0019C13.1441 33.2501 22.705 23.6893 34.4567 23.6893C39.8591 23.6893 44.7976 25.7109 48.5579 29.036L42.2674 35.3265C40.1303 33.5979 37.413 32.5597 34.4567 32.5597C27.5961 32.5597 22.0145 38.1413 22.0145 45.0019C22.0145 51.8625 27.5961 57.444 34.4567 57.444C41.3173 57.444 46.8988 51.8625 46.8988 45.0019C46.8988 42.0456 45.8606 39.3282 44.1319 37.1911L50.4224 30.9006C53.7475 34.661 55.7693 39.5995 55.7693 45.0019C55.7693 50.2006 53.8684 55.2113 50.4168 59.1111C49.9342 59.6564 49.985 60.4896 50.5303 60.9722C51.0755 61.4549 51.9087 61.4041 52.3914 60.8586C56.2701 56.4763 58.4063 50.845 58.4063 45.0019C58.4063 38.8724 56.0906 33.2743 52.2895 29.0337L58.5652 22.758C63.9692 28.6106 67.2766 36.4268 67.2766 45.0019C67.2766 63.0987 52.5535 77.8217 34.4567 77.8217C16.3599 77.8217 1.63681 63.0987 1.63681 45.0019C1.63681 37.6392 4.01861 30.6821 8.52484 24.8826C8.9717 24.3076 8.86781 23.4794 8.2928 23.0325C7.71796 22.5859 6.88963 22.6896 6.44295 23.2648C1.57388 29.531 -0.999878 37.0477 -0.999878 45.0019C-0.999878 54.6822 2.9011 63.4673 9.21166 69.8721L3.7275 79.371C1.77463 82.7553 2.93872 87.0991 6.32341 89.0545C9.66678 90.986 14.031 89.8786 16.0067 86.4587L21.0037 77.8049C25.1545 79.5134 29.6971 80.4584 34.4569 80.4584C39.2166 80.4584 43.7592 79.5134 47.91 77.8049L52.9072 86.4589C54.8782 89.8749 59.2543 90.9817 62.5908 89.0541C65.975 87.099 67.1391 82.7551 65.186 79.3708L59.7021 69.8721C66.0126 63.4673 69.9136 54.6822 69.9136 45.0019C69.9136 35.6997 66.3111 27.2245 60.4302 20.8932L64.4999 16.8234L68.3631 17.8209C69.0469 17.9977 69.7926 17.7984 70.2982 17.293L78.867 8.72402C79.3798 8.21106 79.5788 7.45797 79.3866 6.7585ZM44.2621 45.0019C44.2621 50.4085 39.8635 54.8072 34.4569 54.8072C29.0502 54.8072 24.6516 50.4085 24.6516 45.0019C24.6516 39.5952 29.0502 35.1966 34.4569 35.1966C36.6857 35.1966 38.7423 35.9455 40.391 37.2031L40.1254 37.4687C39.6105 37.9836 39.6105 38.8184 40.1254 39.3331C40.6405 39.8482 41.475 39.848 41.99 39.3331L42.2555 39.0677C43.5131 40.7164 44.2621 42.773 44.2621 45.0019ZM13.7232 85.1401C12.4949 87.2658 9.76645 87.9969 7.64184 86.7709C5.516 85.5428 4.78471 82.8146 6.0112 80.6893L11.184 71.7293C13.4247 73.6827 15.9126 75.3587 18.5935 76.7055L13.7232 85.1401ZM62.9022 80.6891C64.1288 82.8146 63.3974 85.5429 61.2722 86.7706C59.1469 87.9974 56.4185 87.2658 55.1906 85.1403L50.3201 76.7056C53.0009 75.3587 55.489 73.6829 57.7295 71.7295L62.9022 80.6891ZM68.682 15.1798L65.144 14.2664L64.2739 10.7813L71.8341 3.2214L72.4299 5.56733C72.6127 6.2865 73.1729 6.84639 73.8916 7.02886L76.2373 7.62462L68.682 15.1798Z" fill="#1D4283"/>
</g>
<defs>
<clipPath id="clip0">
<rect width="90" height="90" fill="white"/>
</clipPath>
</defs>
</svg>
