<svg width="69" height="90" viewBox="0 0 69 90" fill="none" xmlns="http://www.w3.org/2000/svg">
<path d="M27.0556 21.9836H35.1514C35.9304 21.9836 36.6774 22.2809 37.2283 22.8101C37.7791 23.3392 38.0886 24.0569 38.0887 24.8053V48.3105C38.0887 48.6809 38.0128 49.0477 37.8652 49.3899C37.7177 49.7321 37.5014 50.0431 37.2288 50.305C36.9561 50.5669 36.6325 50.7747 36.2762 50.9165C35.92 51.0582 35.5382 51.1312 35.1526 51.1312H27.0556C26.2765 51.1312 25.5293 50.8338 24.9784 50.3046C24.4276 49.7754 24.1181 49.0576 24.1181 48.3091V24.8053C24.1181 24.0569 24.4277 23.3392 24.9786 22.81C25.5294 22.2808 26.2766 21.9836 27.0556 21.9836Z" fill="#1D4283"/>
<path d="M11.4485 33.0719H3.35257C1.73022 33.0719 0.415039 34.3354 0.415039 35.8939V48.3078C0.415039 49.8664 1.73022 51.1299 3.35257 51.1299H11.4485C13.0708 51.1299 14.386 49.8664 14.386 48.3078V35.8939C14.386 34.3354 13.0708 33.0719 11.4485 33.0719Z" fill="#1D4283"/>
<path d="M67.4517 10.6633L57.1864 0.932972C56.5496 0.334651 55.6941 -0.000256662 54.8034 1.47582e-07C53.9126 0.000256957 53.0573 0.335658 52.4209 0.934346L42.1618 10.6662C41.8654 10.947 41.6626 11.3061 41.5792 11.6978C41.4958 12.0896 41.5356 12.4963 41.6935 12.8663C41.8513 13.2363 42.1202 13.5528 42.4658 13.7756C42.8115 13.9984 43.2183 14.1174 43.6345 14.1175H45.3848C46.0305 14.1182 46.6495 14.365 47.106 14.8036C47.5625 15.2422 47.8192 15.8369 47.8199 16.4571V48.1448C47.8205 48.8931 48.1301 49.6106 48.6809 50.1398C49.2317 50.6689 49.9785 50.9664 50.7574 50.967H58.8548C59.6334 50.966 60.3799 50.6683 60.9303 50.1392C61.4807 49.6101 61.7902 48.8928 61.7907 48.1448V16.4532C61.7915 15.833 62.0483 15.2385 62.5048 14.8C62.9612 14.3615 63.5801 14.1148 64.2256 14.114H65.9761C66.3924 14.114 66.7992 13.9951 67.145 13.7725C67.4908 13.5498 67.7598 13.2335 67.918 12.8636C68.0762 12.4937 68.1163 12.087 68.0333 11.6951C67.9503 11.3033 67.7478 10.9444 67.4517 10.6633Z" fill="#1D4283"/>
<path d="M3.71784 72.6778C3.41239 73.0625 3.24938 73.5342 3.25464 74.018C3.25991 74.5018 3.43316 74.9701 3.74692 75.3486C8.75483 81.4231 31.4227 105.049 60.0003 74.9304C60.3837 74.5222 60.5933 73.9903 60.5874 73.4404C60.5816 72.8905 60.3606 72.3629 59.9685 71.9623C30.7388 42.4265 8.59195 66.5037 3.71784 72.6778ZM31.9217 82.7195C29.8636 82.7196 27.8516 82.1334 26.1403 81.0351C24.4289 79.9367 23.095 78.3755 22.3073 76.5489C21.5196 74.7222 21.3134 72.7122 21.7148 70.773C22.1162 68.8337 23.1072 67.0524 24.5624 65.6543C26.0177 64.2561 27.8718 63.3039 29.8904 62.9181C31.909 62.5323 34.0013 62.7302 35.9028 63.4868C37.8043 64.2434 39.4295 65.5247 40.573 67.1686C41.7164 68.8126 42.3268 70.7453 42.3268 72.7225C42.3269 75.3737 41.2306 77.9164 39.2793 79.7912C37.328 81.6659 34.6814 82.7193 31.9217 82.7195Z" fill="#1D4283"/>
<path d="M31.9232 67.983C30.9475 67.983 29.9937 68.261 29.1824 68.7818C28.3711 69.3026 27.7388 70.0428 27.3654 70.9088C26.992 71.7748 26.8943 72.7277 27.0847 73.6471C27.275 74.5665 27.7449 75.4109 28.4349 76.0737C29.1248 76.7365 30.0039 77.1879 30.9609 77.3708C31.9179 77.5536 32.9098 77.4598 33.8113 77.101C34.7127 76.7423 35.4832 76.1348 36.0253 75.3554C36.5673 74.576 36.8566 73.6597 36.8566 72.7223C36.8566 72.0999 36.729 71.4836 36.4811 70.9086C36.2332 70.3336 35.8698 69.8111 35.4117 69.3711C34.9535 68.931 34.4097 68.5819 33.8111 68.3438C33.2126 68.1056 32.5711 67.983 31.9232 67.983Z" fill="#1D4283"/>
</svg>
